<svg width="228" height="71" fill="none" xmlns="http://www.w3.org/2000/svg"><path d="M13.36 14.16V39H9.4V14.16H.32v-3.48h22.12v3.48h-9.08Zm16.813 11.88v9.44h14.8V39h-18.76V10.68h18.16v3.48h-14.2v8.48h13.36v3.4h-13.36Zm31.104.72V39h-4V26.76l-10.6-16.08h4.88l7.84 12.8 7.88-12.8h4.6l-10.6 16.08Zm17.88-16.08v12.48h.08l12.64-12.48h5.48l-13.76 12.96L98.198 39h-5.68l-13.28-14.64h-.08V39h-3.96V10.68h3.96Zm25.939 21.36-2.84 6.96h-4.4l12.28-28.32h3.6L125.896 39h-4.48l-2.88-6.96h-13.44Zm6.72-16.76-5.32 13.28h10.6l-5.28-13.28Zm21.358 19.48c.533.507.8 1.12.8 1.84s-.267 1.347-.8 1.88c-.507.507-1.134.76-1.88.76a2.688 2.688 0 0 1-1.92-.76c-.507-.533-.76-1.147-.76-1.84 0-.72.253-1.333.76-1.84a2.618 2.618 0 0 1 1.92-.8c.746 0 1.373.253 1.88.76Zm23.63-21.56-2.8 2.72c-.586-.8-1.373-1.44-2.36-1.92-.96-.48-2.013-.72-3.16-.72-1.44 0-2.72.4-3.84 1.2-1.12.773-1.68 1.907-1.68 3.4 0 .747.134 1.387.4 1.92.267.507.72.96 1.36 1.36.64.373 1.214.667 1.72.88.507.187 1.28.453 2.32.8 1.04.32 1.827.587 2.36.8.56.187 1.28.52 2.16 1 .88.48 1.547.987 2 1.52.48.507.894 1.187 1.24 2.04.374.853.56 1.827.56 2.92 0 2.773-.96 4.907-2.88 6.4-1.893 1.467-4.2 2.2-6.92 2.2-1.84 0-3.6-.347-5.28-1.04-1.653-.72-3-1.747-4.04-3.08l3.08-2.6c.667.987 1.56 1.787 2.68 2.4a7.61 7.61 0 0 0 3.64.92c1.494 0 2.814-.413 3.96-1.24 1.147-.853 1.72-2.053 1.72-3.6 0-.667-.133-1.267-.4-1.8-.266-.533-.56-.96-.88-1.28-.32-.32-.84-.64-1.56-.96a18.3 18.3 0 0 0-1.76-.76c-.426-.16-1.133-.387-2.12-.68a32.735 32.735 0 0 1-2.72-1c-.72-.347-1.48-.813-2.28-1.4a5.854 5.854 0 0 1-1.76-2.32c-.4-.933-.6-2.013-.6-3.24 0-1.787.494-3.307 1.48-4.56.987-1.28 2.187-2.187 3.6-2.72 1.44-.533 2.987-.8 4.64-.8 1.627 0 3.16.293 4.6.88 1.467.587 2.64 1.373 3.52 2.36Zm9.854-2.52v12.48h.08l12.64-12.48h5.48l-13.76 12.96 14.6 15.36h-5.68l-13.28-14.64h-.08V39h-3.96V10.68h3.96Zm26.367 0V39h-3.96V10.68h3.96Zm12.059 0 14.8 22.64h.08V10.68h3.96V39h-5l-14.96-23.12h-.08V39h-3.96V10.68h5.16ZM.432 68.736v-3.798h.972c.9-1.152 1.35-2.862 1.35-5.13v-2.232h6.12v7.362h1.35v3.798H9.09V66H1.566v2.736H.432Zm2.358-3.798h4.878v-6.336H3.942v1.548c0 1.812-.384 3.408-1.152 4.788Zm13.546 1.278c-1.296 0-2.37-.42-3.222-1.26-.84-.84-1.26-1.896-1.26-3.168 0-1.272.42-2.328 1.26-3.168.852-.84 1.926-1.26 3.222-1.26 1.308 0 2.382.42 3.222 1.26.852.84 1.278 1.896 1.278 3.168 0 1.272-.426 2.328-1.278 3.168-.84.84-1.914 1.26-3.222 1.26Zm0-1.044c.96 0 1.734-.318 2.322-.954.588-.648.882-1.458.882-2.43 0-.972-.294-1.782-.882-2.43-.588-.648-1.362-.972-2.322-.972-.948 0-1.716.324-2.304.972-.588.648-.882 1.458-.882 2.43 0 .96.294 1.764.882 2.412.588.648 1.356.972 2.304.972ZM23.47 66v-8.424h1.764l3.114 6.606h.018l3.096-6.606h1.764V66h-1.224v-6.966h-.036L28.654 66h-.63l-3.312-6.966h-.018V66H23.47Zm15.276.216c-.756 0-1.434-.21-2.034-.63-.588-.432-.882-1.074-.882-1.926 0-.42.072-.786.216-1.098.144-.324.36-.588.648-.792.288-.204.6-.366.936-.486a5.13 5.13 0 0 1 1.242-.288c.492-.072.948-.114 1.368-.126.432-.024.942-.036 1.53-.036v-.27c0-1.452-.75-2.178-2.25-2.178-1.008 0-1.842.33-2.502.99l-.684-.81c.804-.804 1.908-1.206 3.312-1.206.96 0 1.746.264 2.358.792.612.528.918 1.284.918 2.268v3.69c0 .756.048 1.386.144 1.89h-1.098a7.946 7.946 0 0 1-.126-1.368h-.036c-.732 1.056-1.752 1.584-3.06 1.584Zm.324-1.008c.828 0 1.482-.27 1.962-.81.492-.54.738-1.2.738-1.98v-.63h-.36c-.576 0-1.092.024-1.548.072a7.766 7.766 0 0 0-1.35.234c-.444.12-.792.306-1.044.558-.252.252-.378.57-.378.954 0 .552.192.96.576 1.224.384.252.852.378 1.404.378Zm7.005.792v-8.424H47.3v7.362h4.086v-7.362h1.224v7.362h4.086v-7.362h1.224V66H46.075Zm15.082 0v-8.424h1.224v3.528h4.842v-3.528h1.224V66h-1.224v-3.87h-4.842V66h-1.224Zm10.53 0v-8.424h1.223v6.732h.018l4.986-6.732h1.332V66H78.04v-6.804h-.036L73.018 66h-1.332Zm14.536.216c-1.248 0-2.286-.42-3.114-1.26-.828-.84-1.242-1.896-1.242-3.168 0-1.26.408-2.31 1.224-3.15.816-.852 1.824-1.278 3.024-1.278 1.272 0 2.262.396 2.97 1.188.708.78 1.062 1.776 1.062 2.988 0 .24-.006.432-.018.576h-6.984a3.13 3.13 0 0 0 .918 2.178c.588.588 1.308.882 2.16.882.588 0 1.122-.138 1.602-.414.48-.288.846-.636 1.098-1.044l.918.72c-.936 1.188-2.142 1.782-3.618 1.782Zm-3.06-5.076h5.742c-.036-.816-.3-1.476-.792-1.98-.48-.516-1.146-.774-1.998-.774-.792 0-1.47.276-2.034.828-.552.54-.858 1.182-.918 1.926Zm21.209 3.618c-.792.972-1.86 1.458-3.204 1.458s-2.43-.414-3.258-1.242c-.828-.84-1.242-1.902-1.242-3.186s.414-2.34 1.242-3.168c.828-.84 1.914-1.26 3.258-1.26.6 0 1.182.126 1.746.378a3.371 3.371 0 0 1 1.386 1.08l-.954.684c-.204-.324-.504-.588-.9-.792a2.526 2.526 0 0 0-1.26-.324c-.96 0-1.74.324-2.34.972-.588.636-.882 1.446-.882 2.43 0 .972.294 1.782.882 2.43.588.636 1.362.954 2.322.954.972 0 1.734-.366 2.286-1.098l.918.684ZM106.28 66v-8.424h7.164V66h-1.224v-7.398h-4.716V66h-1.224Zm12.692.216c-.756 0-1.434-.21-2.034-.63-.588-.432-.882-1.074-.882-1.926 0-.42.072-.786.216-1.098.144-.324.36-.588.648-.792.288-.204.6-.366.936-.486a5.13 5.13 0 0 1 1.242-.288c.492-.072.948-.114 1.368-.126.432-.024.942-.036 1.53-.036v-.27c0-1.452-.75-2.178-2.25-2.178-1.008 0-1.842.33-2.502.99l-.684-.81c.804-.804 1.908-1.206 3.312-1.206.96 0 1.746.264 2.358.792.612.528.918 1.284.918 2.268v3.69c0 .756.048 1.386.144 1.89h-1.098a7.946 7.946 0 0 1-.126-1.368h-.036c-.732 1.056-1.752 1.584-3.06 1.584Zm.324-1.008c.828 0 1.482-.27 1.962-.81.492-.54.738-1.2.738-1.98v-.63h-.36c-.576 0-1.092.024-1.548.072a7.766 7.766 0 0 0-1.35.234c-.444.12-.792.306-1.044.558-.252.252-.378.57-.378.954 0 .552.192.96.576 1.224.384.252.852.378 1.404.378Zm11.506.792v-8.424h7.164V66h-1.224v-7.398h-4.716V66h-1.224Zm10.406 4.32V57.576h1.224v1.458h.054a3.378 3.378 0 0 1 1.368-1.224c.576-.3 1.176-.45 1.8-.45 1.296 0 2.346.426 3.15 1.278.804.84 1.206 1.89 1.206 3.15s-.402 2.316-1.206 3.168c-.804.84-1.854 1.26-3.15 1.26a3.94 3.94 0 0 1-1.782-.432 3.558 3.558 0 0 1-1.386-1.206h-.054v5.742h-1.224Zm4.32-5.148c.984 0 1.758-.318 2.322-.954.576-.648.864-1.458.864-2.43 0-.972-.288-1.782-.864-2.43-.564-.648-1.338-.972-2.322-.972-.936 0-1.71.324-2.322.972-.612.648-.918 1.458-.918 2.43 0 .972.306 1.782.918 2.43.612.636 1.386.954 2.322.954Zm10.976 1.044c-1.296 0-2.37-.42-3.222-1.26-.84-.84-1.26-1.896-1.26-3.168 0-1.272.42-2.328 1.26-3.168.852-.84 1.926-1.26 3.222-1.26 1.308 0 2.382.42 3.222 1.26.852.84 1.278 1.896 1.278 3.168 0 1.272-.426 2.328-1.278 3.168-.84.84-1.914 1.26-3.222 1.26Zm0-1.044c.96 0 1.734-.318 2.322-.954.588-.648.882-1.458.882-2.43 0-.972-.294-1.782-.882-2.43-.588-.648-1.362-.972-2.322-.972-.948 0-1.716.324-2.304.972-.588.648-.882 1.458-.882 2.43 0 .96.294 1.764.882 2.412.588.648 1.356.972 2.304.972Zm14.514 3.564V66h-7.38v-8.424h1.224v7.362h4.716v-7.362h1.224v7.362h1.35v3.798h-1.134Zm7.121-2.52c-1.248 0-2.286-.42-3.114-1.26-.828-.84-1.242-1.896-1.242-3.168 0-1.26.408-2.31 1.224-3.15.816-.852 1.824-1.278 3.024-1.278 1.272 0 2.262.396 2.97 1.188.708.78 1.062 1.776 1.062 2.988 0 .24-.006.432-.018.576h-6.984a3.13 3.13 0 0 0 .918 2.178c.588.588 1.308.882 2.16.882.588 0 1.122-.138 1.602-.414.48-.288.846-.636 1.098-1.044l.918.72c-.936 1.188-2.142 1.782-3.618 1.782Zm-3.06-5.076h5.742c-.036-.816-.3-1.476-.792-1.98-.48-.516-1.146-.774-1.998-.774-.792 0-1.47.276-2.034.828-.552.54-.858 1.182-.918 1.926Zm8.429 7.596v-3.798h.972c.9-1.152 1.35-2.862 1.35-5.13v-2.232h6.12v7.362h1.35v3.798h-1.134V66h-7.524v2.736h-1.134Zm2.358-3.798h4.878v-6.336h-3.726v1.548c0 1.812-.384 3.408-1.152 4.788Zm9.712 5.382c-.372 0-.738-.036-1.098-.108l.126-1.116c.288.096.588.144.9.144.396 0 .714-.126.954-.378.252-.24.474-.612.666-1.116l.684-1.764-3.6-8.406h1.368l2.862 7.11h.036l2.61-7.11h1.332l-4.194 10.602c-.276.708-.618 1.242-1.026 1.602-.396.36-.936.54-1.62.54Zm8.753 0V57.576h1.224v1.458h.054a3.378 3.378 0 0 1 1.368-1.224c.576-.3 1.176-.45 1.8-.45 1.296 0 2.346.426 3.15 1.278.804.84 1.206 1.89 1.206 3.15s-.402 2.316-1.206 3.168c-.804.84-1.854 1.26-3.15 1.26a3.94 3.94 0 0 1-1.782-.432 3.558 3.558 0 0 1-1.386-1.206h-.054v5.742h-1.224Zm4.32-5.148c.984 0 1.758-.318 2.322-.954.576-.648.864-1.458.864-2.43 0-.972-.288-1.782-.864-2.43-.564-.648-1.338-.972-2.322-.972-.936 0-1.71.324-2.322.972-.612.648-.918 1.458-.918 2.43 0 .972.306 1.782.918 2.43.612.636 1.386.954 2.322.954Zm7.106.828v-8.424h1.224v3.168h2.034c1.044 0 1.854.228 2.43.684.588.456.882 1.11.882 1.962 0 .84-.288 1.488-.864 1.944-.564.444-1.374.666-2.43.666h-3.276Zm1.224-1.062h2.178c1.272 0 1.908-.516 1.908-1.548 0-1.08-.636-1.62-1.908-1.62h-2.178v3.168ZM223.983 66v-8.424h1.224V66h-1.224Z" fill="#2C2C2C"/></svg>