<svg width="81" height="80" viewBox="0 0 81 80" fill="none" xmlns="http://www.w3.org/2000/svg">
<circle cx="40.5" cy="40" r="39.5" fill="#9E8A81" stroke="#9E8A81"/>
<path d="M29 56H26C23.7909 56 22 54.2091 22 52V24C22 21.7909 23.7909 20 26 20H54C56.2091 20 58 21.7909 58 24V52C58 54.2091 56.2091 56 54 56H51M40 54C43.3137 54 46 51.3137 46 48C46 44.6863 43.3137 42 40 42C36.6863 42 34 44.6863 34 48C34 51.3137 36.6863 54 40 54ZM40 54L40.0429 53.9996L33.6573 60.3851L28.0005 54.7283L34.0393 48.6895M40 54L46.3856 60.3851L52.0425 54.7283L46.0037 48.6895M34 28H46M30 35H50" stroke="#F0EFEB" stroke-width="1.5" stroke-linecap="round" stroke-linejoin="round"/>
</svg>
