<svg width="80" height="80" viewBox="0 0 80 80" fill="none" xmlns="http://www.w3.org/2000/svg">
<circle cx="40" cy="40" r="39.5" fill="#9E8A81" stroke="#9E8A81"/>
<path d="M49.5 45.0001V38.989C49.5 38.63 49.5 38.4505 49.4453 38.2921C49.397 38.152 49.3181 38.0243 49.2144 37.9184C49.0971 37.7987 48.9366 37.7184 48.6155 37.5579L39.5 33.0001M23.5 35.0001V48.6134C23.5 49.3572 23.5 49.7291 23.616 50.0547C23.7186 50.3426 23.8858 50.6031 24.1048 50.8163C24.3524 51.0575 24.6905 51.2125 25.3667 51.5224L38.1667 57.389C38.6572 57.6138 38.9024 57.7262 39.1579 57.7706C39.3843 57.8099 39.6157 57.8099 39.8421 57.7706C40.0976 57.7262 40.3428 57.6138 40.8333 57.389L53.6333 51.5224C54.3095 51.2125 54.6476 51.0575 54.8952 50.8163C55.1142 50.6031 55.2814 50.3426 55.384 50.0547C55.5 49.7291 55.5 49.3572 55.5 48.6134V35.0001M19.5 33.0001L38.7845 23.3579C39.0468 23.2267 39.178 23.1611 39.3156 23.1353C39.4375 23.1124 39.5625 23.1124 39.6844 23.1353C39.822 23.1611 39.9532 23.2267 40.2155 23.3579L59.5 33.0001L40.2155 42.6424C39.9532 42.7735 39.822 42.8391 39.6844 42.8649C39.5625 42.8878 39.4375 42.8878 39.3156 42.8649C39.178 42.8391 39.0468 42.7735 38.7845 42.6424L19.5 33.0001Z" stroke="#F0EFEB" stroke-width="1.5" stroke-linecap="round" stroke-linejoin="round"/>
</svg>
