<svg width="84" height="84" viewBox="0 0 84 84" fill="none" xmlns="http://www.w3.org/2000/svg">
<rect width="84" height="84" rx="42" fill="#E9E3DC"/>
<path fill-rule="evenodd" clip-rule="evenodd" d="M31.1655 24.3255C31.7128 21.4879 34.7235 15.8726 42.3477 15.8726C46.1586 15.8726 49.0243 17.485 51.0453 19.4876C53.0569 21.4808 54.2434 23.8699 54.7243 25.4831C54.8042 25.751 54.6518 26.033 54.3838 26.1129C54.1159 26.1928 53.8339 26.0403 53.754 25.7724C53.3158 24.3026 52.2102 22.0672 50.3326 20.2068C48.4645 18.3556 45.844 16.8851 42.3477 16.8851C35.3575 16.8851 32.6465 21.9932 32.1597 24.5172C32.1067 24.7918 31.8413 24.9714 31.5667 24.9185C31.2922 24.8655 31.1126 24.6 31.1655 24.3255Z" fill="#2C2C2C"/>
<path fill-rule="evenodd" clip-rule="evenodd" d="M40.044 21.1093C38.5786 21.1242 37.287 21.6169 36.3069 22.842C35.8164 23.4551 35.5806 24.0613 35.5291 24.6577C35.4773 25.2578 35.6093 25.8839 35.9114 26.5362C36.5225 27.8556 37.7991 29.2162 39.4458 30.5399C42.7294 33.1795 47.2776 35.5129 50.155 36.9516C53.8156 38.782 55.6195 41.072 56.3351 42.6633C56.526 42.4682 56.7623 42.1452 56.987 41.6374C57.369 40.7738 57.6947 39.4205 57.6947 37.4045C57.6947 32.4767 54.1299 28.9355 52.0568 27.0351C51.0488 26.1112 48.0636 23.7492 44.8108 22.2987C43.1836 21.5732 41.5296 21.0942 40.044 21.1093ZM56.6772 43.6932C57.1041 43.4083 57.552 42.8626 57.9129 42.047C58.3653 41.0244 58.7072 39.5245 58.7072 37.4045C58.7072 31.9918 54.8039 28.1798 52.7409 26.2887C51.6807 25.3169 48.6053 22.8821 45.2231 21.374C43.5327 20.6203 41.7255 20.0796 40.0337 20.0968C38.3214 20.1142 36.7192 20.7058 35.5163 22.2095C34.9153 22.9607 34.591 23.753 34.5204 24.5706C34.5157 24.6246 34.5122 24.6785 34.5098 24.7324C33.3931 25.5117 31.0615 27.2227 30.105 28.1336C28.8764 29.3037 25.8743 32.2985 25.7544 37.3925C25.707 39.4075 26.0449 40.8869 26.5095 41.9267C26.872 42.738 27.3208 43.2994 27.7367 43.623C27.7264 43.7034 27.7187 43.7786 27.7133 43.848C27.5791 45.0277 27.393 46.7703 27.2829 48.4441C27.174 50.1 27.1336 51.7586 27.318 52.7229C27.5889 54.1403 28.1048 56.7368 31.114 60.1983C32.0538 61.2794 33.9687 63.2532 36.0524 64.9611C37.0942 65.8151 38.1899 66.6124 39.2359 67.1987C40.2684 67.7774 41.3121 68.1852 42.2344 68.1852C43.1634 68.1852 44.2263 67.7466 45.2752 67.1363C46.3399 66.5167 47.4594 65.6784 48.5191 64.7929C50.6393 63.0212 52.5665 61.0215 53.4095 60.0912C54.2795 59.1312 55.1201 57.8509 55.7809 56.539C56.4398 55.2308 56.939 53.8537 57.0976 52.6966C57.2508 51.5797 57.2196 49.9992 57.1194 48.4026C57.0186 46.7958 56.8451 45.1343 56.7013 43.84C56.7007 43.8344 56.7 43.8289 56.6992 43.8233C56.6931 43.7814 56.6858 43.738 56.6772 43.6932ZM27.9933 42.4543C28.2421 41.6425 28.6828 40.6967 29.4227 40.0185C29.7407 39.727 30.4635 39.248 31.3693 38.6873C32.2934 38.1153 33.4561 37.4294 34.6937 36.716C36.9255 35.4293 39.4106 34.0472 41.1994 33.0707C40.3637 32.511 39.5569 31.9283 38.8114 31.3291C37.1263 29.9744 35.7028 28.495 34.9927 26.9617C34.8303 26.6112 34.7038 26.2547 34.6204 25.894C33.4255 26.7473 31.5862 28.1212 30.8033 28.8668C29.6192 29.9945 26.8766 32.7445 26.7667 37.4164C26.7222 39.3078 27.0407 40.6337 27.4339 41.5136C27.6168 41.9231 27.8131 42.2305 27.9933 42.4543ZM42.1633 33.6987C40.3646 34.6756 37.6301 36.1918 35.1994 37.5931C33.9657 38.3043 32.8133 38.9843 31.9022 39.5483C30.9728 40.1236 30.3403 40.5509 30.1069 40.7649C29.3331 41.4742 28.9361 42.6472 28.785 43.4703C28.751 43.6553 28.7312 43.8136 28.7222 43.934C28.7217 43.9404 28.7211 43.9468 28.7203 43.9532C28.5866 45.1287 28.402 46.8569 28.2932 48.5106C28.183 50.1866 28.1564 51.7163 28.3125 52.5328C28.5635 53.8459 29.0261 56.2533 31.8781 59.534C32.786 60.5784 34.6606 62.5111 36.6942 64.1781C37.7111 65.0116 38.756 65.769 39.7309 66.3155C40.7194 66.8695 41.5768 67.1727 42.2344 67.1727C42.8851 67.1727 43.7539 66.8501 44.7659 66.2612C45.7621 65.6816 46.8327 64.8827 47.8699 64.016C49.9433 62.2834 51.8363 60.3194 52.6592 59.4113C53.4552 58.533 54.2472 57.333 54.8766 56.0835C55.5079 54.8302 55.9566 53.5647 56.0945 52.5591C56.2328 51.5505 56.2087 50.0576 56.1089 48.4659C56.0099 46.8881 55.8392 45.2503 55.696 43.9608C55.5452 42.9547 54.182 40.0972 49.7022 37.8573C47.7077 36.86 44.8537 35.4061 42.1633 33.6987Z" fill="#2C2C2C"/>
<path fill-rule="evenodd" clip-rule="evenodd" d="M62.41 49.9388C62.5536 49.9441 62.6883 50.0102 62.7803 50.1206L64.2164 51.844C64.3954 52.0588 64.3664 52.3781 64.1516 52.557C63.9368 52.736 63.6176 52.707 63.4386 52.4922L62.8106 51.7386C61.9236 61.3818 56.1147 66.1009 53.098 67.2882C52.8379 67.3905 52.5439 67.2626 52.4416 67.0025C52.3392 66.7423 52.4671 66.4484 52.7272 66.346C55.3871 65.2992 60.8906 60.9426 61.7879 51.7974L61.0894 52.52C60.8951 52.721 60.5746 52.7264 60.3735 52.5321C60.1725 52.3378 60.1671 52.0173 60.3614 51.8163L62.0274 50.0929C62.1273 49.9895 62.2664 49.9335 62.41 49.9388Z" fill="#2C2C2C"/>
<path fill-rule="evenodd" clip-rule="evenodd" d="M53.5361 49.8971C53.6476 49.9877 53.7153 50.1215 53.7223 50.2651L53.832 52.5058C53.8457 52.7851 53.6304 53.0225 53.3511 53.0362C53.0719 53.0499 52.8344 52.8346 52.8207 52.5553L52.785 51.8261C52.2657 52.4903 51.66 53.0919 50.933 53.5581C49.7465 54.319 48.2749 54.6951 46.4125 54.4509C46.1353 54.4145 45.94 54.1603 45.9764 53.8831C46.0127 53.6059 46.2669 53.4106 46.5441 53.447C48.1859 53.6623 49.4144 53.3292 50.3864 52.7059C51.0764 52.2634 51.6558 51.6627 52.1644 50.9685L50.9279 51.1636C50.6517 51.2072 50.3925 51.0186 50.3489 50.7425C50.3054 50.4663 50.4939 50.2071 50.7701 50.1635L53.1378 49.7898C53.2797 49.7674 53.4245 49.8064 53.5361 49.8971Z" fill="#2C2C2C"/>
<path fill-rule="evenodd" clip-rule="evenodd" d="M30.6475 49.8971C30.536 49.9877 30.4683 50.1215 30.4613 50.2651L30.3516 52.5058C30.3379 52.7851 30.5532 53.0225 30.8324 53.0362C31.1117 53.0499 31.3492 52.8346 31.3629 52.5553L31.3986 51.8261C31.9179 52.4903 32.5236 53.0919 33.2506 53.5581C34.4371 54.319 35.9086 54.6951 37.7711 54.4509C38.0483 54.4145 38.2436 54.1603 38.2072 53.8831C38.1709 53.6059 37.9167 53.4106 37.6395 53.447C35.9977 53.6623 34.7692 53.3292 33.7972 52.7059C33.1072 52.2634 32.5278 51.6627 32.0192 50.9685L33.2557 51.1636C33.5319 51.2072 33.7911 51.0186 33.8347 50.7425C33.8782 50.4663 33.6897 50.2071 33.4135 50.1635L31.0458 49.7898C30.9039 49.7674 30.7591 49.8064 30.6475 49.8971Z" fill="#2C2C2C"/>
<path fill-rule="evenodd" clip-rule="evenodd" d="M51.7443 41.6457C51.6956 41.5118 51.5927 41.4047 51.461 41.3506L49.3857 40.4986C49.1271 40.3924 48.8313 40.5159 48.7251 40.7746C48.6189 41.0332 48.7425 41.329 49.0011 41.4352L49.6079 41.6843C48.8046 41.9455 48.0648 42.2991 47.4314 42.673C46.4105 43.2756 45.6064 43.9669 45.2589 44.47C45.1001 44.7001 45.1578 45.0154 45.3879 45.1742C45.6179 45.3331 45.9332 45.2754 46.0921 45.0453C46.3192 44.7165 46.98 44.1152 47.9461 43.5449C48.6373 43.1369 49.454 42.7633 50.327 42.5259L49.8228 43.4888C49.6931 43.7364 49.7887 44.0424 50.0364 44.1721C50.2841 44.3018 50.59 44.2062 50.7197 43.9585L51.7172 42.0538C51.7832 41.9276 51.7931 41.7795 51.7443 41.6457Z" fill="#2C2C2C"/>
<path fill-rule="evenodd" clip-rule="evenodd" d="M46.0064 37.7462C45.8838 37.6885 45.7433 37.6823 45.6161 37.7291L43.2613 38.5951C42.9989 38.6916 42.8644 38.9826 42.9609 39.245C43.0574 39.5074 43.3484 39.6419 43.6108 39.5454L44.6359 39.1684C44.3737 39.6912 44.1333 40.255 43.9246 40.8083C43.5294 41.8554 43.231 42.9083 43.109 43.6402C43.0631 43.916 43.2494 44.1768 43.5252 44.2228C43.801 44.2688 44.0618 44.0825 44.1078 43.8067C44.2156 43.1599 44.4916 42.1734 44.8719 41.1657C45.1092 40.537 45.3807 39.9169 45.6675 39.3772L46.0033 40.33C46.0962 40.5937 46.3853 40.7321 46.649 40.6392C46.9127 40.5463 47.0511 40.2572 46.9582 39.9935L46.2683 38.036C46.2233 37.9082 46.129 37.8038 46.0064 37.7462Z" fill="#2C2C2C"/>
<path fill-rule="evenodd" clip-rule="evenodd" d="M32.0994 41.6457C32.1482 41.5118 32.251 41.4047 32.3828 41.3506L34.458 40.4986C34.7167 40.3924 35.0124 40.5159 35.1186 40.7746C35.2248 41.0332 35.1012 41.329 34.8426 41.4352L34.2359 41.6843C35.0392 41.9455 35.779 42.2991 36.4123 42.673C37.4333 43.2756 38.2374 43.9669 38.5848 44.47C38.7437 44.7001 38.686 45.0154 38.4559 45.1742C38.2258 45.3331 37.9105 45.2754 37.7516 45.0453C37.5246 44.7165 36.8638 44.1152 35.8976 43.5449C35.2064 43.1369 34.3897 42.7633 33.5168 42.5259L34.021 43.4888C34.1507 43.7364 34.0551 44.0424 33.8074 44.1721C33.5597 44.3018 33.2537 44.2062 33.124 43.9585L32.1266 42.0538C32.0605 41.9276 32.0507 41.7795 32.0994 41.6457Z" fill="#2C2C2C"/>
<path fill-rule="evenodd" clip-rule="evenodd" d="M37.8373 37.7462C37.9599 37.6885 38.1005 37.6823 38.2276 37.7291L40.5824 38.5951C40.8448 38.6916 40.9793 38.9826 40.8828 39.245C40.7863 39.5074 40.4954 39.6419 40.233 39.5454L39.2078 39.1684C39.4701 39.6912 39.7104 40.255 39.9192 40.8083C40.3143 41.8554 40.6127 42.9083 40.7347 43.6402C40.7807 43.916 40.5944 44.1768 40.3186 44.2228C40.0428 44.2688 39.782 44.0825 39.736 43.8067C39.6282 43.1599 39.3521 42.1734 38.9719 41.1657C38.7346 40.537 38.4631 39.9169 38.1763 39.3772L37.8405 40.33C37.7475 40.5937 37.4584 40.7321 37.1947 40.6392C36.931 40.5463 36.7926 40.2572 36.8855 39.9935L37.5754 38.036C37.6204 37.9082 37.7148 37.8038 37.8373 37.7462Z" fill="#2C2C2C"/>
<path fill-rule="evenodd" clip-rule="evenodd" d="M33.8527 46.7143C34.1045 46.5927 34.4071 46.6983 34.5287 46.9501C34.8327 47.58 35.5 47.9601 36.2818 47.9782C37.0577 47.9961 37.9055 47.6502 38.4933 46.8664C38.6611 46.6428 38.9784 46.5974 39.2021 46.7652C39.4257 46.9329 39.4711 47.2503 39.3033 47.4739C38.5124 48.5284 37.3495 49.0156 36.2584 48.9904C35.1732 48.9653 34.1171 48.4264 33.6169 47.3903C33.4953 47.1385 33.6009 46.8358 33.8527 46.7143Z" fill="#2C2C2C"/>
<path fill-rule="evenodd" clip-rule="evenodd" d="M44.9972 46.7143C45.249 46.5927 45.5517 46.6983 45.6732 46.9501C45.9773 47.58 46.6446 47.9601 47.4263 47.9782C48.2022 47.9961 49.05 47.6502 49.6378 46.8664C49.8056 46.6428 50.1229 46.5974 50.3466 46.7652C50.5703 46.9329 50.6156 47.2503 50.4478 47.4739C49.657 48.5284 48.4941 49.0156 47.403 48.9904C46.3177 48.9653 45.2616 48.4264 44.7614 47.3903C44.6398 47.1385 44.7454 46.8358 44.9972 46.7143Z" fill="#2C2C2C"/>
<path fill-rule="evenodd" clip-rule="evenodd" d="M41.0822 51.6937C41.3443 51.791 41.4778 52.0824 41.3805 52.3445C41.2524 52.6894 41.341 52.8499 41.4325 52.9416C41.5603 53.0696 41.8113 53.17 42.1232 53.17C42.4337 53.17 42.6963 53.0701 42.838 52.934C42.9459 52.8305 43.0352 52.6623 42.925 52.326C42.8378 52.0604 42.9825 51.7744 43.2482 51.6872C43.5139 51.6001 43.7999 51.7448 43.887 52.0105C44.1065 52.6795 43.9549 53.2654 43.5391 53.6644C43.1572 54.0311 42.6135 54.1825 42.1232 54.1825C41.6343 54.1825 41.09 54.0316 40.7159 53.6569C40.3056 53.2459 40.186 52.6525 40.4314 51.992C40.5287 51.7299 40.8201 51.5963 41.0822 51.6937Z" fill="#2C2C2C"/>
<path fill-rule="evenodd" clip-rule="evenodd" d="M39.6985 57.6609C39.9646 57.5749 40.2499 57.721 40.3358 57.9871C40.5408 58.622 41.2616 59.0456 42.1406 59.0582C43.0097 59.0707 43.7842 58.6739 44.0586 57.9608C44.159 57.6999 44.452 57.5697 44.7129 57.6701C44.9738 57.7705 45.104 58.0635 45.0036 58.3244C44.5264 59.5645 43.2592 60.0869 42.126 60.0706C41.0028 60.0545 39.7608 59.5016 39.3723 58.2982C39.2864 58.0321 39.4324 57.7468 39.6985 57.6609Z" fill="#2C2C2C"/>
<path fill-rule="evenodd" clip-rule="evenodd" d="M21.6994 49.9388C21.5557 49.9441 21.4211 50.0102 21.3291 50.1206L19.8929 51.844C19.7139 52.0588 19.743 52.3781 19.9578 52.557C20.1725 52.736 20.4918 52.707 20.6708 52.4922L21.2988 51.7386C22.1858 61.3818 27.9947 66.1009 31.0113 67.2882C31.2715 67.3905 31.5654 67.2626 31.6678 67.0025C31.7702 66.7423 31.6423 66.4484 31.3821 66.346C28.7223 65.2992 23.2187 60.9426 22.3214 51.7974L23.02 52.52C23.2143 52.721 23.5348 52.7264 23.7358 52.5321C23.9369 52.3378 23.9423 52.0173 23.748 51.8163L22.082 50.0929C21.9821 49.9895 21.843 49.9335 21.6994 49.9388Z" fill="#2C2C2C"/>
</svg>
