<svg width="81" height="80" viewBox="0 0 81 80" fill="none" xmlns="http://www.w3.org/2000/svg">
<circle cx="40.5" cy="40" r="39.5" fill="#9E8A81" stroke="#9E8A81"/>
<path d="M40 50C40 55.5228 44.4772 60 50 60C55.5228 60 60 55.5228 60 50C60 44.4772 55.5228 40 50 40C44.4772 40 40 44.4772 40 50ZM40 50C40 47.7484 40.7442 45.6705 42 43.999V26M40 50C40 51.6507 40.4 53.208 41.1083 54.5803C39.4233 56.0035 35.5317 57 31 57C24.9249 57 20 55.2091 20 53V26M42 26C42 28.2091 37.0751 30 31 30C24.9249 30 20 28.2091 20 26M42 26C42 23.7909 37.0751 22 31 22C24.9249 22 20 23.7909 20 26M20 44C20 46.2091 24.9249 48 31 48C35.378 48 39.1586 47.07 40.9293 45.7236M42 35C42 37.2091 37.0751 39 31 39C24.9249 39 20 37.2091 20 35" stroke="#F0EFEB" stroke-width="1.5" stroke-linecap="round" stroke-linejoin="round"/>
<path d="M58 30L52 24M52 24L46 30M52 24L52 36" stroke="#F0EFEB" stroke-width="1.5" stroke-linecap="round" stroke-linejoin="round"/>
</svg>
