<svg width="84" height="84" viewBox="0 0 84 84" fill="none" xmlns="http://www.w3.org/2000/svg">
<rect width="84" height="84" rx="42" fill="#E9E3DC"/>
<path fill-rule="evenodd" clip-rule="evenodd" d="M34.3581 31.2161C34.566 31.2161 34.7528 31.3432 34.829 31.5366L35.5605 33.3913C36.1546 34.8977 37.347 36.0901 38.8534 36.6842L40.7082 37.4157C40.9016 37.492 41.0287 37.6788 41.0287 37.8867C41.0287 38.0946 40.9016 38.2813 40.7082 38.3576L38.8534 39.0891C37.347 39.6832 36.1546 40.8756 35.5605 42.382L34.829 44.2367C34.7528 44.4301 34.566 44.5572 34.3581 44.5572C34.1502 44.5572 33.9634 44.4301 33.8871 44.2367L33.1556 42.382C32.5615 40.8756 31.3691 39.6832 29.8628 39.0891L28.008 38.3576C27.8146 38.2813 27.6875 38.0946 27.6875 37.8867C27.6875 37.6788 27.8146 37.492 28.008 37.4157L29.8628 36.6842C31.3691 36.0901 32.5615 34.8977 33.1556 33.3913L33.8871 31.5366C33.9634 31.3432 34.1502 31.2161 34.3581 31.2161ZM34.3581 33.1022L34.0975 33.7628C33.4005 35.5301 32.0016 36.9291 30.2343 37.6261L29.5736 37.8867L30.2343 38.1472C32.0016 38.8442 33.4005 40.2432 34.0975 42.0105L34.3581 42.6712L34.6187 42.0105C35.3157 40.2432 36.7146 38.8442 38.4819 38.1472L39.1426 37.8867L38.4819 37.6261C36.7146 36.9291 35.3157 35.5301 34.6187 33.7628L34.3581 33.1022Z" fill="#2C2C2C"/>
<path fill-rule="evenodd" clip-rule="evenodd" d="M40.5225 19.4514C40.7304 19.4514 40.9172 19.5785 40.9935 19.7719L41.4524 20.9357C41.806 21.8323 42.5157 22.542 43.4123 22.8956L44.5761 23.3545C44.7695 23.4308 44.8966 23.6176 44.8966 23.8255C44.8966 24.0334 44.7695 24.2202 44.5761 24.2964L43.4123 24.7554C42.5157 25.109 41.806 25.8187 41.4524 26.7153L40.9935 27.879C40.9172 28.0725 40.7304 28.1996 40.5225 28.1996C40.3146 28.1996 40.1278 28.0725 40.0516 27.879L39.5926 26.7153C39.239 25.8187 38.5293 25.109 37.6327 24.7554L36.4689 24.2964C36.2755 24.2202 36.1484 24.0334 36.1484 23.8255C36.1484 23.6176 36.2755 23.4308 36.4689 23.3545L37.6327 22.8956C38.5293 22.542 39.239 21.8323 39.5926 20.9357L40.0516 19.7719C40.1278 19.5785 40.3146 19.4514 40.5225 19.4514ZM40.5225 21.3372C40.0661 22.4705 39.1676 23.3691 38.0342 23.8255C39.1676 24.2819 40.0661 25.1804 40.5225 26.3138C40.9789 25.1804 41.8775 24.2819 43.0108 23.8255C41.8775 23.3691 40.9789 22.4705 40.5225 21.3372Z" fill="#2C2C2C"/>
<path fill-rule="evenodd" clip-rule="evenodd" d="M52.4863 25.9783C52.6942 25.9783 52.881 26.1054 52.9573 26.2988L53.5645 27.8384C54.0489 29.0666 55.0211 30.0388 56.2493 30.5232L57.7889 31.1304C57.9823 31.2067 58.1094 31.3934 58.1094 31.6013C58.1094 31.8092 57.9823 31.996 57.7889 32.0723L56.2493 32.6795C55.0211 33.1639 54.0489 34.1361 53.5645 35.3643L52.9573 36.9039C52.881 37.0973 52.6942 37.2244 52.4863 37.2244C52.2784 37.2244 52.0917 37.0973 52.0154 36.9039L51.4082 35.3643C50.9238 34.1361 49.9516 33.1639 48.7234 32.6795L47.1838 32.0723C46.9904 31.996 46.8633 31.8092 46.8633 31.6013C46.8633 31.3934 46.9904 31.2067 47.1838 31.1304L48.7234 30.5232C49.9516 30.0388 50.9238 29.0666 51.4082 27.8384L52.0154 26.2988C52.0917 26.1054 52.2784 25.9783 52.4863 25.9783ZM52.4863 27.8644L52.3501 28.2098C51.7628 29.699 50.584 30.8778 49.0949 31.4651L48.7494 31.6013L49.0948 31.7376C50.584 32.3249 51.7628 33.5037 52.3501 34.9928L52.4863 35.3383L52.6226 34.9928C53.2099 33.5037 54.3887 32.3249 55.8778 31.7376L56.2233 31.6013L55.8778 31.4651C54.3887 30.8778 53.2099 29.699 52.6226 28.2098L52.4863 27.8644Z" fill="#2C2C2C"/>
<path fill-rule="evenodd" clip-rule="evenodd" d="M55.7123 19.358C55.91 19.1603 56.2306 19.1603 56.4283 19.358L57.6724 20.6021C57.8701 20.7998 57.8701 21.1203 57.6724 21.318C57.4747 21.5157 57.1541 21.5157 56.9564 21.318L55.7123 20.0739C55.5146 19.8762 55.5146 19.5557 55.7123 19.358Z" fill="#2C2C2C"/>
<path fill-rule="evenodd" clip-rule="evenodd" d="M58.6147 22.2608C58.8124 22.0631 59.1329 22.0631 59.3306 22.2608L60.5747 23.5049C60.7724 23.7026 60.7724 24.0232 60.5747 24.2209C60.377 24.4186 60.0565 24.4186 59.8588 24.2209L58.6147 22.9768C58.417 22.779 58.417 22.4585 58.6147 22.2608Z" fill="#2C2C2C"/>
<path fill-rule="evenodd" clip-rule="evenodd" d="M55.7134 24.2208C55.5157 24.0231 55.5157 23.7025 55.7134 23.5048L56.9575 22.2607C57.1552 22.063 57.4758 22.063 57.6735 22.2607C57.8712 22.4584 57.8712 22.779 57.6735 22.9767L56.4294 24.2208C56.2317 24.4185 55.9111 24.4185 55.7134 24.2208Z" fill="#2C2C2C"/>
<path fill-rule="evenodd" clip-rule="evenodd" d="M58.6158 21.3179C58.4181 21.1202 58.4181 20.7997 58.6158 20.602L59.8599 19.3579C60.0576 19.1602 60.3781 19.1602 60.5758 19.3579C60.7735 19.5556 60.7735 19.8761 60.5758 20.0738L59.3317 21.3179C59.134 21.5156 58.8135 21.5156 58.6158 21.3179Z" fill="#2C2C2C"/>
<path fill-rule="evenodd" clip-rule="evenodd" d="M45.2514 39.3558C45.4491 39.1581 45.7696 39.1581 45.9673 39.3558L47.045 40.4335C47.2427 40.6312 47.2427 40.9517 47.045 41.1494C46.8473 41.3471 46.5268 41.3471 46.3291 41.1494L45.2514 40.0717C45.0537 39.874 45.0537 39.5535 45.2514 39.3558Z" fill="#2C2C2C"/>
<path fill-rule="evenodd" clip-rule="evenodd" d="M47.767 41.8704C47.9647 41.6727 48.2853 41.6727 48.483 41.8704L49.5607 42.9481C49.7584 43.1458 49.7584 43.4664 49.5607 43.6641C49.363 43.8618 49.0424 43.8618 48.8447 43.6641L47.767 42.5864C47.5693 42.3887 47.5693 42.0681 47.767 41.8704Z" fill="#2C2C2C"/>
<path fill-rule="evenodd" clip-rule="evenodd" d="M45.2525 43.6639C45.0548 43.4662 45.0548 43.1456 45.2525 42.9479L46.3302 41.8702C46.5279 41.6725 46.8484 41.6725 47.0461 41.8702C47.2439 42.0679 47.2439 42.3885 47.0461 42.5862L45.9684 43.6639C45.7707 43.8616 45.4502 43.8616 45.2525 43.6639Z" fill="#2C2C2C"/>
<path fill-rule="evenodd" clip-rule="evenodd" d="M47.7681 41.1492C47.5704 40.9515 47.5704 40.631 47.7681 40.4333L48.8458 39.3556C49.0435 39.1579 49.3641 39.1579 49.5618 39.3556C49.7595 39.5533 49.7595 39.8738 49.5618 40.0715L48.4841 41.1492C48.2864 41.3469 47.9658 41.3469 47.7681 41.1492Z" fill="#2C2C2C"/>
<path fill-rule="evenodd" clip-rule="evenodd" d="M23.103 25.9083C23.3007 25.7106 23.6212 25.7106 23.8189 25.9083L24.8966 26.986C25.0943 27.1837 25.0943 27.5042 24.8966 27.7019C24.6989 27.8996 24.3784 27.8996 24.1807 27.7019L23.103 26.6242C22.9053 26.4265 22.9053 26.106 23.103 25.9083Z" fill="#2C2C2C"/>
<path fill-rule="evenodd" clip-rule="evenodd" d="M25.6186 28.4229C25.8163 28.2252 26.1368 28.2252 26.3345 28.4229L27.4122 29.5006C27.6099 29.6983 27.6099 30.0189 27.4122 30.2166C27.2145 30.4143 26.894 30.4143 26.6963 30.2166L25.6186 29.1389C25.4209 28.9412 25.4209 28.6206 25.6186 28.4229Z" fill="#2C2C2C"/>
<path fill-rule="evenodd" clip-rule="evenodd" d="M23.1041 30.2164C22.9064 30.0187 22.9064 29.6981 23.1041 29.5004L24.1818 28.4227C24.3795 28.225 24.7 28.225 24.8977 28.4227C25.0954 28.6204 25.0954 28.941 24.8977 29.1387L23.82 30.2164C23.6223 30.4141 23.3018 30.4141 23.1041 30.2164Z" fill="#2C2C2C"/>
<path fill-rule="evenodd" clip-rule="evenodd" d="M25.6197 27.7017C25.422 27.504 25.422 27.1835 25.6197 26.9858L26.6974 25.9081C26.8951 25.7104 27.2156 25.7104 27.4133 25.9081C27.611 26.1058 27.611 26.4263 27.4133 26.624L26.3356 27.7017C26.1379 27.8994 25.8174 27.8994 25.6197 27.7017Z" fill="#2C2C2C"/>
<path fill-rule="evenodd" clip-rule="evenodd" d="M16.9062 47.8595C16.9062 47.5799 17.1329 47.3533 17.4125 47.3533H66.4721C66.7517 47.3533 66.9783 47.5799 66.9783 47.8595C66.9783 48.1391 66.7517 48.3658 66.4721 48.3658H17.4125C17.1329 48.3658 16.9062 48.1391 16.9062 47.8595Z" fill="#2C2C2C"/>
<path fill-rule="evenodd" clip-rule="evenodd" d="M16.9648 51.651C16.9648 51.3714 17.1915 51.1448 17.4711 51.1448H26.203C26.4826 51.1448 26.7093 51.3714 26.7093 51.651C26.7093 51.9306 26.4826 52.1573 26.203 52.1573H17.4711C17.1915 52.1573 16.9648 51.9306 16.9648 51.651Z" fill="#2C2C2C"/>
<path fill-rule="evenodd" clip-rule="evenodd" d="M28.1094 51.651C28.1094 51.3714 28.336 51.1448 28.6156 51.1448L66.5305 51.1448C66.8101 51.1448 67.0368 51.3715 67.0368 51.651C67.0368 51.9306 66.8101 52.1573 66.5305 52.1573L28.6156 52.1573C28.336 52.1573 28.1094 51.9306 28.1094 51.651Z" fill="#2C2C2C"/>
<path fill-rule="evenodd" clip-rule="evenodd" d="M17.7695 55.7751C17.7695 54.9946 18.4023 54.3618 19.1828 54.3618H19.4368C20.2174 54.3618 20.8501 54.9946 20.8501 55.7751C20.8501 56.5557 20.2174 57.1884 19.4368 57.1884H19.1828C18.4023 57.1884 17.7695 56.5557 17.7695 55.7751ZM19.1828 55.3743C18.9615 55.3743 18.782 55.5538 18.782 55.7751C18.782 55.9965 18.9615 56.1759 19.1828 56.1759H19.4368C19.6582 56.1759 19.8376 55.9965 19.8376 55.7751C19.8376 55.5538 19.6582 55.3743 19.4368 55.3743H19.1828Z" fill="#2C2C2C"/>
<path fill-rule="evenodd" clip-rule="evenodd" d="M22.8242 55.7751C22.8242 54.9946 23.457 54.3618 24.2375 54.3618H24.4915C25.272 54.3618 25.9048 54.9946 25.9048 55.7751C25.9048 56.5557 25.272 57.1884 24.4915 57.1884H24.2375C23.457 57.1884 22.8242 56.5557 22.8242 55.7751ZM24.2375 55.3743C24.0162 55.3743 23.8367 55.5538 23.8367 55.7751C23.8367 55.9965 24.0162 56.1759 24.2375 56.1759H24.4915C24.7129 56.1759 24.8923 55.9965 24.8923 55.7751C24.8923 55.5538 24.7129 55.3743 24.4915 55.3743H24.2375Z" fill="#2C2C2C"/>
<path fill-rule="evenodd" clip-rule="evenodd" d="M27.8789 55.7751C27.8789 54.9946 28.5117 54.3618 29.2922 54.3618H29.5462C30.3267 54.3618 30.9595 54.9946 30.9595 55.7751C30.9595 56.5557 30.3267 57.1884 29.5462 57.1884H29.2922C28.5117 57.1884 27.8789 56.5557 27.8789 55.7751ZM29.2922 55.3743C29.0709 55.3743 28.8914 55.5538 28.8914 55.7751C28.8914 55.9965 29.0709 56.1759 29.2922 56.1759H29.5462C29.7675 56.1759 29.947 55.9965 29.947 55.7751C29.947 55.5538 29.7675 55.3743 29.5462 55.3743H29.2922Z" fill="#2C2C2C"/>
<path fill-rule="evenodd" clip-rule="evenodd" d="M32.9336 55.7751C32.9336 54.9946 33.5664 54.3618 34.3469 54.3618H34.6009C35.3814 54.3618 36.0142 54.9946 36.0142 55.7751C36.0142 56.5557 35.3814 57.1884 34.6009 57.1884H34.3469C33.5664 57.1884 32.9336 56.5557 32.9336 55.7751ZM34.3469 55.3743C34.1255 55.3743 33.9461 55.5538 33.9461 55.7751C33.9461 55.9965 34.1255 56.1759 34.3469 56.1759H34.6009C34.8222 56.1759 35.0017 55.9965 35.0017 55.7751C35.0017 55.5538 34.8222 55.3743 34.6009 55.3743H34.3469Z" fill="#2C2C2C"/>
<path fill-rule="evenodd" clip-rule="evenodd" d="M37.9922 55.7751C37.9922 54.9946 38.6249 54.3618 39.4055 54.3618H39.6595C40.44 54.3618 41.0728 54.9946 41.0728 55.7751C41.0728 56.5557 40.44 57.1884 39.6595 57.1884H39.4055C38.6249 57.1884 37.9922 56.5557 37.9922 55.7751ZM39.4055 55.3743C39.1841 55.3743 39.0047 55.5538 39.0047 55.7751C39.0047 55.9965 39.1841 56.1759 39.4055 56.1759H39.6595C39.8808 56.1759 40.0603 55.9965 40.0603 55.7751C40.0603 55.5538 39.8808 55.3743 39.6595 55.3743H39.4055Z" fill="#2C2C2C"/>
<path fill-rule="evenodd" clip-rule="evenodd" d="M43.0469 55.7751C43.0469 54.9946 43.6796 54.3618 44.4602 54.3618H44.7142C45.4947 54.3618 46.1275 54.9946 46.1275 55.7751C46.1275 56.5557 45.4947 57.1884 44.7142 57.1884H44.4602C43.6796 57.1884 43.0469 56.5557 43.0469 55.7751ZM44.4602 55.3743C44.2388 55.3743 44.0594 55.5538 44.0594 55.7751C44.0594 55.9965 44.2388 56.1759 44.4602 56.1759H44.7142C44.9355 56.1759 45.115 55.9965 45.115 55.7751C45.115 55.5538 44.9355 55.3743 44.7142 55.3743H44.4602Z" fill="#2C2C2C"/>
<path fill-rule="evenodd" clip-rule="evenodd" d="M48.1016 55.7751C48.1016 54.9946 48.7343 54.3618 49.5149 54.3618H49.7688C50.5494 54.3618 51.1821 54.9946 51.1821 55.7751C51.1821 56.5557 50.5494 57.1884 49.7688 57.1884H49.5149C48.7343 57.1884 48.1016 56.5557 48.1016 55.7751ZM49.5149 55.3743C49.2935 55.3743 49.1141 55.5538 49.1141 55.7751C49.1141 55.9965 49.2935 56.1759 49.5149 56.1759H49.7688C49.9902 56.1759 50.1696 55.9965 50.1696 55.7751C50.1696 55.5538 49.9902 55.3743 49.7688 55.3743H49.5149Z" fill="#2C2C2C"/>
<path fill-rule="evenodd" clip-rule="evenodd" d="M53.1562 55.7751C53.1562 54.9946 53.789 54.3618 54.5696 54.3618H54.8235C55.6041 54.3618 56.2368 54.9946 56.2368 55.7751C56.2368 56.5557 55.6041 57.1884 54.8235 57.1884H54.5696C53.789 57.1884 53.1562 56.5557 53.1562 55.7751ZM54.5696 55.3743C54.3482 55.3743 54.1687 55.5538 54.1687 55.7751C54.1687 55.9965 54.3482 56.1759 54.5696 56.1759H54.8235C55.0449 56.1759 55.2243 55.9965 55.2243 55.7751C55.2243 55.5538 55.0449 55.3743 54.8235 55.3743H54.5696Z" fill="#2C2C2C"/>
<path fill-rule="evenodd" clip-rule="evenodd" d="M58.2109 55.7751C58.2109 54.9946 58.8437 54.3618 59.6242 54.3618H59.8782C60.6588 54.3618 61.2915 54.9946 61.2915 55.7751C61.2915 56.5557 60.6588 57.1884 59.8782 57.1884H59.6242C58.8437 57.1884 58.2109 56.5557 58.2109 55.7751ZM59.6242 55.3743C59.4029 55.3743 59.2234 55.5538 59.2234 55.7751C59.2234 55.9965 59.4029 56.1759 59.6242 56.1759H59.8782C60.0996 56.1759 60.279 55.9965 60.279 55.7751C60.279 55.5538 60.0996 55.3743 59.8782 55.3743H59.6242Z" fill="#2C2C2C"/>
<path fill-rule="evenodd" clip-rule="evenodd" d="M63.2656 55.7751C63.2656 54.9946 63.8984 54.3618 64.6789 54.3618H64.9329C65.7135 54.3618 66.3462 54.9946 66.3462 55.7751C66.3462 56.5557 65.7135 57.1884 64.9329 57.1884H64.6789C63.8984 57.1884 63.2656 56.5557 63.2656 55.7751ZM64.6789 55.3743C64.4576 55.3743 64.2781 55.5538 64.2781 55.7751C64.2781 55.9965 64.4576 56.1759 64.6789 56.1759H64.9329C65.1543 56.1759 65.3337 55.9965 65.3337 55.7751C65.3337 55.5538 65.1543 55.3743 64.9329 55.3743H64.6789Z" fill="#2C2C2C"/>
<path fill-rule="evenodd" clip-rule="evenodd" d="M17.7695 65.4504C17.7695 64.6699 18.4023 64.0371 19.1828 64.0371H19.4368C20.2174 64.0371 20.8501 64.6699 20.8501 65.4504C20.8501 66.231 20.2174 66.8637 19.4368 66.8637H19.1828C18.4023 66.8637 17.7695 66.231 17.7695 65.4504ZM19.1828 65.0496C18.9615 65.0496 18.782 65.2291 18.782 65.4504C18.782 65.6718 18.9615 65.8512 19.1828 65.8512H19.4368C19.6582 65.8512 19.8376 65.6718 19.8376 65.4504C19.8376 65.2291 19.6582 65.0496 19.4368 65.0496H19.1828Z" fill="#2C2C2C"/>
<path fill-rule="evenodd" clip-rule="evenodd" d="M22.8242 65.4504C22.8242 64.6699 23.457 64.0371 24.2375 64.0371H24.4915C25.272 64.0371 25.9048 64.6699 25.9048 65.4504C25.9048 66.231 25.272 66.8637 24.4915 66.8637H24.2375C23.457 66.8637 22.8242 66.231 22.8242 65.4504ZM24.2375 65.0496C24.0162 65.0496 23.8367 65.2291 23.8367 65.4504C23.8367 65.6718 24.0162 65.8512 24.2375 65.8512H24.4915C24.7129 65.8512 24.8923 65.6718 24.8923 65.4504C24.8923 65.2291 24.7129 65.0496 24.4915 65.0496H24.2375Z" fill="#2C2C2C"/>
<path fill-rule="evenodd" clip-rule="evenodd" d="M27.8789 65.4504C27.8789 64.6699 28.5117 64.0371 29.2922 64.0371H29.5462C30.3267 64.0371 30.9595 64.6699 30.9595 65.4504C30.9595 66.231 30.3267 66.8637 29.5462 66.8637H29.2922C28.5117 66.8637 27.8789 66.231 27.8789 65.4504ZM29.2922 65.0496C29.0709 65.0496 28.8914 65.2291 28.8914 65.4504C28.8914 65.6718 29.0709 65.8512 29.2922 65.8512H29.5462C29.7675 65.8512 29.947 65.6718 29.947 65.4504C29.947 65.2291 29.7675 65.0496 29.5462 65.0496H29.2922Z" fill="#2C2C2C"/>
<path fill-rule="evenodd" clip-rule="evenodd" d="M32.9336 65.4504C32.9336 64.6699 33.5664 64.0371 34.3469 64.0371H34.6009C35.3814 64.0371 36.0142 64.6699 36.0142 65.4504C36.0142 66.231 35.3814 66.8637 34.6009 66.8637H34.3469C33.5664 66.8637 32.9336 66.231 32.9336 65.4504ZM34.3469 65.0496C34.1255 65.0496 33.9461 65.2291 33.9461 65.4504C33.9461 65.6718 34.1255 65.8512 34.3469 65.8512H34.6009C34.8222 65.8512 35.0017 65.6718 35.0017 65.4504C35.0017 65.2291 34.8222 65.0496 34.6009 65.0496H34.3469Z" fill="#2C2C2C"/>
<path fill-rule="evenodd" clip-rule="evenodd" d="M37.9922 65.4504C37.9922 64.6699 38.6249 64.0371 39.4055 64.0371H39.6595C40.44 64.0371 41.0728 64.6699 41.0728 65.4504C41.0728 66.231 40.44 66.8637 39.6595 66.8637H39.4055C38.6249 66.8637 37.9922 66.231 37.9922 65.4504ZM39.4055 65.0496C39.1841 65.0496 39.0047 65.2291 39.0047 65.4504C39.0047 65.6718 39.1841 65.8512 39.4055 65.8512H39.6595C39.8808 65.8512 40.0603 65.6718 40.0603 65.4504C40.0603 65.2291 39.8808 65.0496 39.6595 65.0496H39.4055Z" fill="#2C2C2C"/>
<path fill-rule="evenodd" clip-rule="evenodd" d="M43.0469 65.4504C43.0469 64.6699 43.6796 64.0371 44.4602 64.0371H44.7142C45.4947 64.0371 46.1275 64.6699 46.1275 65.4504C46.1275 66.231 45.4947 66.8637 44.7142 66.8637H44.4602C43.6796 66.8637 43.0469 66.231 43.0469 65.4504ZM44.4602 65.0496C44.2388 65.0496 44.0594 65.2291 44.0594 65.4504C44.0594 65.6718 44.2388 65.8512 44.4602 65.8512H44.7142C44.9355 65.8512 45.115 65.6718 45.115 65.4504C45.115 65.2291 44.9355 65.0496 44.7142 65.0496H44.4602Z" fill="#2C2C2C"/>
<path fill-rule="evenodd" clip-rule="evenodd" d="M48.1016 65.4504C48.1016 64.6699 48.7343 64.0371 49.5149 64.0371H49.7688C50.5494 64.0371 51.1821 64.6699 51.1821 65.4504C51.1821 66.231 50.5494 66.8637 49.7688 66.8637H49.5149C48.7343 66.8637 48.1016 66.231 48.1016 65.4504ZM49.5149 65.0496C49.2935 65.0496 49.1141 65.2291 49.1141 65.4504C49.1141 65.6718 49.2935 65.8512 49.5149 65.8512H49.7688C49.9902 65.8512 50.1696 65.6718 50.1696 65.4504C50.1696 65.2291 49.9902 65.0496 49.7688 65.0496H49.5149Z" fill="#2C2C2C"/>
<path fill-rule="evenodd" clip-rule="evenodd" d="M53.1562 65.4504C53.1562 64.6699 53.789 64.0371 54.5696 64.0371H54.8235C55.6041 64.0371 56.2368 64.6699 56.2368 65.4504C56.2368 66.231 55.6041 66.8637 54.8235 66.8637H54.5696C53.789 66.8637 53.1562 66.231 53.1562 65.4504ZM54.5696 65.0496C54.3482 65.0496 54.1687 65.2291 54.1687 65.4504C54.1687 65.6718 54.3482 65.8512 54.5696 65.8512H54.8235C55.0449 65.8512 55.2243 65.6718 55.2243 65.4504C55.2243 65.2291 55.0449 65.0496 54.8235 65.0496H54.5696Z" fill="#2C2C2C"/>
<path fill-rule="evenodd" clip-rule="evenodd" d="M58.2109 65.4504C58.2109 64.6699 58.8437 64.0371 59.6242 64.0371H59.8782C60.6588 64.0371 61.2915 64.6699 61.2915 65.4504C61.2915 66.231 60.6588 66.8637 59.8782 66.8637H59.6242C58.8437 66.8637 58.2109 66.231 58.2109 65.4504ZM59.6242 65.0496C59.4029 65.0496 59.2234 65.2291 59.2234 65.4504C59.2234 65.6718 59.4029 65.8512 59.6242 65.8512H59.8782C60.0996 65.8512 60.279 65.6718 60.279 65.4504C60.279 65.2291 60.0996 65.0496 59.8782 65.0496H59.6242Z" fill="#2C2C2C"/>
<path fill-rule="evenodd" clip-rule="evenodd" d="M63.2656 65.4504C63.2656 64.6699 63.8984 64.0371 64.6789 64.0371H64.9329C65.7135 64.0371 66.3462 64.6699 66.3462 65.4504C66.3462 66.231 65.7135 66.8637 64.9329 66.8637H64.6789C63.8984 66.8637 63.2656 66.231 63.2656 65.4504ZM64.6789 65.0496C64.4576 65.0496 64.2781 65.2291 64.2781 65.4504C64.2781 65.6718 64.4576 65.8512 64.6789 65.8512H64.9329C65.1543 65.8512 65.3337 65.6718 65.3337 65.4504C65.3337 65.2291 65.1543 65.0496 64.9329 65.0496H64.6789Z" fill="#2C2C2C"/>
<path fill-rule="evenodd" clip-rule="evenodd" d="M20.1797 60.6128C20.1797 59.8322 20.8124 59.1995 21.593 59.1995H21.847C22.6275 59.1995 23.2603 59.8322 23.2603 60.6128C23.2603 61.3933 22.6275 62.0261 21.847 62.0261H21.593C20.8124 62.0261 20.1797 61.3933 20.1797 60.6128ZM21.593 60.212C21.3716 60.212 21.1922 60.3914 21.1922 60.6128C21.1922 60.8341 21.3716 61.0136 21.593 61.0136H21.847C22.0683 61.0136 22.2478 60.8341 22.2478 60.6128C22.2478 60.3914 22.0683 60.212 21.847 60.212H21.593Z" fill="#2C2C2C"/>
<path fill-rule="evenodd" clip-rule="evenodd" d="M25.2344 60.6128C25.2344 59.8322 25.8671 59.1995 26.6477 59.1995H26.9017C27.6822 59.1995 28.315 59.8322 28.315 60.6128C28.315 61.3933 27.6822 62.0261 26.9017 62.0261H26.6477C25.8671 62.0261 25.2344 61.3933 25.2344 60.6128ZM26.6477 60.212C26.4263 60.212 26.2469 60.3914 26.2469 60.6128C26.2469 60.8341 26.4263 61.0136 26.6477 61.0136H26.9017C27.123 61.0136 27.3025 60.8341 27.3025 60.6128C27.3025 60.3914 27.123 60.212 26.9017 60.212H26.6477Z" fill="#2C2C2C"/>
<path fill-rule="evenodd" clip-rule="evenodd" d="M30.2891 60.6128C30.2891 59.8322 30.9218 59.1995 31.7024 59.1995H31.9563C32.7369 59.1995 33.3696 59.8322 33.3696 60.6128C33.3696 61.3933 32.7369 62.0261 31.9563 62.0261H31.7024C30.9218 62.0261 30.2891 61.3933 30.2891 60.6128ZM31.7024 60.212C31.481 60.212 31.3016 60.3914 31.3016 60.6128C31.3016 60.8341 31.481 61.0136 31.7024 61.0136H31.9563C32.1777 61.0136 32.3571 60.8341 32.3571 60.6128C32.3571 60.3914 32.1777 60.212 31.9563 60.212H31.7024Z" fill="#2C2C2C"/>
<path fill-rule="evenodd" clip-rule="evenodd" d="M35.3438 60.6128C35.3438 59.8322 35.9765 59.1995 36.7571 59.1995H37.011C37.7916 59.1995 38.4243 59.8322 38.4243 60.6128C38.4243 61.3933 37.7916 62.0261 37.011 62.0261H36.7571C35.9765 62.0261 35.3438 61.3933 35.3438 60.6128ZM36.7571 60.212C36.5357 60.212 36.3563 60.3914 36.3563 60.6128C36.3563 60.8341 36.5357 61.0136 36.7571 61.0136H37.011C37.2324 61.0136 37.4118 60.8341 37.4118 60.6128C37.4118 60.3914 37.2324 60.212 37.011 60.212H36.7571Z" fill="#2C2C2C"/>
<path fill-rule="evenodd" clip-rule="evenodd" d="M40.4023 60.6128C40.4023 59.8322 41.0351 59.1995 41.8156 59.1995H42.0696C42.8502 59.1995 43.4829 59.8322 43.4829 60.6128C43.4829 61.3933 42.8502 62.0261 42.0696 62.0261H41.8156C41.0351 62.0261 40.4023 61.3933 40.4023 60.6128ZM41.8156 60.212C41.5943 60.212 41.4148 60.3914 41.4148 60.6128C41.4148 60.8341 41.5943 61.0136 41.8156 61.0136H42.0696C42.291 61.0136 42.4704 60.8341 42.4704 60.6128C42.4704 60.3914 42.291 60.212 42.0696 60.212H41.8156Z" fill="#2C2C2C"/>
<path fill-rule="evenodd" clip-rule="evenodd" d="M45.457 60.6128C45.457 59.8322 46.0898 59.1995 46.8703 59.1995H47.1243C47.9049 59.1995 48.5376 59.8322 48.5376 60.6128C48.5376 61.3933 47.9049 62.0261 47.1243 62.0261H46.8703C46.0898 62.0261 45.457 61.3933 45.457 60.6128ZM46.8703 60.212C46.649 60.212 46.4695 60.3914 46.4695 60.6128C46.4695 60.8341 46.649 61.0136 46.8703 61.0136H47.1243C47.3457 61.0136 47.5251 60.8341 47.5251 60.6128C47.5251 60.3914 47.3457 60.212 47.1243 60.212H46.8703Z" fill="#2C2C2C"/>
<path fill-rule="evenodd" clip-rule="evenodd" d="M50.5117 60.6128C50.5117 59.8322 51.1445 59.1995 51.925 59.1995H52.179C52.9595 59.1995 53.5923 59.8322 53.5923 60.6128C53.5923 61.3933 52.9595 62.0261 52.179 62.0261H51.925C51.1445 62.0261 50.5117 61.3933 50.5117 60.6128ZM51.925 60.212C51.7037 60.212 51.5242 60.3914 51.5242 60.6128C51.5242 60.8341 51.7037 61.0136 51.925 61.0136H52.179C52.4004 61.0136 52.5798 60.8341 52.5798 60.6128C52.5798 60.3914 52.4004 60.212 52.179 60.212H51.925Z" fill="#2C2C2C"/>
<path fill-rule="evenodd" clip-rule="evenodd" d="M55.5664 60.6128C55.5664 59.8322 56.1992 59.1995 56.9797 59.1995H57.2337C58.0142 59.1995 58.647 59.8322 58.647 60.6128C58.647 61.3933 58.0142 62.0261 57.2337 62.0261H56.9797C56.1992 62.0261 55.5664 61.3933 55.5664 60.6128ZM56.9797 60.212C56.7584 60.212 56.5789 60.3914 56.5789 60.6128C56.5789 60.8341 56.7584 61.0136 56.9797 61.0136H57.2337C57.455 61.0136 57.6345 60.8341 57.6345 60.6128C57.6345 60.3914 57.455 60.212 57.2337 60.212H56.9797Z" fill="#2C2C2C"/>
<path fill-rule="evenodd" clip-rule="evenodd" d="M60.6211 60.6128C60.6211 59.8322 61.2539 59.1995 62.0344 59.1995H62.2884C63.0689 59.1995 63.7017 59.8322 63.7017 60.6128C63.7017 61.3933 63.0689 62.0261 62.2884 62.0261H62.0344C61.2539 62.0261 60.6211 61.3933 60.6211 60.6128ZM62.0344 60.212C61.813 60.212 61.6336 60.3914 61.6336 60.6128C61.6336 60.8341 61.813 61.0136 62.0344 61.0136H62.2884C62.5097 61.0136 62.6892 60.8341 62.6892 60.6128C62.6892 60.3914 62.5097 60.212 62.2884 60.212H62.0344Z" fill="#2C2C2C"/>
</svg>
