<svg width="51" height="50" viewBox="0 0 51 50" fill="none" xmlns="http://www.w3.org/2000/svg">
<path d="M31.918 49C29.8836 49 28.2305 47.3453 28.2305 45.3125C28.2305 44.2375 28.693 43.2672 29.4305 42.5938L27.2227 39.2828C26.7508 39.5031 26.2242 39.6266 25.6695 39.6266C23.6367 39.6266 21.982 37.9719 21.982 35.9391C21.982 35.5641 22.0383 35.2016 22.143 34.8625L19.2977 33.3922C18.6289 34.3297 17.532 34.9406 16.2961 34.9406C15.482 34.9406 14.7289 34.675 14.118 34.2266L11.457 36.8859C11.9023 37.4953 12.168 38.2484 12.168 39.0625C12.168 41.0969 10.5133 42.75 8.48047 42.75C6.44766 42.75 4.79297 41.0969 4.79297 39.0625C4.79297 37.0281 6.44766 35.375 8.48047 35.375C9.29453 35.375 10.0477 35.6406 10.6586 36.0891L13.3195 33.4297C12.8711 32.8172 12.6055 32.0641 12.6055 31.25C12.6055 29.4078 13.9633 27.8766 15.7305 27.6047V22.3953C14.1461 22.1516 12.8914 20.8969 12.6477 19.3125H9.00078C8.72891 21.0797 7.19766 22.4375 5.35547 22.4375C3.32266 22.4375 1.66797 20.7828 1.66797 18.75C1.66797 16.7172 3.32266 15.0625 5.35547 15.0625C7.19766 15.0625 8.72891 16.4203 9.00078 18.1875H12.6492C12.9211 16.4203 14.4523 15.0625 16.2945 15.0625C17.5336 15.0625 18.6336 15.6781 19.3023 16.6187L22.1586 15.1906C22.043 14.8344 21.9805 14.4547 21.9805 14.0625C21.9805 12.9875 22.443 12.0188 23.1789 11.3438L20.9695 8.03281C20.4977 8.25156 19.9727 8.375 19.418 8.375C17.3852 8.375 15.7305 6.72031 15.7305 4.6875C15.7305 2.65469 17.3852 1 19.418 1C21.4508 1 23.1055 2.65469 23.1055 4.6875C23.1055 5.7625 22.643 6.73281 21.9055 7.40625L24.1148 10.7188C24.5867 10.4984 25.1133 10.375 25.668 10.375C27.7023 10.375 29.3555 12.0297 29.3555 14.0625C29.3555 14.4547 29.293 14.8344 29.1789 15.1891L32.0352 16.6172C32.7055 15.6766 33.8039 15.0625 35.043 15.0625C35.857 15.0625 36.6102 15.3266 37.2211 15.7766L39.882 13.1156C39.4336 12.5047 39.168 11.7516 39.168 10.9375C39.168 8.90469 40.8227 7.25 42.8555 7.25C44.8883 7.25 46.543 8.90469 46.543 10.9375C46.543 12.9703 44.8898 14.625 42.8555 14.625C42.0414 14.625 41.2883 14.3609 40.6758 13.9109L38.0164 16.5719C38.4648 17.1828 38.7305 17.9359 38.7305 18.75C38.7305 20.5922 37.3727 22.1234 35.6055 22.3953V27.6047C37.1898 27.8484 38.443 29.1031 38.6883 30.6875H42.3352C42.607 28.9203 44.1383 27.5625 45.9805 27.5625C48.0148 27.5625 49.668 29.2172 49.668 31.25C49.668 33.2828 48.0133 34.9375 45.9805 34.9375C44.1383 34.9375 42.607 33.5797 42.3352 31.8125H38.6883C38.4164 33.5797 36.8852 34.9375 35.043 34.9375C33.8039 34.9375 32.7055 34.3219 32.0352 33.3812L29.1789 34.8109C29.293 35.1656 29.3555 35.5453 29.3555 35.9375C29.3555 37.0125 28.893 37.9828 28.1555 38.6562L30.3633 41.9672C30.8367 41.7469 31.3633 41.6234 31.9164 41.6234C33.9508 41.6234 35.6039 43.2781 35.6039 45.3109C35.6039 47.3438 33.9523 49 31.918 49ZM31.918 42.75C30.5055 42.75 29.3555 43.8984 29.3555 45.3125C29.3555 46.7266 30.5039 47.875 31.918 47.875C33.332 47.875 34.4805 46.7266 34.4805 45.3125C34.4805 43.8984 33.3305 42.75 31.918 42.75ZM8.48047 36.5C7.06797 36.5 5.91797 37.6484 5.91797 39.0625C5.91797 40.4766 7.06797 41.625 8.48047 41.625C9.89297 41.625 11.043 40.475 11.043 39.0625C11.043 37.65 9.89297 36.5 8.48047 36.5ZM25.668 33.375C24.2555 33.375 23.1055 34.5234 23.1055 35.9375C23.1055 37.3516 24.2555 38.5 25.668 38.5C27.0805 38.5 28.2305 37.3516 28.2305 35.9375C28.2305 34.5234 27.0805 33.375 25.668 33.375ZM19.8023 32.3859L22.632 33.8484C23.2977 32.8844 24.4117 32.2516 25.668 32.2516C26.907 32.2516 28.0055 32.8672 28.6758 33.8078L31.532 32.3781C31.418 32.0219 31.3555 31.6422 31.3555 31.25C31.3555 29.4078 32.7133 27.8766 34.4805 27.6047V22.3953C32.7133 22.1234 31.3555 20.5922 31.3555 18.75C31.3555 18.3578 31.418 17.9781 31.532 17.6234L28.6758 16.1953C28.0055 17.1359 26.907 17.75 25.668 17.75C24.4289 17.75 23.3305 17.1359 22.6617 16.1953L19.8039 17.6234C19.918 17.9781 19.9805 18.3578 19.9805 18.75C19.9805 20.5922 18.6227 22.1234 16.8555 22.3953V27.6047C18.6227 27.8766 19.9805 29.4078 19.9805 31.25C19.9805 31.6453 19.918 32.0266 19.8023 32.3859ZM45.9805 28.6875C44.568 28.6875 43.418 29.8359 43.418 31.25C43.418 32.6641 44.5664 33.8125 45.9805 33.8125C47.3945 33.8125 48.543 32.6641 48.543 31.25C48.543 29.8359 47.393 28.6875 45.9805 28.6875ZM35.043 28.6875C33.6305 28.6875 32.4805 29.8359 32.4805 31.25C32.4805 32.6641 33.6289 33.8125 35.043 33.8125C36.457 33.8125 37.6055 32.6641 37.6055 31.25C37.6055 29.8359 36.4555 28.6875 35.043 28.6875ZM16.293 28.6875C14.8805 28.6875 13.7305 29.8359 13.7305 31.25C13.7305 32.6641 14.8805 33.8125 16.293 33.8125C17.7055 33.8125 18.8555 32.6641 18.8555 31.25C18.8555 29.8359 17.7055 28.6875 16.293 28.6875ZM35.043 16.1875C33.6305 16.1875 32.4805 17.3375 32.4805 18.75C32.4805 20.1625 33.6289 21.3125 35.043 21.3125C36.457 21.3125 37.6055 20.1625 37.6055 18.75C37.6055 17.3375 36.4555 16.1875 35.043 16.1875ZM16.293 16.1875C14.8805 16.1875 13.7305 17.3375 13.7305 18.75C13.7305 20.1625 14.8805 21.3125 16.293 21.3125C17.7055 21.3125 18.8555 20.1625 18.8555 18.75C18.8555 17.3375 17.7055 16.1875 16.293 16.1875ZM5.35547 16.1875C3.94297 16.1875 2.79297 17.3375 2.79297 18.75C2.79297 20.1625 3.94297 21.3125 5.35547 21.3125C6.76797 21.3125 7.91797 20.1625 7.91797 18.75C7.91797 17.3375 6.76797 16.1875 5.35547 16.1875ZM25.668 11.5C24.2555 11.5 23.1055 12.65 23.1055 14.0625C23.1055 15.475 24.2555 16.625 25.668 16.625C27.0805 16.625 28.2305 15.475 28.2305 14.0625C28.2305 12.65 27.0805 11.5 25.668 11.5ZM42.8555 8.375C41.443 8.375 40.293 9.525 40.293 10.9375C40.293 12.35 41.443 13.5 42.8555 13.5C44.268 13.5 45.418 12.35 45.418 10.9375C45.418 9.525 44.268 8.375 42.8555 8.375ZM19.418 2.125C18.0055 2.125 16.8555 3.275 16.8555 4.6875C16.8555 6.1 18.0055 7.25 19.418 7.25C20.8305 7.25 21.9805 6.1 21.9805 4.6875C21.9805 3.275 20.8305 2.125 19.418 2.125Z" fill="#697B69"/>
</svg>
