<svg width="51" height="50" viewBox="0 0 51 50" fill="none" xmlns="http://www.w3.org/2000/svg">
<path d="M3.33203 22L18.332 22C18.332 22 14.1654 31 16.332 37.5C19.332 46.5 34.332 45.5 34.332 33.5C34.332 30.8074 29.9231 27.8224 32.832 22L47.332 22" stroke="#697B69" stroke-width="1.13"/>
<path d="M3.33203 47L47.332 47" stroke="#697B69" stroke-width="1.13"/>
<path d="M33.8508 8.09725C33.7655 8.24455 33.6777 8.3977 33.588 8.55645C32.576 10.3476 31.3081 12.8594 30.2897 15.7365C28.2811 21.4111 27.1898 28.6672 31.1938 34.5718C31.1029 37.7786 28.4747 40.3504 25.2459 40.3504C21.9595 40.3504 19.2955 37.6863 19.2955 34.4C19.2955 25.6376 23.4808 18.6653 27.7051 13.8606C29.8151 11.4607 31.926 9.61204 33.5089 8.36399C33.6259 8.27177 33.7399 8.18285 33.8508 8.09725Z" stroke="#697B69" stroke-width="1.13"/>
<path d="M25.0969 36.5757C23.8335 36.5757 21.8335 35.2148 22.3469 33" stroke="#697B69"/>
<path d="M4.33203 40C4.33203 38.5 4.83203 38 6.83203 38C8.83203 38 8.83203 39.5 9.33203 39.5C9.83203 39.5 9.83203 38 11.832 38C13.832 38 14.332 38.6193 14.332 40" stroke="#697B69" stroke-width="1.13"/>
<path d="M36.332 40C36.332 38.5 36.832 38 38.832 38C40.832 38 40.832 39.5 41.332 39.5C41.832 39.5 41.832 38 43.832 38C45.832 38 46.332 38.6193 46.332 40" stroke="#697B69" stroke-width="1.13"/>
</svg>
