<svg width="80" height="80" viewBox="0 0 80 80" fill="none" xmlns="http://www.w3.org/2000/svg">
<circle cx="40" cy="40" r="39.5" stroke="#9E8A81"/>
<path d="M53.5008 43.6002C59.9625 43.6002 65.2008 38.3619 65.2008 31.9002C65.2008 25.4385 59.9625 20.2002 53.5008 20.2002C47.039 20.2002 41.8008 25.4385 41.8008 31.9002C41.8008 38.3619 47.039 43.6002 53.5008 43.6002Z" stroke="#2C2C2C" stroke-width="1.5" stroke-miterlimit="10"/>
<path d="M58.8844 25.863C58.4416 25.467 57.9556 25.1187 57.4336 24.8262" stroke="#2C2C2C" stroke-width="1.5" stroke-miterlimit="10" stroke-linecap="round"/>
<path d="M61.0343 28.96C60.8453 28.4749 60.6104 28.0114 60.3359 27.5767" stroke="#2C2C2C" stroke-width="1.5" stroke-miterlimit="10" stroke-linecap="round"/>
<path d="M56.3633 39.4748C59.417 38.3147 61.6022 35.3609 61.6022 31.9004C61.6022 31.6313 61.5734 31.3649 61.5482 31.103" stroke="#2C2C2C" stroke-width="1.5" stroke-miterlimit="10" stroke-linecap="round"/>
<path d="M50.8008 43.2905V46.4657" stroke="#2C2C2C" stroke-width="1.5" stroke-miterlimit="10"/>
<path d="M56.1992 43.2832V48.1" stroke="#2C2C2C" stroke-width="1.5" stroke-miterlimit="10"/>
<path d="M48.1016 67.0002V65.7717C48.1088 65.3343 48.1988 64.9662 48.431 64.5945C48.8792 63.8754 49.709 63.3858 50.5559 63.4002H57.4292C57.8666 63.4074 58.2311 63.4947 58.6028 63.7269C59.3219 64.1751 59.816 65.0076 59.8016 65.8554V67.0002" stroke="#2C2C2C" stroke-width="1.5" stroke-miterlimit="10"/>
<path d="M57.1008 63.4003C57.1008 63.4003 60.7008 58.0003 60.7008 55.3003C60.7008 52.6003 59.8008 47.9518 59.8008 47.9518C59.7144 46.9888 58.9008 46.3003 58.0008 46.3003C57.0063 46.3003 56.2188 47.1418 56.2008 48.1003V52.3357C56.2035 52.8982 55.7733 53.5012 55.0272 53.5003C54.6186 53.5003 54.1803 53.2366 54.003 52.7938L52.05 47.6026C51.6675 46.7773 50.799 46.3003 49.9008 46.3003C47.2008 46.3003 46.3008 51.7003 46.3008 54.4003C46.3008 56.2003 47.2008 59.8003 50.8008 63.4003" stroke="#2C2C2C" stroke-width="1.5" stroke-miterlimit="10"/>
<path d="M42.6992 26.5H50.6992C51.2515 26.5 51.6992 26.9477 51.6992 27.5V39C51.6992 39.5523 51.2515 40 50.6992 40H44.9492" stroke="#2C2C2C" stroke-width="1.5" stroke-miterlimit="10"/>
<rect x="17.5" y="27.8999" width="8" height="8" rx="1" stroke="#2C2C2C" stroke-width="1.5" stroke-miterlimit="10"/>
<rect x="29.8984" y="21.1001" width="8" height="8" rx="1" stroke="#2C2C2C" stroke-width="1.5" stroke-miterlimit="10"/>
<rect x="17.5" y="41.8999" width="8" height="8" rx="1" stroke="#2C2C2C" stroke-width="1.5" stroke-miterlimit="10"/>
<rect x="29.8984" y="35.1001" width="8" height="8" rx="1" stroke="#2C2C2C" stroke-width="1.5" stroke-miterlimit="10"/>
<path d="M29.8984 50.1001C29.8984 49.5478 30.3462 49.1001 30.8984 49.1001H36.8984C37.4507 49.1001 37.8984 49.5478 37.8984 50.1001V56.1001C37.8984 56.6524 37.4507 57.1001 36.8984 57.1001H30.8984C30.3462 57.1001 29.8984 56.6524 29.8984 56.1001V50.1001Z" stroke="#2C2C2C" stroke-width="1.5" stroke-miterlimit="10"/>
</svg>
