<svg width="81" height="80" viewBox="0 0 81 80" fill="none" xmlns="http://www.w3.org/2000/svg">
<circle cx="40.5" cy="40" r="39.5" fill="#9E8A81" stroke="#9E8A81"/>
<path d="M56 30C56 27.8522 56 28.3845 55.6689 27.6222C55.3324 26.8474 54.9972 26.4352 54.3071 25.948C53.6282 25.4686 52.2973 25.1918 49.6354 24.6382C46.7016 24.0281 44.4486 22.9263 42.3888 21.3328C41.401 20.5687 40.9071 20.1867 40.5207 20.0825C40.1129 19.9725 39.8871 19.9725 39.4793 20.0825C39.0929 20.1867 38.599 20.5687 37.6112 21.3328C35.5514 22.9263 33.2984 24.0281 30.3646 24.6382C27.7027 25.1918 26.3718 25.4686 25.6929 25.948C25.0028 26.4352 24.6676 26.8474 24.3311 27.6222C24 28.3845 24 29.4584 24 31.6062V39.2062C24 49.0231 34.7079 56.163 38.604 58.4359C39.0468 58.6943 39.2682 58.8234 39.5806 58.8904C39.8231 58.9424 40.1769 58.9424 40.4194 58.8904C40.7318 58.8234 40.9532 58.6943 41.396 58.4359C42.3612 57.8728 43.7445 57.011 45.2794 55.8838" stroke="#F0EFEB" stroke-width="1.5" stroke-linecap="round" stroke-linejoin="round"/>
<path d="M59 57.2061V51.2061M59 39.2061V33.2061M62 36.2061H56M62 54.2061H56M48.8 34.4061L50.881 39.8167C51.2194 40.6966 51.3886 41.1365 51.6518 41.5066C51.885 41.8345 52.1715 42.1211 52.4995 42.3543C52.8696 42.6174 53.3095 42.7866 54.1894 43.125L59.6 45.2061L54.1894 47.2871C53.3095 47.6255 52.8696 47.7947 52.4995 48.0578C52.1715 48.291 51.885 48.5776 51.6518 48.9056C51.3886 49.2756 51.2194 49.7155 50.881 50.5954L48.8 56.0061L46.719 50.5954C46.3806 49.7155 46.2114 49.2756 45.9482 48.9056C45.715 48.5776 45.4285 48.291 45.1005 48.0578C44.7304 47.7947 44.2905 47.6255 43.4106 47.2871L38 45.2061L43.4106 43.125C44.2905 42.7866 44.7304 42.6174 45.1005 42.3543C45.4285 42.1211 45.715 41.8345 45.9482 41.5066C46.2114 41.1365 46.3806 40.6966 46.719 39.8167L48.8 34.4061Z" stroke="#F0EFEB" stroke-width="1.5" stroke-linecap="round" stroke-linejoin="round"/>
</svg>
