<svg width="84" height="84" viewBox="0 0 84 84" fill="none" xmlns="http://www.w3.org/2000/svg">
<rect width="84" height="84" rx="42" fill="#E9E3DC"/>
<path fill-rule="evenodd" clip-rule="evenodd" d="M17.0195 46.7926C17.0195 46.513 17.2462 46.2864 17.5258 46.2864H66.528C66.8076 46.2864 67.0342 46.513 67.0342 46.7926C67.0342 47.0722 66.8076 47.2989 66.528 47.2989H17.5258C17.2462 47.2989 17.0195 47.0722 17.0195 46.7926Z" fill="#2C2C2C"/>
<path fill-rule="evenodd" clip-rule="evenodd" d="M17.0781 50.5797C17.0781 50.3001 17.3048 50.0735 17.5844 50.0735H26.3061C26.5857 50.0735 26.8123 50.3001 26.8123 50.5797C26.8123 50.8593 26.5857 51.086 26.3061 51.086H17.5844C17.3048 51.086 17.0781 50.8593 17.0781 50.5797Z" fill="#2C2C2C"/>
<path fill-rule="evenodd" clip-rule="evenodd" d="M28.207 50.5797C28.207 50.3001 28.4337 50.0735 28.7133 50.0735L66.5838 50.0735C66.8634 50.0735 67.0901 50.3002 67.0901 50.5798C67.0901 50.8594 66.8634 51.086 66.5838 51.086L28.7133 51.086C28.4337 51.086 28.207 50.8593 28.207 50.5797Z" fill="#2C2C2C"/>
<path fill-rule="evenodd" clip-rule="evenodd" d="M17.8789 54.6989C17.8789 53.9189 18.5112 53.2866 19.2912 53.2866H19.5448C20.3248 53.2866 20.9571 53.9189 20.9571 54.6989C20.9571 55.4788 20.3248 56.1111 19.5448 56.1111H19.2911C18.5112 56.1111 17.8789 55.4788 17.8789 54.6989ZM19.2912 54.2991C19.0704 54.2991 18.8914 54.4781 18.8914 54.6989C18.8914 54.9196 19.0704 55.0986 19.2911 55.0986H19.5448C19.7656 55.0986 19.9446 54.9196 19.9446 54.6989C19.9446 54.4781 19.7656 54.2991 19.5448 54.2991H19.2912Z" fill="#2C2C2C"/>
<path fill-rule="evenodd" clip-rule="evenodd" d="M22.9297 54.6989C22.9297 53.9189 23.562 53.2866 24.3419 53.2866H24.5956C25.3756 53.2866 26.0079 53.9189 26.0079 54.6989C26.0079 55.4788 25.3756 56.1111 24.5956 56.1111H24.3419C23.562 56.1111 22.9297 55.4788 22.9297 54.6989ZM24.3419 54.2991C24.1212 54.2991 23.9422 54.4781 23.9422 54.6989C23.9422 54.9196 24.1212 55.0986 24.3419 55.0986H24.5956C24.8164 55.0986 24.9954 54.9196 24.9954 54.6989C24.9954 54.4781 24.8164 54.2991 24.5956 54.2991H24.3419Z" fill="#2C2C2C"/>
<path fill-rule="evenodd" clip-rule="evenodd" d="M27.9766 54.6989C27.9766 53.9189 28.6088 53.2866 29.3888 53.2866H29.6425C30.4224 53.2866 31.0547 53.9189 31.0547 54.6989C31.0547 55.4788 30.4224 56.1111 29.6425 56.1111H29.3888C28.6088 56.1111 27.9766 55.4788 27.9766 54.6989ZM29.3888 54.2991C29.168 54.2991 28.9891 54.4781 28.9891 54.6989C28.9891 54.9196 29.168 55.0986 29.3888 55.0986H29.6425C29.8633 55.0986 30.0422 54.9196 30.0422 54.6989C30.0422 54.4781 29.8633 54.2991 29.6425 54.2991H29.3888Z" fill="#2C2C2C"/>
<path fill-rule="evenodd" clip-rule="evenodd" d="M33.0273 54.6989C33.0273 53.9189 33.6596 53.2866 34.4396 53.2866H34.6933C35.4732 53.2866 36.1055 53.9189 36.1055 54.6989C36.1055 55.4788 35.4732 56.1111 34.6933 56.1111H34.4396C33.6596 56.1111 33.0273 55.4788 33.0273 54.6989ZM34.4396 54.2991C34.2188 54.2991 34.0398 54.4781 34.0398 54.6989C34.0398 54.9196 34.2188 55.0986 34.4396 55.0986H34.6933C34.914 55.0986 35.093 54.9196 35.093 54.6989C35.093 54.4781 34.914 54.2991 34.6933 54.2991H34.4396Z" fill="#2C2C2C"/>
<path fill-rule="evenodd" clip-rule="evenodd" d="M38.0781 54.6989C38.0781 53.9189 38.7104 53.2866 39.4904 53.2866H39.744C40.524 53.2866 41.1563 53.9189 41.1563 54.6989C41.1563 55.4788 40.524 56.1111 39.744 56.1111H39.4904C38.7104 56.1111 38.0781 55.4788 38.0781 54.6989ZM39.4904 54.2991C39.2696 54.2991 39.0906 54.4781 39.0906 54.6989C39.0906 54.9196 39.2696 55.0986 39.4904 55.0986H39.744C39.9648 55.0986 40.1438 54.9196 40.1438 54.6989C40.1438 54.4781 39.9648 54.2991 39.744 54.2991H39.4904Z" fill="#2C2C2C"/>
<path fill-rule="evenodd" clip-rule="evenodd" d="M43.125 54.6989C43.125 53.9189 43.7573 53.2866 44.5372 53.2866H44.7909C45.5709 53.2866 46.2032 53.9189 46.2032 54.6989C46.2032 55.4788 45.5709 56.1111 44.7909 56.1111H44.5372C43.7573 56.1111 43.125 55.4788 43.125 54.6989ZM44.5372 54.2991C44.3165 54.2991 44.1375 54.4781 44.1375 54.6989C44.1375 54.9196 44.3165 55.0986 44.5372 55.0986H44.7909C45.0117 55.0986 45.1907 54.9196 45.1907 54.6989C45.1907 54.4781 45.0117 54.2991 44.7909 54.2991H44.5372Z" fill="#2C2C2C"/>
<path fill-rule="evenodd" clip-rule="evenodd" d="M48.1758 54.6989C48.1758 53.9189 48.8081 53.2866 49.588 53.2866H49.8417C50.6217 53.2866 51.2539 53.9189 51.2539 54.6989C51.2539 55.4788 50.6217 56.1111 49.8417 56.1111H49.588C48.8081 56.1111 48.1758 55.4788 48.1758 54.6989ZM49.588 54.2991C49.3673 54.2991 49.1883 54.4781 49.1883 54.6989C49.1883 54.9196 49.3673 55.0986 49.588 55.0986H49.8417C50.0625 55.0986 50.2414 54.9196 50.2414 54.6989C50.2414 54.4781 50.0625 54.2991 49.8417 54.2991H49.588Z" fill="#2C2C2C"/>
<path fill-rule="evenodd" clip-rule="evenodd" d="M53.2266 54.6989C53.2266 53.9189 53.8588 53.2866 54.6388 53.2866H54.8925C55.6724 53.2866 56.3047 53.9189 56.3047 54.6989C56.3047 55.4788 55.6724 56.1111 54.8925 56.1111H54.6388C53.8588 56.1111 53.2266 55.4788 53.2266 54.6989ZM54.6388 54.2991C54.418 54.2991 54.2391 54.4781 54.2391 54.6989C54.2391 54.9196 54.418 55.0986 54.6388 55.0986H54.8925C55.1133 55.0986 55.2922 54.9196 55.2922 54.6989C55.2922 54.4781 55.1133 54.2991 54.8925 54.2991H54.6388Z" fill="#2C2C2C"/>
<path fill-rule="evenodd" clip-rule="evenodd" d="M58.2734 54.6989C58.2734 53.9189 58.9057 53.2866 59.6857 53.2866H59.9394C60.7193 53.2866 61.3516 53.9189 61.3516 54.6989C61.3516 55.4788 60.7193 56.1111 59.9394 56.1111H59.6857C58.9057 56.1111 58.2734 55.4788 58.2734 54.6989ZM59.6857 54.2991C59.4649 54.2991 59.2859 54.4781 59.2859 54.6989C59.2859 54.9196 59.4649 55.0986 59.6857 55.0986H59.9394C60.1601 55.0986 60.3391 54.9196 60.3391 54.6989C60.3391 54.4781 60.1601 54.2991 59.9394 54.2991H59.6857Z" fill="#2C2C2C"/>
<path fill-rule="evenodd" clip-rule="evenodd" d="M63.3242 54.6989C63.3242 53.9189 63.9565 53.2866 64.7365 53.2866H64.9901C65.7701 53.2866 66.4024 53.9189 66.4024 54.6989C66.4024 55.4788 65.7701 56.1111 64.9901 56.1111H64.7365C63.9565 56.1111 63.3242 55.4788 63.3242 54.6989ZM64.7365 54.2991C64.5157 54.2991 64.3367 54.4781 64.3367 54.6989C64.3367 54.9196 64.5157 55.0986 64.7365 55.0986H64.9901C65.2109 55.0986 65.3899 54.9196 65.3899 54.6989C65.3899 54.4781 65.2109 54.2991 64.9901 54.2991H64.7365Z" fill="#2C2C2C"/>
<path fill-rule="evenodd" clip-rule="evenodd" d="M17.8789 64.3629C17.8789 63.583 18.5112 62.9507 19.2912 62.9507H19.5448C20.3248 62.9507 20.9571 63.583 20.9571 64.3629C20.9571 65.1429 20.3248 65.7752 19.5448 65.7752H19.2911C18.5112 65.7752 17.8789 65.1429 17.8789 64.3629ZM19.2912 63.9632C19.0704 63.9632 18.8914 64.1422 18.8914 64.3629C18.8914 64.5837 19.0704 64.7627 19.2911 64.7627H19.5448C19.7656 64.7627 19.9446 64.5837 19.9446 64.3629C19.9446 64.1422 19.7656 63.9632 19.5448 63.9632H19.2912Z" fill="#2C2C2C"/>
<path fill-rule="evenodd" clip-rule="evenodd" d="M22.9297 64.3629C22.9297 63.583 23.562 62.9507 24.3419 62.9507H24.5956C25.3756 62.9507 26.0079 63.583 26.0079 64.3629C26.0079 65.1429 25.3756 65.7752 24.5956 65.7752H24.3419C23.562 65.7752 22.9297 65.1429 22.9297 64.3629ZM24.3419 63.9632C24.1212 63.9632 23.9422 64.1422 23.9422 64.3629C23.9422 64.5837 24.1212 64.7627 24.3419 64.7627H24.5956C24.8164 64.7627 24.9954 64.5837 24.9954 64.3629C24.9954 64.1422 24.8164 63.9632 24.5956 63.9632H24.3419Z" fill="#2C2C2C"/>
<path fill-rule="evenodd" clip-rule="evenodd" d="M27.9766 64.3629C27.9766 63.583 28.6088 62.9507 29.3888 62.9507H29.6425C30.4224 62.9507 31.0547 63.583 31.0547 64.3629C31.0547 65.1429 30.4224 65.7752 29.6425 65.7752H29.3888C28.6088 65.7752 27.9766 65.1429 27.9766 64.3629ZM29.3888 63.9632C29.168 63.9632 28.9891 64.1422 28.9891 64.3629C28.9891 64.5837 29.168 64.7627 29.3888 64.7627H29.6425C29.8633 64.7627 30.0422 64.5837 30.0422 64.3629C30.0422 64.1422 29.8633 63.9632 29.6425 63.9632H29.3888Z" fill="#2C2C2C"/>
<path fill-rule="evenodd" clip-rule="evenodd" d="M33.0273 64.3629C33.0273 63.583 33.6596 62.9507 34.4396 62.9507H34.6933C35.4732 62.9507 36.1055 63.583 36.1055 64.3629C36.1055 65.1429 35.4732 65.7752 34.6933 65.7752H34.4396C33.6596 65.7752 33.0273 65.1429 33.0273 64.3629ZM34.4396 63.9632C34.2188 63.9632 34.0398 64.1422 34.0398 64.3629C34.0398 64.5837 34.2188 64.7627 34.4396 64.7627H34.6933C34.914 64.7627 35.093 64.5837 35.093 64.3629C35.093 64.1422 34.914 63.9632 34.6933 63.9632H34.4396Z" fill="#2C2C2C"/>
<path fill-rule="evenodd" clip-rule="evenodd" d="M38.0781 64.3629C38.0781 63.583 38.7104 62.9507 39.4904 62.9507H39.744C40.524 62.9507 41.1563 63.583 41.1563 64.3629C41.1563 65.1429 40.524 65.7752 39.744 65.7752H39.4904C38.7104 65.7752 38.0781 65.1429 38.0781 64.3629ZM39.4904 63.9632C39.2696 63.9632 39.0906 64.1422 39.0906 64.3629C39.0906 64.5837 39.2696 64.7627 39.4904 64.7627H39.744C39.9648 64.7627 40.1438 64.5837 40.1438 64.3629C40.1438 64.1422 39.9648 63.9632 39.744 63.9632H39.4904Z" fill="#2C2C2C"/>
<path fill-rule="evenodd" clip-rule="evenodd" d="M43.125 64.3629C43.125 63.583 43.7573 62.9507 44.5372 62.9507H44.7909C45.5709 62.9507 46.2032 63.583 46.2032 64.3629C46.2032 65.1429 45.5709 65.7752 44.7909 65.7752H44.5372C43.7573 65.7752 43.125 65.1429 43.125 64.3629ZM44.5372 63.9632C44.3165 63.9632 44.1375 64.1422 44.1375 64.3629C44.1375 64.5837 44.3165 64.7627 44.5372 64.7627H44.7909C45.0117 64.7627 45.1907 64.5837 45.1907 64.3629C45.1907 64.1422 45.0117 63.9632 44.7909 63.9632H44.5372Z" fill="#2C2C2C"/>
<path fill-rule="evenodd" clip-rule="evenodd" d="M48.1758 64.3629C48.1758 63.583 48.8081 62.9507 49.588 62.9507H49.8417C50.6217 62.9507 51.2539 63.583 51.2539 64.3629C51.2539 65.1429 50.6217 65.7752 49.8417 65.7752H49.588C48.8081 65.7752 48.1758 65.1429 48.1758 64.3629ZM49.588 63.9632C49.3673 63.9632 49.1883 64.1422 49.1883 64.3629C49.1883 64.5837 49.3673 64.7627 49.588 64.7627H49.8417C50.0625 64.7627 50.2414 64.5837 50.2414 64.3629C50.2414 64.1422 50.0625 63.9632 49.8417 63.9632H49.588Z" fill="#2C2C2C"/>
<path fill-rule="evenodd" clip-rule="evenodd" d="M53.2266 64.3629C53.2266 63.583 53.8588 62.9507 54.6388 62.9507H54.8925C55.6724 62.9507 56.3047 63.583 56.3047 64.3629C56.3047 65.1429 55.6724 65.7752 54.8925 65.7752H54.6388C53.8588 65.7752 53.2266 65.1429 53.2266 64.3629ZM54.6388 63.9632C54.418 63.9632 54.2391 64.1422 54.2391 64.3629C54.2391 64.5837 54.418 64.7627 54.6388 64.7627H54.8925C55.1133 64.7627 55.2922 64.5837 55.2922 64.3629C55.2922 64.1422 55.1133 63.9632 54.8925 63.9632H54.6388Z" fill="#2C2C2C"/>
<path fill-rule="evenodd" clip-rule="evenodd" d="M58.2734 64.3629C58.2734 63.583 58.9057 62.9507 59.6857 62.9507H59.9394C60.7193 62.9507 61.3516 63.583 61.3516 64.3629C61.3516 65.1429 60.7193 65.7752 59.9394 65.7752H59.6857C58.9057 65.7752 58.2734 65.1429 58.2734 64.3629ZM59.6857 63.9632C59.4649 63.9632 59.2859 64.1422 59.2859 64.3629C59.2859 64.5837 59.4649 64.7627 59.6857 64.7627H59.9394C60.1601 64.7627 60.3391 64.5837 60.3391 64.3629C60.3391 64.1422 60.1601 63.9632 59.9394 63.9632H59.6857Z" fill="#2C2C2C"/>
<path fill-rule="evenodd" clip-rule="evenodd" d="M63.3242 64.3629C63.3242 63.583 63.9565 62.9507 64.7365 62.9507H64.9901C65.7701 62.9507 66.4024 63.583 66.4024 64.3629C66.4024 65.1429 65.7701 65.7752 64.9901 65.7752H64.7365C63.9565 65.7752 63.3242 65.1429 63.3242 64.3629ZM64.7365 63.9632C64.5157 63.9632 64.3367 64.1422 64.3367 64.3629C64.3367 64.5837 64.5157 64.7627 64.7365 64.7627H64.9901C65.2109 64.7627 65.3899 64.5837 65.3899 64.3629C65.3899 64.1422 65.2109 63.9632 64.9901 63.9632H64.7365Z" fill="#2C2C2C"/>
<path fill-rule="evenodd" clip-rule="evenodd" d="M20.2891 59.5309C20.2891 58.7509 20.9213 58.1187 21.7013 58.1187H21.955C22.7349 58.1187 23.3672 58.7509 23.3672 59.5309C23.3672 60.3109 22.7349 60.9431 21.955 60.9431H21.7013C20.9213 60.9431 20.2891 60.3109 20.2891 59.5309ZM21.7013 59.1312C21.4805 59.1312 21.3016 59.3101 21.3016 59.5309C21.3016 59.7517 21.4805 59.9306 21.7013 59.9306H21.955C22.1758 59.9306 22.3547 59.7517 22.3547 59.5309C22.3547 59.3101 22.1758 59.1312 21.955 59.1312H21.7013Z" fill="#2C2C2C"/>
<path fill-rule="evenodd" clip-rule="evenodd" d="M25.3398 59.5309C25.3398 58.7509 25.9721 58.1187 26.7521 58.1187H27.0058C27.7857 58.1187 28.418 58.7509 28.418 59.5309C28.418 60.3109 27.7857 60.9431 27.0058 60.9431H26.7521C25.9721 60.9431 25.3398 60.3109 25.3398 59.5309ZM26.7521 59.1312C26.5313 59.1312 26.3523 59.3101 26.3523 59.5309C26.3523 59.7517 26.5313 59.9306 26.7521 59.9306H27.0058C27.2265 59.9306 27.4055 59.7517 27.4055 59.5309C27.4055 59.3101 27.2265 59.1312 27.0058 59.1312H26.7521Z" fill="#2C2C2C"/>
<path fill-rule="evenodd" clip-rule="evenodd" d="M30.3867 59.5309C30.3867 58.7509 31.019 58.1187 31.799 58.1187H32.0526C32.8326 58.1187 33.4649 58.7509 33.4649 59.5309C33.4649 60.3109 32.8326 60.9431 32.0526 60.9431H31.799C31.019 60.9431 30.3867 60.3109 30.3867 59.5309ZM31.799 59.1312C31.5782 59.1312 31.3992 59.3101 31.3992 59.5309C31.3992 59.7517 31.5782 59.9306 31.799 59.9306H32.0526C32.2734 59.9306 32.4524 59.7517 32.4524 59.5309C32.4524 59.3101 32.2734 59.1312 32.0526 59.1312H31.799Z" fill="#2C2C2C"/>
<path fill-rule="evenodd" clip-rule="evenodd" d="M35.4375 59.5309C35.4375 58.7509 36.0698 58.1187 36.8497 58.1187H37.1034C37.8834 58.1187 38.5157 58.7509 38.5157 59.5309C38.5157 60.3109 37.8834 60.9431 37.1034 60.9431H36.8497C36.0698 60.9431 35.4375 60.3109 35.4375 59.5309ZM36.8497 59.1312C36.629 59.1312 36.45 59.3101 36.45 59.5309C36.45 59.7517 36.629 59.9306 36.8497 59.9306H37.1034C37.3242 59.9306 37.5032 59.7517 37.5032 59.5309C37.5032 59.3101 37.3242 59.1312 37.1034 59.1312H36.8497Z" fill="#2C2C2C"/>
<path fill-rule="evenodd" clip-rule="evenodd" d="M40.4883 59.5309C40.4883 58.7509 41.1206 58.1187 41.9005 58.1187H42.1542C42.9342 58.1187 43.5664 58.7509 43.5664 59.5309C43.5664 60.3109 42.9342 60.9431 42.1542 60.9431H41.9005C41.1206 60.9431 40.4883 60.3109 40.4883 59.5309ZM41.9005 59.1312C41.6798 59.1312 41.5008 59.3101 41.5008 59.5309C41.5008 59.7517 41.6798 59.9306 41.9005 59.9306H42.1542C42.375 59.9306 42.5539 59.7517 42.5539 59.5309C42.5539 59.3101 42.375 59.1312 42.1542 59.1312H41.9005Z" fill="#2C2C2C"/>
<path fill-rule="evenodd" clip-rule="evenodd" d="M45.5352 59.5309C45.5352 58.7509 46.1674 58.1187 46.9474 58.1187H47.2011C47.981 58.1187 48.6133 58.7509 48.6133 59.5309C48.6133 60.3109 47.981 60.9431 47.2011 60.9431H46.9474C46.1674 60.9431 45.5352 60.3109 45.5352 59.5309ZM46.9474 59.1312C46.7266 59.1312 46.5477 59.3101 46.5477 59.5309C46.5477 59.7517 46.7266 59.9306 46.9474 59.9306H47.2011C47.4219 59.9306 47.6008 59.7517 47.6008 59.5309C47.6008 59.3101 47.4219 59.1312 47.2011 59.1312H46.9474Z" fill="#2C2C2C"/>
<path fill-rule="evenodd" clip-rule="evenodd" d="M50.5859 59.5309C50.5859 58.7509 51.2182 58.1187 51.9982 58.1187H52.2519C53.0318 58.1187 53.6641 58.7509 53.6641 59.5309C53.6641 60.3109 53.0318 60.9431 52.2519 60.9431H51.9982C51.2182 60.9431 50.5859 60.3109 50.5859 59.5309ZM51.9982 59.1312C51.7774 59.1312 51.5984 59.3101 51.5984 59.5309C51.5984 59.7517 51.7774 59.9306 51.9982 59.9306H52.2519C52.4726 59.9306 52.6516 59.7517 52.6516 59.5309C52.6516 59.3101 52.4726 59.1312 52.2519 59.1312H51.9982Z" fill="#2C2C2C"/>
<path fill-rule="evenodd" clip-rule="evenodd" d="M55.6367 59.5309C55.6367 58.7509 56.269 58.1187 57.049 58.1187H57.3026C58.0826 58.1187 58.7149 58.7509 58.7149 59.5309C58.7149 60.3109 58.0826 60.9431 57.3026 60.9431H57.049C56.269 60.9431 55.6367 60.3109 55.6367 59.5309ZM57.049 59.1312C56.8282 59.1312 56.6492 59.3101 56.6492 59.5309C56.6492 59.7517 56.8282 59.9306 57.049 59.9306H57.3026C57.5234 59.9306 57.7024 59.7517 57.7024 59.5309C57.7024 59.3101 57.5234 59.1312 57.3026 59.1312H57.049Z" fill="#2C2C2C"/>
<path fill-rule="evenodd" clip-rule="evenodd" d="M60.6836 59.5309C60.6836 58.7509 61.3159 58.1187 62.0958 58.1187H62.3495C63.1295 58.1187 63.7618 58.7509 63.7618 59.5309C63.7618 60.3109 63.1295 60.9431 62.3495 60.9431H62.0958C61.3159 60.9431 60.6836 60.3109 60.6836 59.5309ZM62.0958 59.1312C61.8751 59.1312 61.6961 59.3101 61.6961 59.5309C61.6961 59.7517 61.8751 59.9306 62.0958 59.9306H62.3495C62.5703 59.9306 62.7493 59.7517 62.7493 59.5309C62.7493 59.3101 62.5703 59.1312 62.3495 59.1312H62.0958Z" fill="#2C2C2C"/>
<path fill-rule="evenodd" clip-rule="evenodd" d="M59.7335 28.1148C59.5938 27.8799 59.293 27.7983 59.0537 27.9304L50.9053 32.4285L43.9811 32.4285L47.0808 27.5471L55.8417 23.4219C56.0857 23.307 56.1968 23.0211 56.0944 22.7716C55.992 22.5222 55.712 22.3968 55.4577 22.4865L45.7032 25.9264C45.5996 25.9629 45.5107 26.0321 45.4499 26.1236L41.9817 31.3408L38.3354 26.9575L38.0571 21.4924C38.0471 21.297 37.9255 21.1248 37.7446 21.0502L30.8591 18.2084C30.6069 18.1044 30.3175 18.2189 30.2049 18.4674C30.0922 18.7159 30.1968 19.009 30.4413 19.1301L35.8977 21.8323L35.8977 26.3961L26.4772 26.3961C26.2075 26.3961 25.9851 26.6077 25.9716 26.8771C25.9581 27.1465 26.1582 27.3791 26.4266 27.4061L36.1348 28.3812L39.369 32.6173L35.143 33.588C35.0531 33.6087 34.9705 33.6535 34.9042 33.7177L28.8793 39.5507C28.6836 39.7402 28.6729 40.0505 28.8551 40.253C29.0373 40.4555 29.3471 40.4775 29.5561 40.3028L35.44 35.3854L40.7175 35.3854L40.7175 40.7619C40.7175 40.9562 40.8287 41.1334 41.0037 41.2178L45.6515 43.4613C45.8963 43.5795 46.1908 43.4832 46.3185 43.2432C46.4462 43.0032 46.3615 42.7052 46.1267 42.5681L42.5595 40.4865L43.0112 35.3405L50.2814 34.6028L52.2565 35.8551C52.4674 35.9888 52.7443 35.9487 52.9087 35.7607C53.0731 35.5727 53.0758 35.2929 52.9151 35.1018L51.7945 33.7685L59.5709 28.8002C59.8012 28.6531 59.8732 28.3497 59.7335 28.1148ZM50.5331 33.5918C50.4749 33.5765 50.4141 33.5716 50.3534 33.5778L42.4924 34.3754C42.2507 34.4 42.0605 34.5928 42.0392 34.8348L41.73 38.3568L41.73 34.8791C41.73 34.5995 41.5034 34.3729 41.2238 34.3729L36.249 34.3729L40.3617 33.4282C40.5294 33.3897 40.6661 33.2686 40.7245 33.1067C40.7829 32.9448 40.7552 32.7643 40.6507 32.6276L36.8063 27.5923C36.729 27.491 36.6167 27.423 36.4921 27.401C36.7297 27.3592 36.9102 27.1519 36.9102 26.9024L36.9102 21.8011L37.0622 21.8638L37.3328 27.1774C37.3384 27.2867 37.3792 27.3913 37.4492 27.4754L41.6379 32.5107C41.7402 32.6337 41.8945 32.7011 42.0542 32.6925C42.2139 32.6839 42.3602 32.6004 42.4487 32.4672L46.1995 26.825L46.4348 26.742C46.3834 26.7794 46.3392 26.8262 46.3049 26.8803L42.6326 32.6634C42.5336 32.8193 42.5273 33.0168 42.6163 33.1786C42.7052 33.3405 42.8753 33.441 43.0599 33.441L50.5757 33.441C50.5562 33.4835 50.5425 33.5289 50.5353 33.576C50.5345 33.5813 50.5337 33.5865 50.5331 33.5918Z" fill="#2C2C2C"/>
<path fill-rule="evenodd" clip-rule="evenodd" d="M53.6463 41.3007C53.7156 41.5587 53.9733 41.7184 54.2351 41.6658L58.1211 40.8839C58.3084 40.8462 58.4585 40.7063 58.5093 40.5221L58.7821 39.5332L60.3115 41.3663C60.4052 41.4786 60.5429 41.5449 60.6892 41.5481L66.5182 41.6756C66.79 41.6815 67.018 41.4717 67.0346 41.2002C67.0511 40.9288 66.8503 40.6928 66.5797 40.6657L61.7049 40.1775L60.3447 38.4013L62.138 37.9906C62.2278 37.9701 62.3103 37.9254 62.3766 37.8614L65.4678 34.8777C65.6637 34.6885 65.6749 34.3781 65.493 34.1754C65.3111 33.9726 65.0014 33.9501 64.7921 34.1245L61.8418 36.5829L58.9633 36.5829C58.8441 36.5829 58.7346 36.6241 58.6481 36.693L57.3485 34.2738C57.225 34.0439 56.9468 33.9455 56.7062 34.0468C56.4656 34.148 56.3414 34.4157 56.4195 34.6648L57.4971 38.1041L57.1496 39.616L53.9731 40.6899C53.7201 40.7754 53.5771 41.0428 53.6463 41.3007ZM58.5125 37.9614C58.5101 37.9517 58.5074 37.942 58.5044 37.9323L58.3951 37.5837C58.4397 37.5738 58.4836 37.5578 58.5258 37.5351C58.5623 37.5155 58.5954 37.4921 58.6249 37.4656C58.7145 37.5463 58.8332 37.5954 58.9633 37.5954L59.3303 37.5954C59.1718 37.6387 59.0436 37.7566 58.9876 37.912C58.957 37.9967 58.9501 38.0865 58.9654 38.1725L58.9399 38.1419C58.8341 38.0151 58.6743 37.949 58.5125 37.9614Z" fill="#2C2C2C"/>
<path fill-rule="evenodd" clip-rule="evenodd" d="M24.7133 40.4748C24.9712 40.4055 25.131 40.1478 25.0783 39.886L24.2964 36C24.2587 35.8127 24.1188 35.6626 23.9347 35.6118L22.9457 35.339L24.7788 33.8096C24.9711 33.6491 25.0172 33.3722 24.8872 33.1581C24.7573 32.9441 24.4903 32.8572 24.2593 32.9538L21.5051 34.1049L19.2337 33.0684L18.4229 28.9081C18.3741 28.6578 18.1468 28.4829 17.8924 28.4998C17.638 28.5167 17.4359 28.7201 17.4206 28.9746L17.1337 33.7585C17.1214 33.9641 17.2349 34.1567 17.4207 34.2456L20.0499 35.5029L17.6864 36.7726C17.4564 36.8961 17.3581 37.1743 17.4593 37.4149C17.5606 37.6555 17.8282 37.7797 18.0773 37.7016L21.5166 36.624L23.0286 36.9715L24.1024 40.148C24.1879 40.401 24.4553 40.544 24.7133 40.4748ZM21.374 35.6086C21.3642 35.611 21.3545 35.6137 21.3449 35.6167L20.9962 35.726C20.9864 35.6814 20.9703 35.6375 20.9476 35.5953C20.9281 35.5589 20.9047 35.5258 20.8782 35.4963C20.9098 35.4612 20.937 35.421 20.9584 35.3762C21.021 35.2453 21.0224 35.1009 20.9739 34.9754L21.2861 35.1179C21.3804 35.1609 21.4847 35.1736 21.585 35.1557L21.5545 35.1812C21.4277 35.287 21.3616 35.4468 21.374 35.6086ZM18.295 33.5413L18.1648 33.4791L18.1924 33.0184L18.2898 33.5177C18.2913 33.5256 18.293 33.5335 18.295 33.5413Z" fill="#2C2C2C"/>
</svg>
