<svg width="80" height="80" viewBox="0 0 80 80" fill="none" xmlns="http://www.w3.org/2000/svg">
<circle cx="40" cy="40" r="39.5" stroke="#9E8A81"/>
<path d="M48.2881 60.9179C43.8143 62.6905 38.89 62.9821 34.2383 61.7498C29.5866 60.5175 25.4525 57.8263 22.443 54.0713C19.4335 50.3163 17.7072 45.6953 17.5175 40.8869C17.3278 36.0785 18.6848 31.3359 21.3891 27.3555C24.0934 23.3751 28.0027 20.3666 32.5429 18.7717C37.0831 17.1768 42.015 17.0796 46.6146 18.4942C51.2141 19.9089 55.2389 22.761 58.098 26.6317C60.4292 29.7876 61.8853 33.4851 62.3436 37.3513" stroke="#2C2C2C" stroke-width="1.5" stroke-miterlimit="10" stroke-linecap="round"/>
<path d="M40 17.5V62.5" stroke="#2C2C2C" stroke-width="1.5" stroke-miterlimit="10" stroke-linecap="round"/>
<path d="M42.25 17.5C47.2561 22.5854 50.578 29.731 51.1589 37.75" stroke="#2C2C2C" stroke-width="1.5" stroke-miterlimit="10" stroke-linecap="round"/>
<path d="M21.9985 51.25C27.3877 49.8079 33.4225 49 39.7951 49C41.5472 49 43.2887 49.0512 45.0039 49.1563" stroke="#2C2C2C" stroke-width="1.5" stroke-miterlimit="10" stroke-linecap="round"/>
<path d="M55.75 27.6971C50.8826 29.9541 45.3934 31 39.7965 31C33.4239 31 27.3891 29.3843 22 26.5" stroke="#2C2C2C" stroke-width="1.5" stroke-miterlimit="10" stroke-linecap="round"/>
<path d="M33.5598 57.4492C30.064 52.5217 28.1562 46.5012 28.1562 39.9999C28.1562 31.1018 32.0049 23.1036 38.1273 17.5769" stroke="#2C2C2C" stroke-width="1.5" stroke-miterlimit="10" stroke-linecap="round"/>
<path d="M52.4954 53.9662L51.594 63.2425L56.355 60.3859C56.5103 60.2927 56.5879 60.2462 56.6708 60.228C56.7441 60.2119 56.8201 60.2119 56.8934 60.228C56.9762 60.2462 57.0539 60.2927 57.2092 60.3859L61.9701 63.2425L61.0694 53.9632M61.3744 42.3335C61.5347 42.721 61.8423 43.0291 62.2296 43.1899L63.5877 43.7525C63.9753 43.9131 64.2832 44.221 64.4438 44.6086C64.6043 44.9962 64.6043 45.4317 64.4438 45.8193L63.8816 47.1765C63.721 47.5643 63.7208 48.0002 63.8821 48.3878L64.4433 49.7446C64.5229 49.9365 64.5639 50.1423 64.5639 50.3501C64.5639 50.558 64.523 50.7637 64.4435 50.9557C64.364 51.1477 64.2474 51.3222 64.1004 51.4691C63.9535 51.616 63.779 51.7326 63.587 51.812L62.2298 52.3742C61.8423 52.5344 61.5342 52.842 61.3734 53.2294L60.8108 54.5875C60.6503 54.9751 60.3424 55.2831 59.9548 55.4436C59.5672 55.6042 59.1317 55.6042 58.7441 55.4436L57.387 54.8815C56.9994 54.7213 56.5641 54.7216 56.1767 54.8824L54.8186 55.4441C54.4312 55.6043 53.9961 55.6042 53.6088 55.4438C53.2216 55.2833 52.9138 54.9758 52.7532 54.5886L52.1904 53.23C52.0302 52.8424 51.7226 52.5344 51.3353 52.3735L49.9772 51.811C49.5898 51.6505 49.2819 51.3427 49.1213 50.9554C48.9607 50.568 48.9605 50.1327 49.1207 49.7452L49.6829 48.388C49.843 48.0004 49.8427 47.565 49.6819 47.1776L49.1206 45.8185C49.041 45.6265 49 45.4208 49 45.2129C49 45.0051 49.0409 44.7993 49.1204 44.6073C49.1999 44.4153 49.3165 44.2409 49.4635 44.094C49.6104 43.947 49.7849 43.8305 49.9769 43.751L51.3341 43.1889C51.7213 43.0288 52.0292 42.7216 52.1901 42.3347L52.7527 40.9765C52.9132 40.5889 53.2211 40.281 53.6087 40.1204C53.9963 39.9599 54.4318 39.9599 54.8194 40.1204L56.1765 40.6826C56.5641 40.8427 56.9994 40.8424 57.3868 40.6817L58.7455 40.1213C59.133 39.9608 59.5684 39.9609 59.9559 40.1214C60.3434 40.2819 60.6513 40.5897 60.8119 40.9772L61.3744 42.3335Z" stroke="#2C2C2C" stroke-width="1.5" stroke-linecap="round" stroke-linejoin="round"/>
</svg>
