<svg width="80" height="80" viewBox="0 0 80 80" fill="none" xmlns="http://www.w3.org/2000/svg">
<circle cx="40" cy="40" r="40" fill="#697B69"/>
<path d="M36.415 33.8688L44.8785 43.3309L53.3438 33.867C55.2884 31.7922 56.4797 29.0026 56.4797 25.9345C56.4797 19.5271 51.286 14.3333 44.8785 14.3333C38.4711 14.3333 33.2773 19.5271 33.2773 25.9345C33.2773 29.0035 34.4687 31.794 36.415 33.8688V33.8688Z" stroke="#F0EFEB" stroke-width="1.5" stroke-miterlimit="10" stroke-linecap="round" stroke-linejoin="round"/>
<path d="M44.8778 17.4664C44.8778 17.4664 39.5234 22.803 39.5234 27.7192C39.5234 32.6274 43.093 33.966 44.8778 33.966C46.6626 33.966 50.2322 32.6274 50.2322 27.7192C50.2322 23.1314 44.8778 17.4664 44.8778 17.4664Z" stroke="#F0EFEB" stroke-width="1.5" stroke-miterlimit="10" stroke-linecap="round" stroke-linejoin="round"/>
<path d="M44.8789 27.7194V38.4282" stroke="#F0EFEB" stroke-width="1.5" stroke-miterlimit="10" stroke-linecap="round" stroke-linejoin="round"/>
<path d="M30.3477 21.2833C31.1794 18.723 32.7616 16.4653 34.7168 14.7037" stroke="#F0EFEB" stroke-width="1.5" stroke-miterlimit="10" stroke-linecap="round" stroke-linejoin="round"/>
<path d="M58.8878 19.9126C59.7097 21.7804 60.0497 23.7624 60.0497 25.9345C60.0497 28.7857 59.2626 31.454 57.8945 33.7323" stroke="#F0EFEB" stroke-width="1.5" stroke-miterlimit="10" stroke-linecap="round" stroke-linejoin="round"/>
<path d="M52.7015 34.5864C55.3786 35.4788 59.158 37.5357 59.158 41.1053C59.158 41.8139 58.9509 42.4752 58.5949 43.0302C56.9966 45.3112 53.8036 44.6749 53.8036 47.3521C53.8036 50.0293 57.3732 50.3604 57.3732 53.3963C57.3732 55.1856 55.8391 56.2761 54.3604 56.2761C51.1264 56.2761 50.7864 54.4913 46.6644 54.4913C40.0633 54.4913 39.5252 60.7381 30.8145 60.7381C23.6753 60.7381 19 56.8062 19 50.9217C19 48.149 20.5412 46.0573 22.5696 44.243C25.7224 41.423 27.0316 39.3205 27.0316 35.7509C27.0316 32.7935 29.4286 30.3965 32.386 30.3965C33.0705 30.3965 33.7246 30.5251 34.3261 30.7589" stroke="#F0EFEB" stroke-width="1.5" stroke-miterlimit="10" stroke-linecap="round" stroke-linejoin="round"/>
<path d="M59.1596 41.1054V45.5674C59.1596 46.276 58.9526 46.9372 58.5965 47.4923C57.6506 48.8434 56.1442 49.1709 55.0742 49.7688" stroke="#F0EFEB" stroke-width="1.5" stroke-miterlimit="10" stroke-linecap="round" stroke-linejoin="round"/>
<path d="M19 50.9216V55.3836C19 61.2681 23.6753 65.2 30.8145 65.2C39.5252 65.2 40.0633 58.9532 46.6644 58.9532C50.7864 58.9532 51.1264 60.738 54.3604 60.738C55.8391 60.738 57.3732 59.6475 57.3732 57.8582V53.3962" stroke="#F0EFEB" stroke-width="1.5" stroke-miterlimit="10" stroke-linecap="round" stroke-linejoin="round"/>
<path d="M20.1654 21.3333L19.4062 24.3701C19.258 24.9627 19.1839 25.259 19.0297 25.5001C18.8932 25.7134 18.7121 25.8945 18.4988 26.0309C18.2577 26.1852 17.9614 26.2593 17.3689 26.4074L14.332 27.1666L17.3689 27.9259C17.9614 28.074 18.2577 28.1481 18.4988 28.3023C18.7121 28.4388 18.8932 28.6199 19.0297 28.8332C19.1839 29.0743 19.258 29.3706 19.4062 29.9632L20.1654 33L20.9246 29.9632C21.0727 29.3706 21.1468 29.0743 21.3011 28.8332C21.4375 28.6199 21.6186 28.4388 21.8319 28.3023C22.073 28.1481 22.3693 28.074 22.9619 27.9259L25.9987 27.1666L22.9619 26.4074C22.3693 26.2593 22.073 26.1852 21.8319 26.0309C21.6186 25.8945 21.4375 25.7134 21.3011 25.5001C21.1468 25.259 21.0727 24.9627 20.9246 24.3701L20.1654 21.3333Z" stroke="#F0EFEB" stroke-width="1.5" stroke-miterlimit="10" stroke-linecap="round" stroke-linejoin="round"/>
</svg>
