<svg width="50" height="50" viewBox="0 0 50 50" fill="none" xmlns="http://www.w3.org/2000/svg">
<path d="M32.8125 8.8125V9.9375C37.6719 9.9375 41.625 15 41.625 21.2234C41.625 24.2375 40.3266 26.8 39.3312 28.3297L38.5766 24.9922L37.4781 25.2406L38.6375 30.3609L43.7453 29.2L43.4953 28.1047L40.3562 28.8188C41.4187 27.1516 42.7531 24.4281 42.7531 21.2234C42.7531 17.0203 41.0672 13.3063 38.5016 11.0594C43.9937 13.3094 47.8766 18.7063 47.8766 25C47.8766 33.3047 41.1203 40.0625 32.8141 40.0625C30.4031 40.0625 28.1312 39.4797 26.1078 38.4672C30.6 35.4812 33.3766 30.4266 33.3766 25C33.3766 16.075 26.1141 8.8125 17.1891 8.8125C8.26406 8.8125 1 16.075 1 25C1 33.9266 8.26094 41.1875 17.1875 41.1875V40.0625C12.3281 40.0625 8.375 35 8.375 28.7766C8.375 25.7609 9.675 23.2 10.6703 21.6703L11.425 25.0078L12.5219 24.7594L11.3625 19.6375L6.25625 20.7984L6.50469 21.8953L9.64375 21.1828C8.58125 22.8484 7.25 25.5719 7.25 28.7766C7.25 32.9781 8.93437 36.6922 11.5 38.9391C6.00781 36.6891 2.125 31.2937 2.125 25C2.125 16.6953 8.88281 9.9375 17.1875 9.9375C19.5984 9.9375 21.8703 10.5203 23.8937 11.5328C19.4 14.5172 16.625 19.5719 16.625 25C16.625 33.9266 23.8859 41.1875 32.8125 41.1875C41.7391 41.1875 49 33.9266 49 25C49 16.075 41.7391 8.8125 32.8125 8.8125ZM17.75 25C17.75 19.7547 20.525 14.8703 24.9953 12.1437C29.3359 14.7906 32.25 19.5547 32.25 25C32.25 30.2453 29.475 35.1281 25.0047 37.8562C20.6641 35.2094 17.75 30.4453 17.75 25Z" fill="#697B69"/>
</svg>
