<svg width="84" height="84" viewBox="0 0 84 84" fill="none" xmlns="http://www.w3.org/2000/svg">
<rect width="84" height="84" rx="42" fill="#E9E3DC"/>
<path fill-rule="evenodd" clip-rule="evenodd" d="M51.547 30.5106C51.547 30.2311 51.7737 30.0044 52.0533 30.0044H55.3277C55.6073 30.0044 55.834 30.2311 55.834 30.5106V33.8426C55.834 34.1222 55.6073 34.3488 55.3277 34.3488C55.0481 34.3488 54.8215 34.1222 54.8215 33.8426V31.8025L48.5183 38.6099C48.3284 38.8151 48.0081 38.8274 47.8029 38.6374C47.5978 38.4475 47.5855 38.1272 47.7754 37.922L54.169 31.0169H52.0533C51.7737 31.0169 51.547 30.7902 51.547 30.5106Z" fill="#2C2C2C"/>
<path fill-rule="evenodd" clip-rule="evenodd" d="M16.9062 38.4381C16.9062 38.1585 17.1329 37.9319 17.4125 37.9319H66.4721C66.7517 37.9319 66.9783 38.1585 66.9783 38.4381C66.9783 38.7177 66.7517 38.9444 66.4721 38.9444H17.4125C17.1329 38.9444 16.9062 38.7177 16.9062 38.4381Z" fill="#2C2C2C"/>
<path fill-rule="evenodd" clip-rule="evenodd" d="M16.9062 48.0893C16.9062 47.8097 17.1329 47.583 17.4125 47.583C19.3673 47.583 20.6697 48.1701 21.8539 48.7219C21.8787 48.7334 21.9035 48.7449 21.9282 48.7564C23.0736 49.2904 24.0938 49.766 25.5891 49.766C27.1218 49.766 28.2503 49.2655 29.4704 48.7188L29.4938 48.7083C30.7029 48.1664 32.0048 47.583 33.7657 47.583C35.5266 47.583 36.8285 48.1664 38.0376 48.7082L38.061 48.7188C39.2811 49.2655 40.4096 49.766 41.9423 49.766C43.475 49.766 44.6034 49.2655 45.8236 48.7188L45.847 48.7082C47.0561 48.1664 48.358 47.583 50.1189 47.583C51.8798 47.583 53.1817 48.1664 54.3908 48.7083L54.4142 48.7188C55.6343 49.2655 56.7628 49.766 58.2955 49.766C59.8294 49.766 60.9807 49.2646 62.2113 48.7181L62.261 48.696C63.4698 48.159 64.7665 47.583 66.4721 47.583C66.7517 47.583 66.9783 47.8097 66.9783 48.0893C66.9783 48.3689 66.7517 48.5955 66.4721 48.5955C64.984 48.5955 63.857 49.0951 62.6222 49.6434L62.6217 49.6437C61.3947 50.1886 60.0663 50.7785 58.2955 50.7785C56.5346 50.7785 55.2327 50.1951 54.0236 49.6532L54.0002 49.6427C52.78 49.096 51.6516 48.5955 50.1189 48.5955C48.5862 48.5955 47.4577 49.096 46.2376 49.6427L46.2142 49.6532C45.0051 50.1951 43.7032 50.7785 41.9423 50.7785C40.1814 50.7785 38.8795 50.1951 37.6704 49.6532L37.647 49.6427C36.4269 49.096 35.2984 48.5955 33.7657 48.5955C32.233 48.5955 31.1045 49.096 29.8844 49.6427L29.861 49.6532C28.6519 50.1951 27.35 50.7785 25.5891 50.7785C23.8671 50.7785 22.67 50.2199 21.5359 49.6907C21.4993 49.6737 21.4628 49.6566 21.4264 49.6396C20.2677 49.0999 19.1343 48.5955 17.4125 48.5955C17.1329 48.5955 16.9062 48.3689 16.9062 48.0893Z" fill="#2C2C2C"/>
<path fill-rule="evenodd" clip-rule="evenodd" d="M16.9062 65.8979C16.9062 65.6183 17.1329 65.3916 17.4125 65.3916H66.4721C66.7517 65.3916 66.9783 65.6183 66.9783 65.8979C66.9783 66.1774 66.7517 66.4041 66.4721 66.4041H17.4125C17.1329 66.4041 16.9062 66.1774 16.9062 65.8979Z" fill="#2C2C2C"/>
<path fill-rule="evenodd" clip-rule="evenodd" d="M16.9648 42.2296C16.9648 41.95 17.1915 41.7234 17.4711 41.7234H26.203C26.4826 41.7234 26.7093 41.95 26.7093 42.2296C26.7093 42.5092 26.4826 42.7359 26.203 42.7359H17.4711C17.1915 42.7359 16.9648 42.5092 16.9648 42.2296Z" fill="#2C2C2C"/>
<path fill-rule="evenodd" clip-rule="evenodd" d="M28.1094 42.2296C28.1094 41.95 28.336 41.7234 28.6156 41.7234L66.5305 41.7234C66.8101 41.7234 67.0368 41.9501 67.0368 42.2297C67.0368 42.5093 66.8101 42.7359 66.5305 42.7359L28.6156 42.7359C28.336 42.7359 28.1094 42.5092 28.1094 42.2296Z" fill="#2C2C2C"/>
<path fill-rule="evenodd" clip-rule="evenodd" d="M17.7695 52.5702C17.7695 52.2906 17.9962 52.064 18.2758 52.064H20.3439C20.6235 52.064 20.8501 52.2906 20.8501 52.5702V53.9489C20.8501 54.2285 20.6235 54.4552 20.3439 54.4552H18.2758C17.9962 54.4552 17.7695 54.2285 17.7695 53.9489V52.5702ZM18.782 53.0765V53.4427H19.8376V53.0765H18.782Z" fill="#2C2C2C"/>
<path fill-rule="evenodd" clip-rule="evenodd" d="M22.8242 52.5702C22.8242 52.2906 23.0509 52.064 23.3305 52.064H25.3986C25.6781 52.064 25.9048 52.2906 25.9048 52.5702V53.9489C25.9048 54.2285 25.6781 54.4552 25.3986 54.4552H23.3305C23.0509 54.4552 22.8242 54.2285 22.8242 53.9489V52.5702ZM23.8367 53.0765V53.4427H24.8923V53.0765H23.8367Z" fill="#2C2C2C"/>
<path fill-rule="evenodd" clip-rule="evenodd" d="M27.8789 52.5702C27.8789 52.2906 28.1056 52.064 28.3852 52.064H30.4532C30.7328 52.064 30.9595 52.2906 30.9595 52.5702V53.9489C30.9595 54.2285 30.7328 54.4552 30.4532 54.4552H28.3852C28.1056 54.4552 27.8789 54.2285 27.8789 53.9489V52.5702ZM28.8914 53.0765V53.4427H29.947V53.0765H28.8914Z" fill="#2C2C2C"/>
<path fill-rule="evenodd" clip-rule="evenodd" d="M32.9336 52.5702C32.9336 52.2906 33.1602 52.064 33.4398 52.064H35.5079C35.7875 52.064 36.0142 52.2906 36.0142 52.5702V53.9489C36.0142 54.2285 35.7875 54.4552 35.5079 54.4552H33.4398C33.1602 54.4552 32.9336 54.2285 32.9336 53.9489V52.5702ZM33.9461 53.0765V53.4427H35.0017V53.0765H33.9461Z" fill="#2C2C2C"/>
<path fill-rule="evenodd" clip-rule="evenodd" d="M37.9922 52.5702C37.9922 52.2906 38.2188 52.064 38.4984 52.064H40.5665C40.8461 52.064 41.0728 52.2906 41.0728 52.5702V53.9489C41.0728 54.2285 40.8461 54.4552 40.5665 54.4552H38.4984C38.2188 54.4552 37.9922 54.2285 37.9922 53.9489V52.5702ZM39.0047 53.0765V53.4427H40.0603V53.0765H39.0047Z" fill="#2C2C2C"/>
<path fill-rule="evenodd" clip-rule="evenodd" d="M43.0469 52.5702C43.0469 52.2906 43.2735 52.064 43.5531 52.064H45.6212C45.9008 52.064 46.1275 52.2906 46.1275 52.5702V53.9489C46.1275 54.2285 45.9008 54.4552 45.6212 54.4552H43.5531C43.2735 54.4552 43.0469 54.2285 43.0469 53.9489V52.5702ZM44.0594 53.0765V53.4427H45.115V53.0765H44.0594Z" fill="#2C2C2C"/>
<path fill-rule="evenodd" clip-rule="evenodd" d="M48.1016 52.5702C48.1016 52.2906 48.3282 52.064 48.6078 52.064H50.6759C50.9555 52.064 51.1821 52.2906 51.1821 52.5702V53.9489C51.1821 54.2285 50.9555 54.4552 50.6759 54.4552H48.6078C48.3282 54.4552 48.1016 54.2285 48.1016 53.9489V52.5702ZM49.1141 53.0765V53.4427H50.1696V53.0765H49.1141Z" fill="#2C2C2C"/>
<path fill-rule="evenodd" clip-rule="evenodd" d="M53.1562 52.5702C53.1562 52.2906 53.3829 52.064 53.6625 52.064H55.7306C56.0102 52.064 56.2368 52.2906 56.2368 52.5702V53.9489C56.2368 54.2285 56.0102 54.4552 55.7306 54.4552H53.6625C53.3829 54.4552 53.1562 54.2285 53.1562 53.9489V52.5702ZM54.1687 53.0765V53.4427H55.2243V53.0765H54.1687Z" fill="#2C2C2C"/>
<path fill-rule="evenodd" clip-rule="evenodd" d="M58.2109 52.5702C58.2109 52.2906 58.4376 52.064 58.7172 52.064H60.7853C61.0649 52.064 61.2915 52.2906 61.2915 52.5702V53.9489C61.2915 54.2285 61.0649 54.4552 60.7853 54.4552H58.7172C58.4376 54.4552 58.2109 54.2285 58.2109 53.9489V52.5702ZM59.2234 53.0765V53.4427H60.279V53.0765H59.2234Z" fill="#2C2C2C"/>
<path fill-rule="evenodd" clip-rule="evenodd" d="M63.2656 52.5702C63.2656 52.2906 63.4923 52.064 63.7719 52.064H65.84C66.1196 52.064 66.3462 52.2906 66.3462 52.5702V53.9489C66.3462 54.2285 66.1196 54.4552 65.84 54.4552H63.7719C63.4923 54.4552 63.2656 54.2285 63.2656 53.9489V52.5702ZM64.2781 53.0765V53.4427H65.3337V53.0765H64.2781Z" fill="#2C2C2C"/>
<path fill-rule="evenodd" clip-rule="evenodd" d="M17.7695 59.9232C17.7695 59.6436 17.9962 59.417 18.2758 59.417H20.3439C20.6235 59.417 20.8501 59.6436 20.8501 59.9232V61.302C20.8501 61.5816 20.6235 61.8082 20.3439 61.8082H18.2758C17.9962 61.8082 17.7695 61.5816 17.7695 61.302V59.9232ZM18.782 60.4295V60.7957H19.8376V60.4295H18.782Z" fill="#2C2C2C"/>
<path fill-rule="evenodd" clip-rule="evenodd" d="M22.8242 59.9232C22.8242 59.6436 23.0509 59.417 23.3305 59.417H25.3986C25.6781 59.417 25.9048 59.6436 25.9048 59.9232V61.302C25.9048 61.5816 25.6781 61.8082 25.3986 61.8082H23.3305C23.0509 61.8082 22.8242 61.5816 22.8242 61.302V59.9232ZM23.8367 60.4295V60.7957H24.8923V60.4295H23.8367Z" fill="#2C2C2C"/>
<path fill-rule="evenodd" clip-rule="evenodd" d="M27.8789 59.9232C27.8789 59.6436 28.1056 59.417 28.3852 59.417H30.4532C30.7328 59.417 30.9595 59.6436 30.9595 59.9232V61.302C30.9595 61.5816 30.7328 61.8082 30.4532 61.8082H28.3852C28.1056 61.8082 27.8789 61.5816 27.8789 61.302V59.9232ZM28.8914 60.4295V60.7957H29.947V60.4295H28.8914Z" fill="#2C2C2C"/>
<path fill-rule="evenodd" clip-rule="evenodd" d="M32.9336 59.9232C32.9336 59.6436 33.1602 59.417 33.4398 59.417H35.5079C35.7875 59.417 36.0142 59.6436 36.0142 59.9232V61.302C36.0142 61.5816 35.7875 61.8082 35.5079 61.8082H33.4398C33.1602 61.8082 32.9336 61.5816 32.9336 61.302V59.9232ZM33.9461 60.4295V60.7957H35.0017V60.4295H33.9461Z" fill="#2C2C2C"/>
<path fill-rule="evenodd" clip-rule="evenodd" d="M37.9922 59.9232C37.9922 59.6436 38.2188 59.417 38.4984 59.417H40.5665C40.8461 59.417 41.0728 59.6436 41.0728 59.9232V61.302C41.0728 61.5816 40.8461 61.8082 40.5665 61.8082H38.4984C38.2188 61.8082 37.9922 61.5816 37.9922 61.302V59.9232ZM39.0047 60.4295V60.7957H40.0603V60.4295H39.0047Z" fill="#2C2C2C"/>
<path fill-rule="evenodd" clip-rule="evenodd" d="M43.0469 59.9232C43.0469 59.6436 43.2735 59.417 43.5531 59.417H45.6212C45.9008 59.417 46.1275 59.6436 46.1275 59.9232V61.302C46.1275 61.5816 45.9008 61.8082 45.6212 61.8082H43.5531C43.2735 61.8082 43.0469 61.5816 43.0469 61.302V59.9232ZM44.0594 60.4295V60.7957H45.115V60.4295H44.0594Z" fill="#2C2C2C"/>
<path fill-rule="evenodd" clip-rule="evenodd" d="M48.1016 59.9232C48.1016 59.6436 48.3282 59.417 48.6078 59.417H50.6759C50.9555 59.417 51.1821 59.6436 51.1821 59.9232V61.302C51.1821 61.5816 50.9555 61.8082 50.6759 61.8082H48.6078C48.3282 61.8082 48.1016 61.5816 48.1016 61.302V59.9232ZM49.1141 60.4295V60.7957H50.1696V60.4295H49.1141Z" fill="#2C2C2C"/>
<path fill-rule="evenodd" clip-rule="evenodd" d="M53.1562 59.9232C53.1562 59.6436 53.3829 59.417 53.6625 59.417H55.7306C56.0102 59.417 56.2368 59.6436 56.2368 59.9232V61.302C56.2368 61.5816 56.0102 61.8082 55.7306 61.8082H53.6625C53.3829 61.8082 53.1562 61.5816 53.1562 61.302V59.9232ZM54.1687 60.4295V60.7957H55.2243V60.4295H54.1687Z" fill="#2C2C2C"/>
<path fill-rule="evenodd" clip-rule="evenodd" d="M58.2109 59.9232C58.2109 59.6436 58.4376 59.417 58.7172 59.417H60.7853C61.0649 59.417 61.2915 59.6436 61.2915 59.9232V61.302C61.2915 61.5816 61.0649 61.8082 60.7853 61.8082H58.7172C58.4376 61.8082 58.2109 61.5816 58.2109 61.302V59.9232ZM59.2234 60.4295V60.7957H60.279V60.4295H59.2234Z" fill="#2C2C2C"/>
<path fill-rule="evenodd" clip-rule="evenodd" d="M63.2656 59.9232C63.2656 59.6436 63.4923 59.417 63.7719 59.417H65.84C66.1196 59.417 66.3462 59.6436 66.3462 59.9232V61.302C66.3462 61.5816 66.1196 61.8082 65.84 61.8082H63.7719C63.4923 61.8082 63.2656 61.5816 63.2656 61.302V59.9232ZM64.2781 60.4295V60.7957H65.3337V60.4295H64.2781Z" fill="#2C2C2C"/>
<path fill-rule="evenodd" clip-rule="evenodd" d="M20.1797 56.2467C20.1797 55.9671 20.4063 55.7405 20.6859 55.7405H22.754C23.0336 55.7405 23.2603 55.9671 23.2603 56.2467V57.6255C23.2603 57.905 23.0336 58.1317 22.754 58.1317H20.6859C20.4063 58.1317 20.1797 57.905 20.1797 57.6255V56.2467ZM21.1922 56.753V57.1192H22.2478V56.753H21.1922Z" fill="#2C2C2C"/>
<path fill-rule="evenodd" clip-rule="evenodd" d="M25.2344 56.2467C25.2344 55.9671 25.461 55.7405 25.7406 55.7405H27.8087C28.0883 55.7405 28.315 55.9671 28.315 56.2467V57.6255C28.315 57.905 28.0883 58.1317 27.8087 58.1317H25.7406C25.461 58.1317 25.2344 57.905 25.2344 57.6255V56.2467ZM26.2469 56.753V57.1192H27.3025V56.753H26.2469Z" fill="#2C2C2C"/>
<path fill-rule="evenodd" clip-rule="evenodd" d="M30.2891 56.2467C30.2891 55.9671 30.5157 55.7405 30.7953 55.7405H32.8634C33.143 55.7405 33.3696 55.9671 33.3696 56.2467V57.6255C33.3696 57.905 33.143 58.1317 32.8634 58.1317H30.7953C30.5157 58.1317 30.2891 57.905 30.2891 57.6255V56.2467ZM31.3016 56.753V57.1192H32.3571V56.753H31.3016Z" fill="#2C2C2C"/>
<path fill-rule="evenodd" clip-rule="evenodd" d="M35.3438 56.2467C35.3438 55.9671 35.5704 55.7405 35.85 55.7405H37.9181C38.1977 55.7405 38.4243 55.9671 38.4243 56.2467V57.6255C38.4243 57.905 38.1977 58.1317 37.9181 58.1317H35.85C35.5704 58.1317 35.3438 57.905 35.3438 57.6255V56.2467ZM36.3563 56.753V57.1192H37.4118V56.753H36.3563Z" fill="#2C2C2C"/>
<path fill-rule="evenodd" clip-rule="evenodd" d="M40.4023 56.2467C40.4023 55.9671 40.629 55.7405 40.9086 55.7405H42.9767C43.2563 55.7405 43.4829 55.9671 43.4829 56.2467V57.6255C43.4829 57.905 43.2563 58.1317 42.9767 58.1317H40.9086C40.629 58.1317 40.4023 57.905 40.4023 57.6255V56.2467ZM41.4148 56.753V57.1192H42.4704V56.753H41.4148Z" fill="#2C2C2C"/>
<path fill-rule="evenodd" clip-rule="evenodd" d="M45.457 56.2467C45.457 55.9671 45.6837 55.7405 45.9633 55.7405H48.0314C48.311 55.7405 48.5376 55.9671 48.5376 56.2467V57.6255C48.5376 57.905 48.311 58.1317 48.0314 58.1317H45.9633C45.6837 58.1317 45.457 57.905 45.457 57.6255V56.2467ZM46.4695 56.753V57.1192H47.5251V56.753H46.4695Z" fill="#2C2C2C"/>
<path fill-rule="evenodd" clip-rule="evenodd" d="M50.5117 56.2467C50.5117 55.9671 50.7384 55.7405 51.018 55.7405H53.0861C53.3656 55.7405 53.5923 55.9671 53.5923 56.2467V57.6255C53.5923 57.905 53.3656 58.1317 53.0861 58.1317H51.018C50.7384 58.1317 50.5117 57.905 50.5117 57.6255V56.2467ZM51.5242 56.753V57.1192H52.5798V56.753H51.5242Z" fill="#2C2C2C"/>
<path fill-rule="evenodd" clip-rule="evenodd" d="M55.5664 56.2467C55.5664 55.9671 55.7931 55.7405 56.0727 55.7405H58.1407C58.4203 55.7405 58.647 55.9671 58.647 56.2467V57.6255C58.647 57.905 58.4203 58.1317 58.1407 58.1317H56.0727C55.7931 58.1317 55.5664 57.905 55.5664 57.6255V56.2467ZM56.5789 56.753V57.1192H57.6345V56.753H56.5789Z" fill="#2C2C2C"/>
<path fill-rule="evenodd" clip-rule="evenodd" d="M60.6211 56.2467C60.6211 55.9671 60.8477 55.7405 61.1273 55.7405H63.1954C63.475 55.7405 63.7017 55.9671 63.7017 56.2467V57.6255C63.7017 57.905 63.475 58.1317 63.1954 58.1317H61.1273C60.8477 58.1317 60.6211 57.905 60.6211 57.6255V56.2467ZM61.6336 56.753V57.1192H62.6892V56.753H61.6336Z" fill="#2C2C2C"/>
<path fill-rule="evenodd" clip-rule="evenodd" d="M26.4962 27.204C26.7042 27.0172 27.0243 27.0345 27.2111 27.2425L36.8047 37.9276C36.9915 38.1357 36.9743 38.4557 36.7662 38.6425C36.5582 38.8293 36.2381 38.8121 36.0513 38.604L26.4577 27.9189C26.2709 27.7109 26.2881 27.3908 26.4962 27.204Z" fill="#2C2C2C"/>
<path fill-rule="evenodd" clip-rule="evenodd" d="M41.8608 17.7247C41.9904 17.706 42.122 17.706 42.2516 17.7247C42.3994 17.746 42.5384 17.7981 42.6851 17.8532C42.6959 17.8572 42.7067 17.8613 42.7176 17.8653L47.3378 19.5926C47.3668 19.6035 47.3953 19.6141 47.4234 19.6246C47.9851 19.8342 48.3911 19.9857 48.7 20.2571C48.9717 20.4958 49.1812 20.7971 49.3101 21.1349C49.4567 21.519 49.4565 21.9519 49.4561 22.5495C49.4561 22.5795 49.4561 22.61 49.4561 22.6409V26.7493C49.4561 29.0468 48.2015 30.9878 46.7979 32.4456C45.3886 33.9093 43.7707 34.9475 42.9122 35.4468C42.9023 35.4526 42.8925 35.4583 42.8826 35.4641C42.7183 35.5599 42.5579 35.6535 42.3427 35.6995C42.1685 35.7368 41.9439 35.7368 41.7697 35.6995C41.5545 35.6535 41.3941 35.5599 41.2297 35.4641C41.2199 35.4583 41.2101 35.4526 41.2002 35.4468C40.3416 34.9475 38.7238 33.9093 37.3145 32.4456C35.9109 30.9878 34.6563 29.0468 34.6563 26.7493V22.6409C34.6563 22.61 34.6563 22.5795 34.6563 22.5495C34.6559 21.9519 34.6557 21.519 34.8023 21.1349C34.9312 20.7971 35.1407 20.4958 35.4124 20.2571C35.7212 19.9857 36.1273 19.8342 36.6889 19.6246C36.7171 19.6141 36.7456 19.6035 36.7745 19.5926L41.3948 17.8653C41.4057 17.8613 41.4165 17.8572 41.4272 17.8532C41.574 17.7981 41.713 17.746 41.8608 17.7247ZM42.1072 18.7269C42.0734 18.722 42.039 18.722 42.0051 18.7269C41.9795 18.7305 41.9488 18.7391 41.7494 18.8137L37.1291 20.541C36.4452 20.7967 36.2317 20.885 36.0807 21.0177C35.9324 21.148 35.8184 21.3121 35.7482 21.4959C35.6768 21.6829 35.6688 21.9125 35.6688 22.6409V26.7493C35.6688 28.6686 36.721 30.3693 38.0438 31.7433C39.361 33.1113 40.8892 34.0946 41.7093 34.5716C41.9159 34.6918 41.9401 34.7006 41.9813 34.7094C42.016 34.7168 42.0963 34.7168 42.131 34.7094C42.1722 34.7006 42.1964 34.6918 42.4031 34.5716C43.2232 34.0946 44.7514 33.1113 46.0685 31.7433C47.3914 30.3693 48.4436 28.6686 48.4436 26.7493V22.6409C48.4436 21.9125 48.4355 21.6829 48.3642 21.4959C48.294 21.3121 48.18 21.148 48.0317 21.0177C47.8807 20.885 47.6672 20.7967 46.9833 20.541L42.363 18.8137C42.1636 18.7391 42.1329 18.7305 42.1072 18.7269Z" fill="#2C2C2C"/>
</svg>
