<svg width="84" height="84" viewBox="0 0 84 84" fill="none" xmlns="http://www.w3.org/2000/svg">
<rect width="84" height="84" rx="42" fill="#E9E3DC"/>
<path fill-rule="evenodd" clip-rule="evenodd" d="M33.7839 46.8721C32.1282 46.8721 30.7859 48.2144 30.7859 49.8701C30.7859 51.5259 32.1282 52.8681 33.7839 52.8681C35.4397 52.8681 36.7819 51.5259 36.7819 49.8701C36.7819 48.2144 35.4397 46.8721 33.7839 46.8721ZM29.7734 49.8701C29.7734 47.6552 31.569 45.8596 33.7839 45.8596C35.9989 45.8596 37.7944 47.6552 37.7944 49.8701C37.7944 52.0851 35.9989 53.8806 33.7839 53.8806C31.569 53.8806 29.7734 52.0851 29.7734 49.8701Z" fill="#2C2C2C"/>
<path fill-rule="evenodd" clip-rule="evenodd" d="M52.2274 43.5403C50.413 43.5403 48.9422 45.0112 48.9422 46.8256C48.9422 48.64 50.413 50.1108 52.2274 50.1108C54.0418 50.1108 55.5127 48.64 55.5127 46.8256C55.5127 45.0112 54.0418 43.5403 52.2274 43.5403ZM47.9297 46.8256C47.9297 44.452 49.8539 42.5278 52.2274 42.5278C54.601 42.5278 56.5252 44.452 56.5252 46.8256C56.5252 49.1991 54.601 51.1233 52.2274 51.1233C49.8539 51.1233 47.9297 49.1991 47.9297 46.8256Z" fill="#2C2C2C"/>
<path fill-rule="evenodd" clip-rule="evenodd" d="M51.5948 34.1189C50.0025 34.1189 48.7117 35.4098 48.7117 37.0021C48.7117 38.5944 50.0025 39.8852 51.5948 39.8852C53.1871 39.8852 54.4779 38.5944 54.4779 37.0021C54.4779 35.4098 53.1871 34.1189 51.5948 34.1189ZM47.6992 37.0021C47.6992 34.8506 49.4433 33.1064 51.5948 33.1064C53.7463 33.1064 55.4904 34.8506 55.4904 37.0021C55.4904 39.1535 53.7463 40.8977 51.5948 40.8977C49.4433 40.8977 47.6992 39.1535 47.6992 37.0021Z" fill="#2C2C2C"/>
<path fill-rule="evenodd" clip-rule="evenodd" d="M35.8767 21.3575C41.2286 19.7698 46.9879 20.3227 51.94 22.8997C56.892 25.4766 60.6497 29.8762 62.4204 35.1703C64.1911 40.4645 63.8365 46.2394 61.4313 51.2772C59.026 56.3149 54.7583 60.2215 49.5281 62.1732C44.2979 64.1248 38.5142 63.9688 33.3968 61.7382C28.2794 59.5075 24.2283 55.3766 22.0981 50.2166C19.9678 45.0566 19.9249 39.2709 21.9784 34.0798C22.0812 33.8198 22.3753 33.6924 22.6353 33.7953C22.8953 33.8981 23.0227 34.1923 22.9199 34.4523C20.963 39.3992 21.0039 44.9128 23.034 49.8302C25.0641 54.7476 28.9246 58.6843 33.8014 60.81C38.6781 62.9358 44.1899 63.0844 49.1741 61.2246C54.1584 59.3647 58.2254 55.6417 60.5176 50.8409C62.8097 46.0401 63.1477 40.5367 61.4602 35.4915C59.7728 30.4463 56.1918 26.2536 51.4726 23.7979C46.7534 21.3421 41.2649 20.8151 36.1646 22.3282C31.0644 23.8412 26.7512 27.276 24.1346 31.908C23.9971 32.1514 23.6883 32.2373 23.4449 32.0998C23.2014 31.9623 23.1155 31.6534 23.2531 31.41C25.9987 26.5494 30.5248 22.9452 35.8767 21.3575Z" fill="#2C2C2C"/>
<path fill-rule="evenodd" clip-rule="evenodd" d="M42 17.3445C28.3832 17.3445 17.3445 28.3832 17.3445 42C17.3445 55.6168 28.3832 66.6554 42 66.6554C55.6168 66.6554 66.6554 55.6168 66.6554 42C66.6554 28.3832 55.6168 17.3445 42 17.3445ZM16.332 42C16.332 27.824 27.824 16.332 42 16.332C56.176 16.332 67.6679 27.824 67.6679 42C67.6679 56.176 56.176 67.6679 42 67.6679C27.824 67.6679 16.332 56.176 16.332 42Z" fill="#2C2C2C"/>
<path fill-rule="evenodd" clip-rule="evenodd" d="M39.2424 29.753C37.3011 29.753 35.7273 31.3267 35.7273 33.268C35.7273 35.2093 37.3011 36.783 39.2424 36.783C41.1837 36.783 42.7574 35.2093 42.7574 33.268C42.7574 31.3267 41.1837 29.753 39.2424 29.753ZM34.7148 33.268C34.7148 30.7675 36.7419 28.7405 39.2424 28.7405C41.7429 28.7405 43.7699 30.7675 43.7699 33.268C43.7699 35.7685 41.7429 37.7955 39.2424 37.7955C36.7419 37.7955 34.7148 35.7685 34.7148 33.268Z" fill="#2C2C2C"/>
<path fill-rule="evenodd" clip-rule="evenodd" d="M25.8008 38.625C25.8008 38.2522 26.103 37.95 26.4758 37.95C26.8486 37.95 27.1508 38.2522 27.1508 38.625C27.1508 38.9977 26.8486 39.2999 26.4758 39.2999C26.103 39.2999 25.8008 38.9977 25.8008 38.625Z" fill="#2C2C2C"/>
<path fill-rule="evenodd" clip-rule="evenodd" d="M32.5508 39.975C32.5508 39.6023 32.853 39.3 33.2258 39.3C33.5986 39.3 33.9008 39.6023 33.9008 39.975C33.9008 40.3478 33.5986 40.65 33.2258 40.65C32.853 40.65 32.5508 40.3478 32.5508 39.975Z" fill="#2C2C2C"/>
<path fill-rule="evenodd" clip-rule="evenodd" d="M29.8516 44.6999C29.8516 44.3271 30.1538 44.0249 30.5266 44.0249C30.8994 44.0249 31.2016 44.3271 31.2016 44.6999C31.2016 45.0727 30.8994 45.3749 30.5266 45.3749C30.1538 45.3749 29.8516 45.0727 29.8516 44.6999Z" fill="#2C2C2C"/>
<path fill-rule="evenodd" clip-rule="evenodd" d="M30.5234 30.1875C30.5234 29.6284 30.9767 29.175 31.5359 29.175C32.0951 29.175 32.5484 29.6284 32.5484 30.1875C32.5484 30.7467 32.0951 31.2 31.5359 31.2C30.9767 31.2 30.5234 30.7467 30.5234 30.1875Z" fill="#2C2C2C"/>
<path fill-rule="evenodd" clip-rule="evenodd" d="M44.0234 27.8249C44.0234 27.4521 44.3256 27.1499 44.6984 27.1499C45.0712 27.1499 45.3734 27.4521 45.3734 27.8249C45.3734 28.1977 45.0712 28.4999 44.6984 28.4999C44.3256 28.4999 44.0234 28.1977 44.0234 27.8249Z" fill="#2C2C2C"/>
<path fill-rule="evenodd" clip-rule="evenodd" d="M46.0508 31.5374C46.0508 30.9782 46.5041 30.5249 47.0633 30.5249C47.6225 30.5249 48.0758 30.9782 48.0758 31.5374C48.0758 32.0966 47.6225 32.5499 47.0633 32.5499C46.5041 32.5499 46.0508 32.0966 46.0508 31.5374Z" fill="#2C2C2C"/>
<path fill-rule="evenodd" clip-rule="evenodd" d="M38.625 41.6624C38.625 41.1032 39.0783 40.6499 39.6375 40.6499C40.1967 40.6499 40.65 41.1032 40.65 41.6624C40.65 42.2216 40.1967 42.6749 39.6375 42.6749C39.0783 42.6749 38.625 42.2216 38.625 41.6624Z" fill="#2C2C2C"/>
<path fill-rule="evenodd" clip-rule="evenodd" d="M42 43.35C42 42.9773 42.3022 42.675 42.675 42.675C43.0478 42.675 43.35 42.9773 43.35 43.35C43.35 43.7228 43.0478 44.025 42.675 44.025C42.3022 44.025 42 43.7228 42 43.35Z" fill="#2C2C2C"/>
<path fill-rule="evenodd" clip-rule="evenodd" d="M42 50.7751C42 50.4023 42.3022 50.1001 42.675 50.1001C43.0478 50.1001 43.35 50.4023 43.35 50.7751C43.35 51.1479 43.0478 51.4501 42.675 51.4501C42.3022 51.4501 42 51.1479 42 50.7751Z" fill="#2C2C2C"/>
<path fill-rule="evenodd" clip-rule="evenodd" d="M42 54.8249C42 54.4521 42.3022 54.1499 42.675 54.1499C43.0478 54.1499 43.35 54.4521 43.35 54.8249C43.35 55.1977 43.0478 55.4999 42.675 55.4999C42.3022 55.4999 42 55.1977 42 54.8249Z" fill="#2C2C2C"/>
<path fill-rule="evenodd" clip-rule="evenodd" d="M35.9258 56.175C35.9258 55.8022 36.228 55.5 36.6008 55.5C36.9736 55.5 37.2758 55.8022 37.2758 56.175C37.2758 56.5478 36.9736 56.85 36.6008 56.85C36.228 56.85 35.9258 56.5478 35.9258 56.175Z" fill="#2C2C2C"/>
<path fill-rule="evenodd" clip-rule="evenodd" d="M46.7266 57.5251C46.7266 57.1523 47.0288 56.8501 47.4016 56.8501C47.7744 56.8501 48.0766 57.1523 48.0766 57.5251C48.0766 57.8979 47.7744 58.2001 47.4016 58.2001C47.0288 58.2001 46.7266 57.8979 46.7266 57.5251Z" fill="#2C2C2C"/>
<path fill-rule="evenodd" clip-rule="evenodd" d="M49.4258 53.8125C49.4258 53.2534 49.8791 52.8 50.4383 52.8C50.9975 52.8 51.4508 53.2534 51.4508 53.8125C51.4508 54.3717 50.9975 54.8251 50.4383 54.8251C49.8791 54.8251 49.4258 54.3717 49.4258 53.8125Z" fill="#2C2C2C"/>
<path fill-rule="evenodd" clip-rule="evenodd" d="M56.8516 40.6501C56.8516 40.2773 57.1538 39.9751 57.5266 39.9751C57.8994 39.9751 58.2016 40.2773 58.2016 40.6501C58.2016 41.0229 57.8994 41.3251 57.5266 41.3251C57.1538 41.3251 56.8516 41.0229 56.8516 40.6501Z" fill="#2C2C2C"/>
</svg>
