<svg width="84" height="84" viewBox="0 0 84 84" fill="none" xmlns="http://www.w3.org/2000/svg">
<rect width="84" height="84" rx="42" fill="#E9E3DC"/>
<path fill-rule="evenodd" clip-rule="evenodd" d="M60.5068 34.6517L65.8386 34.6517C66.1181 34.6517 66.3448 34.425 66.3448 34.1454C66.3448 33.8658 66.1181 33.6392 65.8386 33.6392L60.2088 33.6392C60.0314 33.6392 59.867 33.732 59.7754 33.8838C58.9036 35.3279 58.9296 37.0223 59.2933 38.5138C59.6355 39.9175 60.2913 41.2074 60.8891 42.0753C60.8007 42.6442 60.5064 43.4836 59.9469 44.3139C59.3317 45.2269 58.4174 46.0973 57.1548 46.5827C53.9892 47.7998 51.0386 46.1184 50.3619 43.1512C50.0753 41.8947 50.2838 40.2235 50.7249 38.5672C51.1622 36.9251 51.8081 35.37 52.3273 34.3806C52.4096 34.2237 52.4039 34.0351 52.3122 33.8835C52.2205 33.7318 52.0562 33.6392 51.879 33.6392L42.869 33.6392C42.6772 33.6392 42.5018 33.7476 42.4161 33.9192C41.0883 36.5769 41.43 38.6242 42.1074 40.2847C42.3364 40.846 42.6123 41.3805 42.8593 41.8591C42.9633 42.0606 43.0622 42.2523 43.1504 42.4319C43.4644 43.0717 43.6514 43.5735 43.6514 44.025C43.6514 46.4916 42.883 48.3551 41.7249 49.6627C40.563 50.9744 38.9834 51.7554 37.3164 52.0079C33.9663 52.5155 30.3701 50.8887 29.1742 47.3012C28.2904 44.6499 28.6903 41.4378 29.346 38.8329C29.6713 37.5405 30.0541 36.4183 30.3556 35.6195C30.5062 35.2204 30.6362 34.9029 30.7281 34.6861C30.774 34.5778 30.8104 34.4946 30.8351 34.4391C30.8474 34.4114 30.8568 34.3906 30.8629 34.377L30.8698 34.362L30.8713 34.3587L30.8716 34.3581L30.8716 34.358L30.8716 34.358C30.8716 34.358 30.8716 34.358 30.8716 34.358C30.9441 34.2012 30.9317 34.0183 30.8387 33.8728C30.7457 33.7273 30.5849 33.6392 30.4121 33.6392L17.5258 33.6392C17.2462 33.6392 17.0195 33.8658 17.0195 34.1454C17.0195 34.425 17.2462 34.6517 17.5258 34.6517L29.6466 34.6517C29.5757 34.8271 29.4952 35.0317 29.4083 35.262C29.0968 36.0875 28.701 37.2473 28.3641 38.5858C27.6953 41.2428 27.2361 44.6887 28.2137 47.6214C29.5952 51.7658 33.7307 53.5753 37.4681 53.009C39.3448 52.7247 41.1479 51.8411 42.4828 50.334C43.8214 48.8227 44.6639 46.7129 44.6639 44.025C44.6639 43.3198 44.3773 42.6336 44.0593 41.9857C43.9536 41.7705 43.8444 41.559 43.7346 41.3465C43.4967 40.8859 43.2564 40.4207 43.0449 39.9023C42.477 38.5101 42.1755 36.8551 43.1876 34.6517L51.0665 34.6517C50.602 35.6565 50.1069 36.9532 49.7465 38.3067C49.2931 40.0093 49.0324 41.8754 49.3748 43.3763C50.1917 46.9581 53.7901 48.9611 57.5181 47.5278C59.0129 46.9531 60.0805 45.9277 60.7866 44.8797C61.4872 43.8398 61.8535 42.7458 61.9195 41.9864C61.93 41.865 61.8965 41.7438 61.8249 41.6452C61.2648 40.8732 60.6065 39.6257 60.2769 38.2739C59.97 37.015 59.9623 35.7298 60.5068 34.6517Z" fill="#2C2C2C"/>
<path fill-rule="evenodd" clip-rule="evenodd" d="M45.8609 20.6919C45.9994 20.4956 45.9808 20.229 45.8165 20.0537C45.6521 19.8785 45.3871 19.8429 45.1823 19.9686L45.4472 20.4001C45.1823 19.9686 45.1826 19.9685 45.1823 19.9686L45.1784 19.9711L45.1691 19.9768L45.1349 19.9982C45.1054 20.0169 45.0623 20.0443 45.0067 20.0804C44.8954 20.1527 44.7337 20.2597 44.5288 20.4008C44.1191 20.683 43.5364 21.1018 42.8383 21.6522C41.4428 22.7525 39.5826 24.3814 37.7215 26.4982C34.0033 30.7274 30.25 36.9413 30.25 44.7982C30.25 48.1691 32.9827 50.9018 36.3536 50.9018C39.7245 50.9018 42.4571 48.1691 42.4571 44.7982C42.4571 44.6949 42.4255 44.594 42.3665 44.5092C39.1044 39.8198 39.9111 33.9277 41.6215 29.0955C42.4718 26.6932 43.5334 24.589 44.3836 23.0841C44.8084 22.3323 45.1795 21.7317 45.4436 21.3202C45.5756 21.1144 45.6809 20.9561 45.7527 20.8498C45.7885 20.7966 45.8161 20.7565 45.8344 20.73L45.8548 20.7006L45.8596 20.6937L45.8609 20.6919C45.8608 20.692 45.8609 20.6919 45.8609 20.6919ZM43.6748 22.2833C43.6062 22.3365 43.5363 22.3912 43.4652 22.4473C42.1061 23.5189 40.2936 25.1062 38.4819 27.1668C34.8547 31.2923 31.2625 37.2775 31.2625 44.7982C31.2625 47.61 33.5418 49.8893 36.3536 49.8893C39.1139 49.8893 41.3611 47.6926 41.4423 44.952C38.0013 39.8719 38.9415 33.6326 40.667 28.7576C41.5424 26.2845 42.6323 24.1255 43.5021 22.586C43.5607 22.4823 43.6183 22.3814 43.6748 22.2833Z" fill="#2C2C2C"/>
<path fill-rule="evenodd" clip-rule="evenodd" d="M61.14 27.7006C61.2786 27.5044 61.2601 27.2378 61.0959 27.0625C60.9316 26.8871 60.6666 26.8514 60.4618 26.9771L60.7264 27.4086C60.4618 26.9771 60.462 26.9769 60.4618 26.9771L60.4589 26.9788L60.4529 26.9826L60.4315 26.996C60.4132 27.0075 60.3869 27.0242 60.353 27.0462C60.2854 27.09 60.1877 27.1546 60.0643 27.2395C59.8175 27.4093 59.4676 27.6605 59.0489 27.9903C58.212 28.6494 57.0967 29.6249 55.9805 30.8931C53.752 33.425 51.4883 37.1608 51.4883 41.894C51.4883 44.0094 53.205 45.7234 55.3214 45.7234C57.4379 45.7234 59.1546 44.0094 59.1546 41.894C59.1546 41.7905 59.1229 41.6895 59.0637 41.6046C57.1837 38.905 57.6356 35.4913 58.6461 32.6399C59.1463 31.2281 59.7716 29.9899 60.2729 29.1035C60.5233 28.661 60.7418 28.3077 60.897 28.0662C60.9745 27.9455 61.0362 27.8528 61.078 27.7909C61.0989 27.76 61.1149 27.7368 61.1254 27.7216L61.1369 27.705L61.1395 27.7013L61.14 27.7006C61.14 27.7006 61.14 27.7006 61.14 27.7006ZM58.9856 29.3521C58.3075 29.9322 57.5238 30.6722 56.7405 31.5621C54.6031 33.9904 52.5008 37.4973 52.5008 41.894C52.5008 43.4492 53.7631 44.7109 55.3214 44.7109C56.8293 44.7109 58.06 43.5296 58.1381 42.0441C56.0812 38.955 56.6662 35.1958 57.6917 32.3017C58.0875 31.1849 58.5559 30.1758 58.9856 29.3521Z" fill="#2C2C2C"/>
<path fill-rule="evenodd" clip-rule="evenodd" d="M36.7316 46.6675C36.7316 46.9471 36.5049 47.1737 36.2253 47.1737C35.5279 47.1737 34.6999 46.8123 34.1069 46.196C33.494 45.5591 33.1056 44.6207 33.3697 43.4813C33.4329 43.2089 33.7048 43.0393 33.9772 43.1024C34.2496 43.1656 34.4192 43.4375 34.3561 43.7099C34.1791 44.4731 34.4292 45.0707 34.8365 45.494C35.2637 45.938 35.8374 46.1612 36.2253 46.1612C36.5049 46.1612 36.7316 46.3879 36.7316 46.6675Z" fill="#2C2C2C"/>
<path fill-rule="evenodd" clip-rule="evenodd" d="M55.7455 43.0037C55.7455 43.2833 55.5188 43.5099 55.2392 43.5099C54.7623 43.5099 54.219 43.2673 53.8333 42.8664C53.4277 42.4449 53.1689 41.8185 53.3435 41.0656C53.4066 40.7932 53.6786 40.6236 53.951 40.6867C54.2233 40.7499 54.3929 41.0219 54.3298 41.2942C54.2425 41.6709 54.3628 41.9565 54.5629 42.1644C54.7828 42.393 55.0718 42.4974 55.2392 42.4974C55.5188 42.4974 55.7455 42.7241 55.7455 43.0037Z" fill="#2C2C2C"/>
<path fill-rule="evenodd" clip-rule="evenodd" d="M19.1388 50.4627C19.0015 50.5771 18.8914 50.7988 18.8914 51.4161C18.8914 51.6957 18.6648 51.9223 18.3852 51.9223C18.1056 51.9223 17.8789 51.6957 17.8789 51.4161C17.8789 50.7448 17.9836 50.1074 18.4906 49.6848C18.9645 49.2899 19.6713 49.1917 20.5329 49.1917C21.0274 49.1917 21.4272 49.2849 21.7544 49.444C22.0822 49.6035 22.3108 49.8165 22.4789 50.0181C22.5492 50.1025 22.6207 50.2022 22.6806 50.2893C22.7405 50.2022 22.812 50.1025 22.8823 50.0181C23.0504 49.8165 23.279 49.6035 23.6068 49.444C23.934 49.2849 24.3338 49.1917 24.8283 49.1917C25.709 49.1917 26.4102 49.3211 26.8795 49.7308C27.3722 50.1611 27.4823 50.7831 27.4823 51.4161C27.4823 51.6957 27.2557 51.9223 26.9761 51.9223C26.6965 51.9223 26.4698 51.6957 26.4698 51.4161C26.4698 50.8629 26.3651 50.6258 26.2136 50.4935C26.0385 50.3407 25.6659 50.2042 24.8283 50.2042C24.4638 50.2042 24.2193 50.272 24.0498 50.3545C23.881 50.4366 23.7606 50.5458 23.6601 50.6663C23.5849 50.7566 23.5406 50.8238 23.489 50.9022C23.4549 50.9538 23.4177 51.0103 23.3662 51.0816L23.3654 51.0826C23.2863 51.1922 23.0692 51.4928 22.6806 51.4928C22.292 51.4928 22.0749 51.1922 21.9958 51.0826L21.995 51.0816C21.9436 51.0103 21.9063 50.9538 21.8723 50.9022C21.8206 50.8238 21.7763 50.7566 21.7011 50.6663C21.6007 50.5458 21.4803 50.4366 21.3115 50.3545C21.1419 50.272 20.8974 50.2042 20.5329 50.2042C19.6763 50.2042 19.3092 50.3207 19.1388 50.4627ZM22.4988 50.5457C22.4989 50.5454 22.5012 50.5429 22.5058 50.539C22.5011 50.544 22.4988 50.546 22.4988 50.5457ZM22.8555 50.539C22.86 50.5429 22.8624 50.5454 22.8624 50.5457C22.8624 50.546 22.8601 50.544 22.8555 50.539Z" fill="#2C2C2C"/>
<path fill-rule="evenodd" clip-rule="evenodd" d="M46.631 50.4627C46.4937 50.5771 46.3836 50.7988 46.3836 51.4161C46.3836 51.6957 46.1569 51.9223 45.8773 51.9223C45.5977 51.9223 45.3711 51.6957 45.3711 51.4161C45.3711 50.7448 45.4758 50.1074 45.9828 49.6848C46.4567 49.2899 47.1635 49.1917 48.0251 49.1917C48.5196 49.1917 48.9194 49.2849 49.2466 49.444C49.5744 49.6035 49.803 49.8165 49.9711 50.0181C50.0414 50.1025 50.1129 50.2022 50.1728 50.2893C50.2327 50.2022 50.3042 50.1025 50.3745 50.0181C50.5426 49.8165 50.7712 49.6035 51.099 49.444C51.4262 49.2849 51.826 49.1917 52.3205 49.1917C53.2012 49.1917 53.9024 49.3211 54.3717 49.7308C54.8644 50.1611 54.9745 50.7831 54.9745 51.4161C54.9745 51.6957 54.7478 51.9223 54.4683 51.9223C54.1887 51.9223 53.962 51.6957 53.962 51.4161C53.962 50.8629 53.8573 50.6258 53.7057 50.4935C53.5307 50.3407 53.1581 50.2042 52.3205 50.2042C51.956 50.2042 51.7115 50.272 51.542 50.3545C51.3731 50.4366 51.2528 50.5458 51.1523 50.6663C51.0771 50.7566 51.0328 50.8238 50.9811 50.9022C50.9471 50.9538 50.9098 51.0103 50.8584 51.0816L50.8576 51.0826C50.7785 51.1922 50.5614 51.4928 50.1728 51.4928C49.7842 51.4928 49.5671 51.1922 49.488 51.0826L49.4872 51.0816C49.4358 51.0103 49.3985 50.9538 49.3645 50.9022C49.3128 50.8238 49.2685 50.7566 49.1933 50.6663C49.0928 50.5458 48.9724 50.4366 48.8036 50.3545C48.6341 50.272 48.3896 50.2042 48.0251 50.2042C47.1685 50.2042 46.8014 50.3207 46.631 50.4627ZM49.991 50.5457C49.991 50.5454 49.9934 50.5429 49.998 50.539C49.9933 50.544 49.991 50.546 49.991 50.5457ZM50.3476 50.539C50.3522 50.5429 50.3545 50.5454 50.3546 50.5457C50.3546 50.546 50.3523 50.544 50.3476 50.539Z" fill="#2C2C2C"/>
<path fill-rule="evenodd" clip-rule="evenodd" d="M67.0898 63.6908C67.0898 63.9704 66.8632 64.197 66.5836 64.197L57.8517 64.197C57.5721 64.197 57.3454 63.9704 57.3454 63.6908C57.3454 63.4112 57.5721 63.1845 57.8517 63.1845L66.5836 63.1845C66.8632 63.1845 67.0898 63.4112 67.0898 63.6908Z" fill="#2C2C2C"/>
<path fill-rule="evenodd" clip-rule="evenodd" d="M55.9453 63.6908C55.9453 63.9704 55.7187 64.197 55.4391 64.197L17.5242 64.197C17.2446 64.197 17.0179 63.9703 17.0179 63.6907C17.0179 63.4111 17.2446 63.1845 17.5242 63.1845L55.4391 63.1845C55.7187 63.1845 55.9453 63.4112 55.9453 63.6908Z" fill="#2C2C2C"/>
<path fill-rule="evenodd" clip-rule="evenodd" d="M66.2891 59.5667C66.2891 60.3472 65.6563 60.98 64.8758 60.98L64.6218 60.98C63.8412 60.98 63.2085 60.3472 63.2085 59.5667C63.2085 58.7861 63.8412 58.1534 64.6218 58.1534L64.8758 58.1534C65.6563 58.1534 66.2891 58.7861 66.2891 59.5667ZM64.8758 59.9675C65.0971 59.9675 65.2766 59.788 65.2766 59.5667C65.2766 59.3453 65.0971 59.1659 64.8758 59.1659L64.6218 59.1659C64.4004 59.1659 64.221 59.3453 64.221 59.5667C64.221 59.788 64.4004 59.9675 64.6218 59.9675L64.8758 59.9675Z" fill="#2C2C2C"/>
<path fill-rule="evenodd" clip-rule="evenodd" d="M61.2344 59.5667C61.2344 60.3472 60.6016 60.98 59.8211 60.98L59.5671 60.98C58.7865 60.98 58.1538 60.3472 58.1538 59.5667C58.1538 58.7861 58.7865 58.1534 59.5671 58.1534L59.8211 58.1534C60.6016 58.1534 61.2344 58.7861 61.2344 59.5667ZM59.8211 59.9675C60.0424 59.9675 60.2219 59.788 60.2219 59.5667C60.2219 59.3453 60.0424 59.1659 59.8211 59.1659L59.5671 59.1659C59.3457 59.1659 59.1663 59.3453 59.1663 59.5667C59.1663 59.788 59.3457 59.9675 59.5671 59.9675L59.8211 59.9675Z" fill="#2C2C2C"/>
<path fill-rule="evenodd" clip-rule="evenodd" d="M56.1797 59.5667C56.1797 60.3472 55.5469 60.98 54.7664 60.98L54.5124 60.98C53.7319 60.98 53.0991 60.3472 53.0991 59.5667C53.0991 58.7861 53.7319 58.1534 54.5124 58.1534L54.7664 58.1534C55.5469 58.1534 56.1797 58.7861 56.1797 59.5667ZM54.7664 59.9675C54.9877 59.9675 55.1672 59.788 55.1672 59.5667C55.1672 59.3453 54.9877 59.1659 54.7664 59.1659L54.5124 59.1659C54.291 59.1659 54.1116 59.3453 54.1116 59.5667C54.1116 59.788 54.291 59.9675 54.5124 59.9675L54.7664 59.9675Z" fill="#2C2C2C"/>
<path fill-rule="evenodd" clip-rule="evenodd" d="M51.125 59.5667C51.125 60.3472 50.4922 60.98 49.7117 60.98L49.4577 60.98C48.6772 60.98 48.0444 60.3472 48.0444 59.5667C48.0444 58.7861 48.6772 58.1534 49.4577 58.1534L49.7117 58.1534C50.4922 58.1534 51.125 58.7861 51.125 59.5667ZM49.7117 59.9675C49.9331 59.9675 50.1125 59.788 50.1125 59.5667C50.1125 59.3453 49.9331 59.1659 49.7117 59.1659L49.4577 59.1659C49.2364 59.1659 49.0569 59.3453 49.0569 59.5667C49.0569 59.788 49.2364 59.9675 49.4577 59.9675L49.7117 59.9675Z" fill="#2C2C2C"/>
<path fill-rule="evenodd" clip-rule="evenodd" d="M46.0664 59.5667C46.0664 60.3472 45.4336 60.98 44.6531 60.98L44.3991 60.98C43.6186 60.98 42.9858 60.3472 42.9858 59.5667C42.9858 58.7861 43.6186 58.1534 44.3991 58.1534L44.6531 58.1534C45.4336 58.1534 46.0664 58.7861 46.0664 59.5667ZM44.6531 59.9675C44.8745 59.9675 45.0539 59.788 45.0539 59.5667C45.0539 59.3453 44.8745 59.1659 44.6531 59.1659L44.3991 59.1659C44.1778 59.1659 43.9983 59.3453 43.9983 59.5667C43.9983 59.788 44.1778 59.9675 44.3991 59.9675L44.6531 59.9675Z" fill="#2C2C2C"/>
<path fill-rule="evenodd" clip-rule="evenodd" d="M41.0117 59.5667C41.0117 60.3472 40.379 60.98 39.5984 60.98L39.3444 60.98C38.5639 60.98 37.9311 60.3472 37.9311 59.5667C37.9311 58.7861 38.5639 58.1534 39.3444 58.1534L39.5984 58.1534C40.379 58.1534 41.0117 58.7861 41.0117 59.5667ZM39.5984 59.9675C39.8198 59.9675 39.9992 59.788 39.9992 59.5667C39.9992 59.3453 39.8198 59.1659 39.5984 59.1659L39.3444 59.1659C39.1231 59.1659 38.9436 59.3453 38.9436 59.5667C38.9436 59.788 39.1231 59.9675 39.3444 59.9675L39.5984 59.9675Z" fill="#2C2C2C"/>
<path fill-rule="evenodd" clip-rule="evenodd" d="M35.957 59.5667C35.957 60.3472 35.3243 60.98 34.5437 60.98L34.2898 60.98C33.5092 60.98 32.8764 60.3472 32.8764 59.5667C32.8764 58.7861 33.5092 58.1534 34.2898 58.1534L34.5437 58.1534C35.3243 58.1534 35.957 58.7861 35.957 59.5667ZM34.5437 59.9675C34.7651 59.9675 34.9445 59.788 34.9445 59.5667C34.9445 59.3453 34.7651 59.1659 34.5437 59.1659L34.2898 59.1659C34.0684 59.1659 33.8889 59.3453 33.8889 59.5667C33.8889 59.788 34.0684 59.9675 34.2898 59.9675L34.5437 59.9675Z" fill="#2C2C2C"/>
<path fill-rule="evenodd" clip-rule="evenodd" d="M30.9023 59.5667C30.9023 60.3472 30.2696 60.98 29.489 60.98L29.2351 60.98C28.4545 60.98 27.8218 60.3472 27.8218 59.5667C27.8218 58.7861 28.4545 58.1534 29.2351 58.1534L29.489 58.1534C30.2696 58.1534 30.9023 58.7861 30.9023 59.5667ZM29.489 59.9675C29.7104 59.9675 29.8898 59.788 29.8898 59.5667C29.8898 59.3453 29.7104 59.1659 29.489 59.1659L29.2351 59.1659C29.0137 59.1659 28.8343 59.3453 28.8343 59.5667C28.8343 59.788 29.0137 59.9675 29.2351 59.9675L29.489 59.9675Z" fill="#2C2C2C"/>
<path fill-rule="evenodd" clip-rule="evenodd" d="M25.8477 59.5667C25.8477 60.3472 25.2149 60.98 24.4344 60.98L24.1804 60.98C23.3998 60.98 22.7671 60.3472 22.7671 59.5667C22.7671 58.7861 23.3998 58.1534 24.1804 58.1534L24.4344 58.1534C25.2149 58.1534 25.8477 58.7861 25.8477 59.5667ZM24.4344 59.9675C24.6557 59.9675 24.8352 59.788 24.8352 59.5667C24.8352 59.3453 24.6557 59.1659 24.4344 59.1659L24.1804 59.1659C23.959 59.1659 23.7796 59.3453 23.7796 59.5667C23.7796 59.788 23.959 59.9675 24.1804 59.9675L24.4344 59.9675Z" fill="#2C2C2C"/>
<path fill-rule="evenodd" clip-rule="evenodd" d="M20.793 59.5667C20.793 60.3472 20.1602 60.98 19.3797 60.98L19.1257 60.98C18.3451 60.98 17.7124 60.3472 17.7124 59.5667C17.7124 58.7861 18.3451 58.1534 19.1257 58.1534L19.3797 58.1534C20.1602 58.1534 20.793 58.7861 20.793 59.5667ZM19.3797 59.9675C19.601 59.9675 19.7805 59.788 19.7805 59.5667C19.7805 59.3453 19.601 59.1659 19.3797 59.1659L19.1257 59.1659C18.9043 59.1659 18.7249 59.3453 18.7249 59.5667C18.7249 59.788 18.9043 59.9675 19.1257 59.9675L19.3797 59.9675Z" fill="#2C2C2C"/>
</svg>
