<svg width="50" height="50" viewBox="0 0 50 50" fill="none" xmlns="http://www.w3.org/2000/svg">
<path d="M25 42.75C17.7969 42.75 11.9375 36.8891 11.9375 29.6875V15.2766L25 8.74691L38.0625 15.2782V29.6875C38.0625 36.8891 32.2016 42.75 25 42.75ZM13.0625 15.9735V29.6875C13.0625 36.2704 18.4172 41.625 25 41.625C31.5828 41.625 36.9375 36.2704 36.9375 29.6875V15.9735L25 10.0032L13.0625 15.9735ZM6.25 14.625C5.93906 14.625 5.6875 14.3735 5.6875 14.0625V10.9375C5.6875 10.6266 5.93906 10.375 6.25 10.375C6.56094 10.375 6.8125 10.6266 6.8125 10.9375V14.0625C6.8125 14.3735 6.56094 14.625 6.25 14.625ZM10.9375 9.93754H7.8125C7.50156 9.93754 7.25 9.68597 7.25 9.37504C7.25 9.0641 7.50156 8.81254 7.8125 8.81254H10.9375C11.2484 8.81254 11.5 9.0641 11.5 9.37504C11.5 9.68597 11.2484 9.93754 10.9375 9.93754ZM4.6875 9.93754H1.5625C1.25156 9.93754 1 9.68597 1 9.37504C1 9.0641 1.25156 8.81254 1.5625 8.81254H4.6875C4.99844 8.81254 5.25 9.0641 5.25 9.37504C5.25 9.68597 4.99844 9.93754 4.6875 9.93754ZM6.25 8.37504C5.93906 8.37504 5.6875 8.12347 5.6875 7.81254V4.68754C5.6875 4.3766 5.93906 4.12504 6.25 4.12504C6.56094 4.12504 6.8125 4.3766 6.8125 4.68754V7.81254C6.8125 8.12347 6.56094 8.37504 6.25 8.37504ZM48.4375 8.37504C48.2938 8.37504 48.1484 8.32035 48.0391 8.21097L46.4766 6.64847C46.2563 6.42816 46.2563 6.07347 46.4766 5.85316C46.6969 5.63285 47.0531 5.63285 47.2734 5.85316L48.8359 7.41566C49.0563 7.63597 49.0563 7.99066 48.8359 8.21097C48.7266 8.32035 48.5812 8.37504 48.4375 8.37504ZM42.1875 8.37504C42.0438 8.37504 41.8984 8.32035 41.7891 8.21097C41.5688 7.99066 41.5688 7.63597 41.7891 7.41566L43.3516 5.85316C43.5719 5.63285 43.9281 5.63285 44.1484 5.85316C44.3688 6.07347 44.3688 6.42816 44.1484 6.64847L42.5859 8.21097C42.4766 8.32035 42.3312 8.37504 42.1875 8.37504ZM46.875 3.68754C46.7313 3.68754 46.5859 3.63285 46.4766 3.52347C46.2563 3.30316 46.2563 2.94847 46.4766 2.72816L48.0391 1.16566C48.2594 0.945349 48.6156 0.945349 48.8359 1.16566C49.0563 1.38597 49.0563 1.74066 48.8359 1.96097L47.2734 3.52347C47.1641 3.63285 47.0187 3.68754 46.875 3.68754ZM43.75 3.68754C43.6063 3.68754 43.4609 3.63285 43.3516 3.52347L41.7891 1.96097C41.5688 1.74066 41.5688 1.38597 41.7891 1.16566C42.0094 0.945349 42.3656 0.945349 42.5859 1.16566L44.1484 2.72816C44.3688 2.94847 44.3688 3.30316 44.1484 3.52347C44.0391 3.63285 43.8937 3.68754 43.75 3.68754ZM42.1875 49C41.8766 49 41.625 48.7485 41.625 48.4375V45.3125C41.625 45.0016 41.8766 44.75 42.1875 44.75C42.4984 44.75 42.75 45.0016 42.75 45.3125V48.4375C42.75 48.7485 42.4984 49 42.1875 49ZM46.875 44.3125H43.75C43.4391 44.3125 43.1875 44.061 43.1875 43.75C43.1875 43.4391 43.4391 43.1875 43.75 43.1875H46.875C47.1859 43.1875 47.4375 43.4391 47.4375 43.75C47.4375 44.061 47.1859 44.3125 46.875 44.3125ZM40.625 44.3125H37.5C37.1891 44.3125 36.9375 44.061 36.9375 43.75C36.9375 43.4391 37.1891 43.1875 37.5 43.1875H40.625C40.9359 43.1875 41.1875 43.4391 41.1875 43.75C41.1875 44.061 40.9359 44.3125 40.625 44.3125ZM42.1875 42.75C41.8766 42.75 41.625 42.4985 41.625 42.1875V39.0625C41.625 38.7516 41.8766 38.5 42.1875 38.5C42.4984 38.5 42.75 38.7516 42.75 39.0625V42.1875C42.75 42.4985 42.4984 42.75 42.1875 42.75Z" fill="#697B69"/>
</svg>
