<svg width="80" height="80" viewBox="0 0 80 80" fill="none" xmlns="http://www.w3.org/2000/svg">
<circle cx="40" cy="40" r="39.5" stroke="#9E8A81"/>
<path d="M23.125 53.3391H19.1634C18.2449 53.3391 17.5 52.5942 17.5 51.6758V44.6943C17.5 43.9623 17.8616 43.3033 18.4048 42.8116C19.2606 42.0369 20.9088 40.7094 21.7292 39.9918C22.2186 39.5635 22.4315 39.3715 22.6396 38.8291C22.6396 38.8291 24.6229 33.2675 25.2625 31.4057C25.8314 29.7503 27.3438 29.0713 28.9107 29.0713H35.9821" stroke="#2C2C2C" stroke-width="1.5" stroke-miterlimit="10"/>
<path d="M32.7656 53.3394H48.0367" stroke="#2C2C2C" stroke-width="1.5" stroke-miterlimit="10"/>
<path d="M52.8583 54.1428C53.3021 54.1428 53.6618 53.783 53.6618 53.3392C53.6618 52.8954 53.3021 52.5356 52.8583 52.5356C52.4145 52.5356 52.0547 52.8954 52.0547 53.3392C52.0547 53.783 52.4145 54.1428 52.8583 54.1428Z" stroke="#2C2C2C" stroke-width="1.5" stroke-miterlimit="10"/>
<path d="M52.8566 58.1609C55.5194 58.1609 57.678 56.0023 57.678 53.3395C57.678 50.6767 55.5194 48.5181 52.8566 48.5181C50.1938 48.5181 48.0352 50.6767 48.0352 53.3395C48.0352 56.0023 50.1938 58.1609 52.8566 58.1609Z" stroke="#2C2C2C" stroke-width="1.5" stroke-miterlimit="10"/>
<path d="M27.9481 54.1428C28.3919 54.1428 28.7517 53.783 28.7517 53.3392C28.7517 52.8954 28.3919 52.5356 27.9481 52.5356C27.5043 52.5356 27.1445 52.8954 27.1445 53.3392C27.1445 53.783 27.5043 54.1428 27.9481 54.1428Z" stroke="#2C2C2C" stroke-width="1.5" stroke-miterlimit="10"/>
<path d="M27.9464 58.1609C30.6092 58.1609 32.7679 56.0023 32.7679 53.3395C32.7679 50.6767 30.6092 48.5181 27.9464 48.5181C25.2836 48.5181 23.125 50.6767 23.125 53.3395C23.125 56.0023 25.2836 58.1609 27.9464 58.1609Z" stroke="#2C2C2C" stroke-width="1.5" stroke-miterlimit="10"/>
<path d="M17.8166 43.5356H22.3214C22.765 43.5356 23.125 43.8956 23.125 44.3392V45.9464C23.125 46.3899 22.765 46.7499 22.3214 46.7499H17.5" stroke="#2C2C2C" stroke-width="1.5" stroke-miterlimit="10"/>
<path d="M22.2344 39.5178H30.3577C30.8012 39.5178 31.1612 39.1578 31.1612 38.7142V32.2856" stroke="#2C2C2C" stroke-width="1.5" stroke-miterlimit="10"/>
<path d="M57.6769 53.3393H60.8349C61.7534 53.3393 62.4983 52.5944 62.4983 51.6759V25.2143C62.4983 23.4392 61.0591 22 59.284 22H39.1948C37.4197 22 35.9805 23.4392 35.9805 25.2143V53.3393" stroke="#2C2C2C" stroke-width="1.5" stroke-miterlimit="10"/>
</svg>
