<svg width="80" height="80" viewBox="0 0 80 80" fill="none" xmlns="http://www.w3.org/2000/svg">
<circle cx="40" cy="40" r="39.5" fill="#9E8A81" stroke="#9E8A81"/>
<path d="M55.5 35V32L43.5 20H27.5C25.2909 20 23.5 21.7909 23.5 24V56C23.5 58.2091 25.2909 60 27.5 60H51.5C53.7091 60 55.5 58.2091 55.5 56V55" stroke="#F0EFEB" stroke-width="1.5" stroke-linecap="round" stroke-linejoin="round"/>
<path d="M47.5 48.6667L45.5 54L50.8333 53.3333L65.5 40L61.5 36L47.5 48.6667Z" stroke="#F0EFEB" stroke-width="1.5" stroke-linecap="round" stroke-linejoin="round"/>
<path d="M43.5 20V32H55.5" stroke="#F0EFEB" stroke-width="1.5" stroke-linecap="round" stroke-linejoin="round"/>
<path d="M35.5 34H33.5H31.5" stroke="#F0EFEB" stroke-width="1.5" stroke-linecap="round" stroke-linejoin="round"/>
<path d="M46.5 40H33.5H31.5" stroke="#F0EFEB" stroke-width="1.5" stroke-linecap="round" stroke-linejoin="round"/>
<path d="M40.5 46H33.5H31.5" stroke="#F0EFEB" stroke-width="1.5" stroke-linecap="round" stroke-linejoin="round"/>
</svg>
