<svg width="16" height="16" viewBox="0 0 16 16" fill="none" xmlns="http://www.w3.org/2000/svg">
<g clip-path="url(#clip0_527_5674)">
<path d="M7.9987 1.33334L9.34 4.82073C9.52801 5.30955 9.62201 5.55396 9.7682 5.75955C9.89776 5.94176 10.057 6.10095 10.2392 6.23051C10.4447 6.37669 10.6892 6.4707 11.178 6.65871L14.6654 8.00001L11.178 9.34131C10.6892 9.52932 10.4447 9.62333 10.2392 9.76951C10.057 9.89907 9.89776 10.0583 9.7682 10.2405C9.62201 10.4461 9.52801 10.6905 9.34 11.1793L7.9987 14.6667L6.65739 11.1793C6.46939 10.6905 6.37538 10.4461 6.2292 10.2405C6.09964 10.0583 5.94044 9.89907 5.75824 9.76951C5.55265 9.62333 5.30824 9.52932 4.81942 9.34132L1.33203 8.00001L4.81942 6.65871C5.30824 6.4707 5.55265 6.3767 5.75824 6.23051C5.94044 6.10095 6.09964 5.94176 6.2292 5.75955C6.37538 5.55396 6.46939 5.30955 6.65739 4.82073L7.9987 1.33334Z" stroke="#2C2C2C" stroke-width="1.5" stroke-linecap="round" stroke-linejoin="round"/>
</g>
<defs>
<clipPath id="clip0_527_5674">
<rect width="16" height="16" fill="white"/>
</clipPath>
</defs>
</svg>
