<svg width="80" height="80" viewBox="0 0 80 80" fill="none" xmlns="http://www.w3.org/2000/svg">
<circle cx="40" cy="40" r="39.5" stroke="#9E8A81"/>
<path d="M54.4357 43.4248L56.0212 45.8908C56.3347 46.3783 56.4997 46.9348 56.4997 47.5002C56.4997 49.1547 55.1542 50.5002 53.4998 50.5002H44.4999V45.2503C44.4999 44.8363 44.1639 44.5003 43.7499 44.5003C43.5639 44.5003 43.3914 44.5693 43.2609 44.6818L34.2325 52.9572C34.09 53.0922 34.0015 53.2887 34 53.5002C34 53.7207 34.0945 53.9187 34.246 54.0552L43.2459 62.3051C43.3794 62.4266 43.5549 62.5001 43.7499 62.5001C44.1639 62.5001 44.4999 62.1641 44.4999 61.7501V56.5001H53.4998C58.4632 56.5001 62.4996 52.4637 62.4996 47.5002C62.4996 45.7828 62.0046 44.1043 61.0672 42.6463L60.5557 41.8513" stroke="#2C2C2C" stroke-width="1.5" stroke-miterlimit="10"/>
<path d="M29.4998 50.4995H26.4999C24.8454 50.4995 23.4999 49.154 23.4999 47.4995C23.4999 46.934 23.6649 46.3775 23.9799 45.8885L28.7364 38.4891L32.8538 41.3871C33.2063 41.6061 33.6683 41.4966 33.8858 41.1456C33.9848 40.9866 34.0163 40.8051 33.9893 40.6341L32.2388 28.5982C32.1713 28.2682 31.9028 27.9998 31.4978 27.9998C31.4288 27.9998 31.3613 28.0133 31.2998 28.0313L19.5445 31.3267C19.372 31.3762 19.216 31.4872 19.114 31.6522C18.895 32.0047 19.003 32.4667 19.3555 32.6857L23.6304 35.3392L18.9325 42.6471C17.995 44.1036 17.5 45.782 17.5 47.4995C17.5 52.4629 21.5364 56.4994 26.4999 56.4994H29.4998" stroke="#2C2C2C" stroke-width="1.5" stroke-miterlimit="10"/>
<path d="M36.569 26.2464L37.4825 24.8814C38.039 24.0174 38.9795 23.4999 39.998 23.4999C41.0165 23.4999 41.957 24.0174 42.515 24.8829L45.7414 29.9033L41.852 32.3168C41.4995 32.5358 41.3915 32.9978 41.6105 33.3503C41.7125 33.5153 41.8685 33.6263 42.041 33.6758L53.7963 36.9713C53.9928 37.0268 54.2103 37.0028 54.3978 36.8873C54.5763 36.7748 54.6963 36.5963 54.7368 36.4028L56.4873 24.3654C56.5143 24.1944 56.4813 24.0129 56.3838 23.8539C56.1648 23.5014 55.7028 23.3934 55.3518 23.6124L50.8339 26.7279L47.5579 21.6309C45.8899 19.0435 43.0624 17.5 39.998 17.5C36.9335 17.5 34.1061 19.0435 32.4351 21.6369L31.4961 23.0979" stroke="#2C2C2C" stroke-width="1.5" stroke-miterlimit="10"/>
</svg>
