<svg width="80" height="80" viewBox="0 0 80 80" fill="none" xmlns="http://www.w3.org/2000/svg">
<circle cx="40" cy="40" r="39.5" fill="#9E8A81" stroke="#9E8A81"/>
<path d="M49.0781 55.9803L52.8485 52.2371C54.0717 51.0227 55.5053 50.0419 57.0797 49.3419L61.6533 47.3091" stroke="#F0EFEB" stroke-width="1.5" stroke-miterlimit="10" stroke-linecap="round" stroke-linejoin="round"/>
<path d="M45.0984 59.2002C45.0984 61.1882 42.1496 62.4002 39.4984 62.4002C36.8472 62.4002 33.8984 60.3882 33.8984 58.4002C33.8984 55.7498 36.8472 55.2002 39.4984 55.2002C42.1496 55.2002 45.0984 57.2122 45.0984 59.2002Z" stroke="#F0EFEB" stroke-width="1.5" stroke-miterlimit="10" stroke-linecap="round" stroke-linejoin="round"/>
<path d="M34.3648 59.8088C32.3672 58.7632 30.5968 57.0968 29.6296 55.8464C27.9464 53.6704 25.9128 50.2776 23.592 48.8C22.0168 47.7976 19.884 47.4256 17.3672 46.5" stroke="#F0EFEB" stroke-width="1.5" stroke-miterlimit="10" stroke-linecap="round" stroke-linejoin="round"/>
<path d="M36.7223 42.5897C36.4495 42.4049 36.1975 42.2401 35.9727 42.0993C35.6143 41.8745 34.4383 41.6001 33.9007 41.6001C29.4135 41.6001 27.2039 40.5721 24.6239 38.4217C23.6839 37.6385 22.0695 36.1193 21.4023 35.4873" stroke="#F0EFEB" stroke-width="1.5" stroke-miterlimit="10" stroke-linecap="round" stroke-linejoin="round"/>
<path d="M44.6122 60.5178C44.6122 60.5178 47.6986 58.2498 49.0786 55.9802C49.4506 55.3674 49.8986 54.773 49.8986 54.0002C49.8986 53.1378 49.509 52.3666 48.8962 51.853C48.8962 51.853 44.5386 48.3626 40.6602 45.4434" stroke="#F0EFEB" stroke-width="1.5" stroke-miterlimit="10" stroke-linecap="round" stroke-linejoin="round"/>
<path d="M45.0992 44.8002H40.9832L39.2472 48.2722C38.8528 49.0594 38.0392 49.6002 37.0992 49.6002C35.7736 49.6002 34.6992 48.5258 34.6992 47.2002C34.6992 46.8146 34.7896 46.4506 34.9512 46.1282L37.3512 41.3282C37.7456 40.541 38.5592 40.0002 39.4992 40.0002H46.196C49.5496 40.2002 51.4992 41.6002 51.4992 41.6002L59.1416 35.4858" stroke="#F0EFEB" stroke-width="1.5" stroke-miterlimit="10" stroke-linecap="round" stroke-linejoin="round"/>
<path d="M19.5 32.8001V27.2001C19.5 26.3161 20.216 25.6001 21.1 25.6001H27.5C28.384 25.6001 29.1 26.3161 29.1 27.2001V34.4001" stroke="#F0EFEB" stroke-width="1.5" stroke-miterlimit="10" stroke-linecap="round" stroke-linejoin="round"/>
<path d="M33.8984 37.5999V23.9999C33.8984 23.1159 34.6144 22.3999 35.4984 22.3999H41.8984C42.7824 22.3999 43.4984 23.1159 43.4984 23.9999V37.5999" stroke="#F0EFEB" stroke-width="1.5" stroke-miterlimit="10" stroke-linecap="round" stroke-linejoin="round"/>
<path d="M48.3008 34.4001V19.2001C48.3008 18.3161 49.0168 17.6001 49.9008 17.6001H56.3008C57.1848 17.6001 57.9008 18.3161 57.9008 19.2001V32.8001" stroke="#F0EFEB" stroke-width="1.5" stroke-miterlimit="10" stroke-linecap="round" stroke-linejoin="round"/>
</svg>
