<svg width="80" height="80" viewBox="0 0 80 80" fill="none" xmlns="http://www.w3.org/2000/svg">
<circle cx="40" cy="40" r="39.5" stroke="#9E8A81"/>
<path d="M34.1369 58H22.0811C20.7937 58 19.75 56.9564 19.75 55.6689V55.6689C19.75 54.3815 20.7937 53.3378 22.0811 53.3378H26.7812C24.2354 49.9278 25.7128 44.9459 26.5083 42.8812C23.5912 41.9488 20.5295 39.8175 20.4632 38.219C20.3969 36.6206 21.3251 34.1563 24.7727 31.2257C27.5307 28.8813 31.4026 28.6504 32.9938 28.828C35.911 23.8328 41.8116 19.6369 44.1321 21.1021C45.9147 22.2278 43.7343 27.0964 36.7066 32.4912C37.3695 35.4883 35.7121 36.887 35.0491 37.6196C41.2547 37.6196 45.0379 37.6196 49.2847 37.6196C54.9126 37.6196 59.4751 42.1819 59.4751 47.8098V47.8098C59.4751 53.4377 54.9128 58 49.2849 58H40.1927C38.9052 58 37.8616 56.9564 37.8616 55.6689V55.6689C37.8616 54.3815 38.9052 53.3378 40.1927 53.3378H43.8285V52.9082C43.8285 49.2832 46.7671 46.3445 50.3921 46.3445V46.3445" stroke="#2C2C2C" stroke-width="1.5" stroke-linecap="round" stroke-linejoin="round"/>
<path d="M50.4062 40.2812C53.4898 40.2812 55.4688 42.8125 55.4688 45.3438" stroke="#2C2C2C" stroke-width="1.5" stroke-linecap="round" stroke-linejoin="round"/>
<path d="M59.0519 51.1682C58.7027 50.9454 58.239 51.0478 58.0162 51.397C57.7934 51.7462 57.8958 52.2099 58.245 52.4327L59.0519 51.1682ZM59.8771 52.2083L59.8255 52.9565L59.8255 52.9565L59.8771 52.2083ZM61.1453 51.9727L60.8301 51.2922L60.8301 51.2922L61.1453 51.9727ZM62.1702 51.1462L62.7656 51.6024L62.7656 51.6024L62.1702 51.1462ZM62.7235 49.913L63.4594 50.0579L63.4594 50.0579L62.7235 49.913ZM62.6818 48.5479L63.4074 48.3581L63.4074 48.3581L62.6818 48.5479ZM62.0544 47.3553L62.6192 46.8619L62.6192 46.8619L62.0544 47.3553ZM60.9811 46.601L61.2496 45.9007L61.2496 45.9007L60.9811 46.601ZM58.245 52.4327C58.7219 52.7371 59.2639 52.9178 59.8255 52.9565L59.9288 51.4601C59.6216 51.4389 59.321 51.3399 59.0519 51.1682L58.245 52.4327ZM59.8255 52.9565C60.3872 52.9953 60.9481 52.8906 61.4605 52.6533L60.8301 51.2922C60.5446 51.4244 60.2358 51.4813 59.9288 51.4601L59.8255 52.9565ZM61.4605 52.6533C61.9726 52.4161 62.4192 52.0544 62.7656 51.6024L61.5749 50.6901C61.3721 50.9547 61.1158 51.1598 60.8301 51.2922L61.4605 52.6533ZM62.7656 51.6024C63.1118 51.1505 63.3486 50.6207 63.4594 50.0579L61.9876 49.7681C61.9204 50.1094 61.7778 50.4252 61.5749 50.6901L62.7656 51.6024ZM63.4594 50.0579C63.5702 49.4951 63.5524 48.9126 63.4074 48.3581L61.9562 48.7378C62.0439 49.0732 62.0548 49.4268 61.9876 49.7681L63.4594 50.0579ZM63.4074 48.3581C63.2623 47.8035 62.9932 47.2901 62.6192 46.8619L61.4895 47.8487C61.7073 48.098 61.8685 48.4024 61.9562 48.7378L63.4074 48.3581ZM62.6192 46.8619C62.2451 46.4336 61.7762 46.1026 61.2496 45.9007L60.7126 47.3013C61.0048 47.4133 61.2719 47.5996 61.4895 47.8487L62.6192 46.8619ZM61.2496 45.9007C60.7228 45.6987 60.1562 45.6329 59.5984 45.7101L59.8041 47.196C60.1095 47.1537 60.4207 47.1893 60.7126 47.3013L61.2496 45.9007Z" fill="#2C2C2C"/>
<path d="M38.4173 21.9614C38.567 20.565 38.5327 17.72 37.1982 17.5105C35.5301 17.2487 31.809 21.8959 31.0391 28.2449" stroke="#2C2C2C" stroke-width="1.5" stroke-linecap="round" stroke-linejoin="round"/>
</svg>
