<svg width="50" height="50" viewBox="0 0 50 50" fill="none" xmlns="http://www.w3.org/2000/svg">
<path d="M6.25 11.4999C3.35469 11.4999 1 9.14519 1 6.24988C1 3.35457 3.35469 0.999878 6.25 0.999878C9.14531 0.999878 11.5 3.35457 11.5 6.24988C11.5 9.14519 9.14531 11.4999 6.25 11.4999ZM6.25 2.12488C3.975 2.12488 2.125 3.97488 2.125 6.24988C2.125 8.52488 3.975 10.3749 6.25 10.3749C8.525 10.3749 10.375 8.52488 10.375 6.24988C10.375 3.97488 8.525 2.12488 6.25 2.12488ZM6.25 48.9999C3.35469 48.9999 1 46.6436 1 43.7499C1 40.8561 3.35469 38.4999 6.25 38.4999C9.14531 38.4999 11.5 40.8546 11.5 43.7499C11.5 46.6452 9.14531 48.9999 6.25 48.9999ZM6.25 39.6249C3.975 39.6249 2.125 41.4749 2.125 43.7499C2.125 46.0249 3.975 47.8749 6.25 47.8749C8.525 47.8749 10.375 46.0249 10.375 43.7499C10.375 41.4749 8.525 39.6249 6.25 39.6249ZM31.25 48.9999C28.3547 48.9999 26 46.6436 26 43.7499C26 40.8561 28.3547 38.4999 31.25 38.4999C34.1453 38.4999 36.5 40.8561 36.5 43.7499C36.5 46.6436 34.1453 48.9999 31.25 48.9999ZM31.25 39.6249C28.975 39.6249 27.125 41.4749 27.125 43.7499C27.125 46.0249 28.975 47.8749 31.25 47.8749C33.525 47.8749 35.375 46.0249 35.375 43.7499C35.375 41.4749 33.525 39.6249 31.25 39.6249ZM43.75 48.9999C40.8547 48.9999 38.5 46.6436 38.5 43.7499C38.5 40.8561 40.8563 38.4999 43.75 38.4999C46.6437 38.4999 49 40.8561 49 43.7499C49 46.6436 46.6453 48.9999 43.75 48.9999ZM43.75 39.6249C41.475 39.6249 39.625 41.4749 39.625 43.7499C39.625 46.0249 41.475 47.8749 43.75 47.8749C46.025 47.8749 47.875 46.0249 47.875 43.7499C47.875 41.4749 46.025 39.6249 43.75 39.6249ZM18.75 36.4999C15.8547 36.4999 13.5 34.1436 13.5 31.2499C13.5 28.3561 15.8547 25.9999 18.75 25.9999C21.6453 25.9999 24 28.3546 24 31.2499C24 34.1452 21.6453 36.4999 18.75 36.4999ZM18.75 27.1249C16.475 27.1249 14.625 28.9749 14.625 31.2499C14.625 33.5249 16.4766 35.3749 18.75 35.3749C21.0234 35.3749 22.875 33.5249 22.875 31.2499C22.875 28.9749 21.025 27.1249 18.75 27.1249ZM10.5406 21.478L6.8125 25.2046V15.6249H5.6875V25.2046L1.95937 21.478L1.16406 22.2733L6.25 27.3577L11.3344 22.2733L10.5406 21.478Z" fill="#697B69"/>
<path d="M31.25 37C28.3547 37 26 34.6437 26 31.75C26 28.8563 28.3547 26.5 31.25 26.5C34.1453 26.5 36.5 28.8563 36.5 31.75C36.5 34.6437 34.1453 37 31.25 37ZM31.25 27.625C28.975 27.625 27.125 29.475 27.125 31.75C27.125 34.025 28.975 35.875 31.25 35.875C33.525 35.875 35.375 34.025 35.375 31.75C35.375 29.475 33.525 27.625 31.25 27.625ZM43.75 37C40.8547 37 38.5 34.6437 38.5 31.75C38.5 28.8563 40.8563 26.5 43.75 26.5C46.6438 26.5 49 28.8563 49 31.75C49 34.6437 46.6453 37 43.75 37ZM43.75 27.625C41.475 27.625 39.625 29.475 39.625 31.75C39.625 34.025 41.475 35.875 43.75 35.875C46.025 35.875 47.875 34.025 47.875 31.75C47.875 29.475 46.025 27.625 43.75 27.625Z" fill="#697B69"/>
<path d="M18.75 36.4999C15.8547 36.4999 13.5 34.1436 13.5 31.2499C13.5 28.3561 15.8547 25.9999 18.75 25.9999C21.6453 25.9999 24 28.3546 24 31.2499C24 34.1452 21.6453 36.4999 18.75 36.4999ZM18.75 27.1249C16.475 27.1249 14.625 28.9749 14.625 31.2499C14.625 33.5249 16.4766 35.3749 18.75 35.3749C21.0234 35.3749 22.875 33.5249 22.875 31.2499C22.875 28.9749 21.025 27.1249 18.75 27.1249Z" fill="#697B69"/>
</svg>
