<svg width="51" height="50" viewBox="0 0 51 50" fill="none" xmlns="http://www.w3.org/2000/svg">
<path d="M43.4164 35.7188C40.5211 35.7188 38.168 33.3641 38.168 30.4703C38.168 29.5484 38.4117 28.6406 38.8711 27.8453C38.882 27.825 38.8945 27.8094 38.9055 27.7906L42.9648 22.3219C43.1758 22.0344 43.657 22.0344 43.868 22.3219L47.9273 27.7906C48.4242 28.6453 48.6695 29.5516 48.6695 30.4703C48.668 33.3656 46.3133 35.7188 43.4164 35.7188ZM39.8289 28.4344C39.4773 29.0531 39.293 29.7563 39.293 30.4703C39.293 32.7438 41.143 34.5938 43.4164 34.5938C45.6914 34.5938 47.543 32.7438 47.543 30.4703C47.543 29.75 47.3523 29.0359 46.9898 28.4078L43.418 23.6L39.8289 28.4344Z" fill="#697B69"/>
<path d="M9.04141 35.4875C6.1461 35.4875 3.79297 33.1328 3.79297 30.2391C3.79297 29.3172 4.03672 28.4094 4.4961 27.6141C4.50703 27.5937 4.51953 27.5781 4.53047 27.5594L8.58984 22.0906C8.80078 21.8031 9.28203 21.8031 9.49297 22.0906L13.5523 27.5594C14.0492 28.4141 14.2945 29.3203 14.2945 30.2391C14.293 33.1344 11.9383 35.4875 9.04141 35.4875ZM5.45391 28.2031C5.10234 28.8219 4.91797 29.525 4.91797 30.2391C4.91797 32.5125 6.76797 34.3625 9.04141 34.3625C11.3164 34.3625 13.168 32.5125 13.168 30.2391C13.168 29.5187 12.9773 28.8047 12.6148 28.1766L9.04297 23.3687L5.45391 28.2031Z" fill="#697B69"/>
<path d="M26.2289 35.4875C23.3336 35.4875 20.9805 33.1328 20.9805 30.2391C20.9805 29.3172 21.2242 28.4094 21.6836 27.6141C21.6945 27.5937 21.707 27.5781 21.718 27.5594L25.7773 22.0906C25.9883 21.8031 26.4695 21.8031 26.6805 22.0906L30.7398 27.5594C31.2367 28.4141 31.482 29.3203 31.482 30.2391C31.4805 33.1344 29.1258 35.4875 26.2289 35.4875ZM22.6414 28.2031C22.2898 28.8219 22.1055 29.525 22.1055 30.2391C22.1055 32.5125 23.9555 34.3625 26.2289 34.3625C28.5039 34.3625 30.3555 32.5125 30.3555 30.2391C30.3555 29.5187 30.1648 28.8047 29.8023 28.1766L26.2305 23.3687L22.6414 28.2031Z" fill="#697B69"/>
<path d="M3.66797 47.125H47.168V46H3.66797V47.125Z" fill="#697B69"/>
<path d="M3.66797 41.125H47.168V40H3.66797V41.125Z" fill="#697B69"/>
<path d="M16.8539 18.3C13.9586 18.3 11.6055 15.9453 11.6055 13.0516C11.6055 12.1297 11.8492 11.2219 12.3086 10.4266C12.3195 10.4062 12.332 10.3906 12.343 10.3719L16.4023 4.90312C16.6133 4.61562 17.0945 4.61562 17.3055 4.90312L21.3648 10.3719C21.8617 11.2266 22.107 12.1328 22.107 13.0516C22.1055 15.9469 19.7508 18.3 16.8539 18.3ZM13.2664 11.0156C12.9148 11.6344 12.7305 12.3375 12.7305 13.0516C12.7305 15.325 14.5805 17.175 16.8539 17.175C19.1289 17.175 20.9805 15.325 20.9805 13.0516C20.9805 12.3312 20.7898 11.6172 20.4273 10.9891L16.8555 6.18125L13.2664 11.0156Z" fill="#697B69"/>
<path d="M35.6039 18.3C32.7086 18.3 30.3555 15.9453 30.3555 13.0516C30.3555 12.1297 30.5992 11.2219 31.0586 10.4266C31.0695 10.4062 31.082 10.3906 31.093 10.3719L35.1523 4.90312C35.3633 4.61562 35.8445 4.61562 36.0555 4.90312L40.1148 10.3719C40.6117 11.2266 40.857 12.1328 40.857 13.0516C40.8555 15.9469 38.5008 18.3 35.6039 18.3ZM32.0164 11.0156C31.6648 11.6344 31.4805 12.3375 31.4805 13.0516C31.4805 15.325 33.3305 17.175 35.6039 17.175C37.8789 17.175 39.7305 15.325 39.7305 13.0516C39.7305 12.3312 39.5398 11.6172 39.1773 10.9891L35.6055 6.18125L32.0164 11.0156Z" fill="#697B69"/>
</svg>
