<svg width="80" height="80" viewBox="0 0 80 80" fill="none" xmlns="http://www.w3.org/2000/svg">
<circle cx="40" cy="40" r="39.5" stroke="#9E8A81"/>
<path d="M42.25 23.5577C42.25 20.0962 44.9635 17.5 49.4113 17.5C53.2823 17.5 56.379 19.2308 60.25 19.2308C60.25 19.2308 55.954 28.75 48.6201 28.75C44.7491 28.75 42.25 26.5995 42.25 23.5577Z" stroke="#2C2C2C" stroke-width="1.5" stroke-miterlimit="10"/>
<path d="M42.25 26.5C44.702 23.8195 48.5049 22.4961 51.25 22" stroke="#2C2C2C" stroke-width="1.5" stroke-miterlimit="10"/>
<path d="M26.0898 43V46" stroke="#2C2C2C" stroke-width="1.5" stroke-miterlimit="10"/>
<path d="M22.3398 43V46" stroke="#2C2C2C" stroke-width="1.5" stroke-miterlimit="10"/>
<path d="M26.0898 37.75V40.75" stroke="#2C2C2C" stroke-width="1.5" stroke-miterlimit="10"/>
<path d="M22.3398 37.75V40.75" stroke="#2C2C2C" stroke-width="1.5" stroke-miterlimit="10"/>
<path d="M26.0898 34V26.1363C26.0898 25.5085 26.5983 25 27.2261 25C27.4631 25 27.6933 25.0742 27.8861 25.2115L36.6948 32.0028C37.1013 32.3163 37.3399 32.8008 37.3399 33.3145V60.25" stroke="#2C2C2C" stroke-width="1.5" stroke-miterlimit="10"/>
<path d="M59.8399 60.25H19.3398V34.9503C19.3398 34.4253 19.7651 34 20.2901 34H28.1396C28.6646 34 29.0898 34.4253 29.0898 34.9503V56.5" stroke="#2C2C2C" stroke-width="1.5" stroke-miterlimit="10"/>
<path d="M50.6719 43.639L51.4526 40.6878C51.5321 40.288 51.8831 40 52.2911 40H53.8579C54.2794 40 54.6379 40.3068 54.7031 40.723L57.7646 60.25" stroke="#2C2C2C" stroke-width="1.5" stroke-miterlimit="10"/>
<path d="M40.1484 46L41.7279 32.4033C41.7917 32.026 42.1179 31.75 42.5004 31.75H44.1767C44.5584 31.75 44.8847 32.0253 44.9492 32.401L46.5122 46" stroke="#2C2C2C" stroke-width="1.5" stroke-miterlimit="10"/>
<path d="M37.3398 46H49.9353C50.4349 46 50.8399 46.405 50.8399 46.9045V60.25" stroke="#2C2C2C" stroke-width="1.5" stroke-miterlimit="10"/>
<path d="M62.3906 27.7661C61.8544 30.9574 60.1811 34.7501 55.8791 34.7501C53.6291 34.7501 52.3398 33.1676 52.3398 31.7501C52.3398 30.2501 53.4918 28.7501 56.4918 28.7501C59.4918 28.7501 62.3906 27.7661 62.3906 27.7661Z" stroke="#2C2C2C" stroke-width="1.5" stroke-miterlimit="10"/>
<path d="M53.5 33.25C55.3027 31.7398 58 31 58 31" stroke="#2C2C2C" stroke-width="1.5" stroke-miterlimit="10"/>
</svg>
