<svg width="81" height="80" viewBox="0 0 81 80" fill="none" xmlns="http://www.w3.org/2000/svg">
<circle cx="40.5" cy="40" r="39.5" fill="#9E8A81" stroke="#9E8A81"/>
<path d="M46 30H50.6745C51.1637 30 51.4083 30 51.6385 30.0553C51.8425 30.1043 52.0376 30.1851 52.2166 30.2947C52.4184 30.4184 52.5914 30.5914 52.9373 30.9373L61.0627 39.0627C61.4086 39.4086 61.5816 39.5816 61.7053 39.7834C61.8149 39.9624 61.8957 40.1575 61.9447 40.3615C62 40.5917 62 40.8363 62 41.3255V47C62 47.9319 62 48.3978 61.8478 48.7654C61.6448 49.2554 61.2554 49.6448 60.7654 49.8478C60.3978 50 59.9319 50 59 50M49 50H46M46 50V30.4C46 28.1598 46 27.0397 45.564 26.184C45.1805 25.4314 44.5686 24.8195 43.816 24.436C42.9603 24 41.8402 24 39.6 24H28.4C26.1598 24 25.0397 24 24.184 24.436C23.4314 24.8195 22.8195 25.4314 22.436 26.184C22 27.0397 22 28.1598 22 30.4M46 50H41M22 46C22 48.2091 23.7909 50 26 50H30M59 51C59 53.7614 56.7614 56 54 56C51.2386 56 49 53.7614 49 51C49 48.2386 51.2386 46 54 46C56.7614 46 59 48.2386 59 51Z" stroke="#F0EFEB" stroke-width="1.5" stroke-linecap="round" stroke-linejoin="round"/>
<path d="M18 34H30" stroke="#F0EFEB" stroke-width="1.5" stroke-linecap="round" stroke-linejoin="round"/>
<path d="M18 38H26" stroke="#F0EFEB" stroke-width="1.5" stroke-linecap="round" stroke-linejoin="round"/>
<path d="M18 42H22" stroke="#F0EFEB" stroke-width="1.5" stroke-linecap="round" stroke-linejoin="round"/>
<circle cx="35" cy="51" r="5" stroke="#F0EFEB" stroke-width="1.5" stroke-linecap="round" stroke-linejoin="round"/>
</svg>
