<svg width="45" height="45" viewBox="0 0 45 45" fill="none" xmlns="http://www.w3.org/2000/svg">
<path d="M0 24.307H13.0308V23.177H0V24.307Z" fill="#697B69"/>
<path d="M30.8008 24.307H43.8316V23.177H30.8008V24.307Z" fill="#697B69"/>
<path d="M0 30.2299H44.4231V29.0999H0V30.2299Z" fill="#697B69"/>
<path d="M28.435 17.5676C28.435 21.3927 25.5225 24.435 22 24.435C18.4775 24.435 15.565 21.3927 15.565 17.5676C15.565 16.651 15.9679 15.1249 16.6259 13.2808C17.2748 11.4619 18.1429 9.40982 19.015 7.47683C19.8864 5.5454 20.7583 3.74064 21.4126 2.41826C21.6371 1.9647 21.8358 1.56809 22 1.24284C22.1642 1.56809 22.3629 1.9647 22.5874 2.41826C23.2417 3.74064 24.1136 5.5454 24.985 7.47683C25.8571 9.40982 26.7252 11.4619 27.3741 13.2808C28.0321 15.1249 28.435 16.651 28.435 17.5676Z" stroke="#697B69" stroke-width="1.13"/>
<path d="M26 15C26 15.9524 25.6 18.2857 24 20" stroke="#697B69"/>
<circle cx="4.74032" cy="36.2077" r="1.80423" stroke="#697B69" stroke-width="1.13"/>
<circle cx="16.5841" cy="36.2077" r="1.80423" stroke="#697B69" stroke-width="1.13"/>
<circle cx="10.6622" cy="42.131" r="1.80423" stroke="#697B69" stroke-width="1.13"/>
<circle cx="28.4317" cy="36.2077" r="1.80423" stroke="#697B69" stroke-width="1.13"/>
<circle cx="22.5059" cy="42.131" r="1.80423" stroke="#697B69" stroke-width="1.13"/>
<circle cx="40.2755" cy="36.2077" r="1.80423" stroke="#697B69" stroke-width="1.13"/>
<circle cx="34.3536" cy="42.131" r="1.80423" stroke="#697B69" stroke-width="1.13"/>
</svg>
