<svg width="84" height="84" viewBox="0 0 84 84" fill="none" xmlns="http://www.w3.org/2000/svg">
<rect width="84" height="84" rx="42" fill="#E9E3DC"/>
<path fill-rule="evenodd" clip-rule="evenodd" d="M30.5153 17.2512C30.7949 17.2528 31.0203 17.4806 31.0188 17.7602C30.9996 21.2777 30.9162 26.698 30.7283 31.5285C30.6343 33.9431 30.5141 36.2155 30.3621 38.0308C30.2862 38.9382 30.2019 39.7368 30.1081 40.3845C30.0162 41.02 29.9101 41.5486 29.7794 41.8926C28.8889 44.2361 26.9264 47.7162 26.0637 49.1541C26.0479 49.1803 26.0299 49.205 26.0097 49.228C25.3385 49.9911 24.3148 51.3971 23.4611 53.1001C22.6056 54.807 21.9422 56.7702 21.9422 58.6596C21.9422 60.9417 23.2777 62.7334 24.9227 63.9792C25.7418 64.5995 26.6224 65.0715 27.4154 65.3871C28.2187 65.7069 28.894 65.8512 29.3062 65.8512C29.9882 65.8512 30.8342 65.5516 31.6561 65.1371C32.2262 64.8496 32.7537 64.523 33.1611 64.2485C32.8183 63.8351 32.4415 63.3867 32.0316 62.998C31.46 62.4561 30.9455 62.1531 30.5125 62.1531C30.2329 62.1531 30.0063 61.9264 30.0063 61.6468C30.0063 61.3672 30.2329 61.1406 30.5125 61.1406C31.3664 61.1406 32.1334 61.6993 32.7282 62.2632C33.2138 62.7236 33.6651 63.269 34.0279 63.7073C34.1208 63.8196 34.208 63.9248 34.2884 64.0198C34.3207 64.058 34.353 64.0966 34.3857 64.1356C34.6863 64.4942 35.0107 64.8811 35.5177 65.2059C36.0676 65.558 36.8614 65.8512 38.0955 65.8512C38.9106 65.8512 39.5989 65.5432 40.1327 65.1573C40.6716 64.7678 41.0275 64.3166 41.1657 64.0864C41.1722 64.0754 41.1792 64.0637 41.1866 64.0514C41.372 63.7418 41.8164 62.9996 42.4415 62.323C43.0761 61.6361 43.9934 60.9108 45.104 60.9108C45.3836 60.9108 45.6103 61.1374 45.6103 61.417C45.6103 61.6966 45.3836 61.9233 45.104 61.9233C44.4338 61.9233 43.7713 62.3756 43.1852 63.0101C42.8058 63.4206 42.4988 63.8633 42.2846 64.1989C42.734 64.4939 43.3153 64.8479 43.9044 65.1544C44.2952 65.3577 44.681 65.5356 45.0285 65.6616C45.3847 65.7908 45.6629 65.8512 45.8508 65.8512C46.4449 65.8512 48.3347 65.519 50.1012 64.4262C51.8429 63.3486 53.4259 61.5598 53.56 58.6364C53.7397 54.7196 51.7413 52.2277 50.2601 50.3807C49.9136 49.9487 49.5954 49.5519 49.34 49.1804C49.2007 48.9777 49.0427 48.7603 48.872 48.5254C47.5123 46.6543 45.3446 43.6713 45.3446 38.1511C45.3446 37.8715 45.5712 37.6448 45.8508 37.6448C46.1304 37.6448 46.3571 37.8715 46.3571 38.1511C46.3571 43.3335 48.3492 46.0797 49.6928 47.9319C49.866 48.1706 50.0284 48.3945 50.1744 48.6068C50.383 48.9103 50.6627 49.2563 50.9806 49.6495C52.4617 51.4816 54.7708 54.3378 54.5714 58.6828C54.4183 62.0211 52.5832 64.0812 50.6339 65.2872C48.7095 66.4778 46.6355 66.8637 45.8508 66.8637C45.4873 66.8637 45.078 66.7566 44.6833 66.6135C44.2799 66.4672 43.8514 66.2681 43.4371 66.0526C42.8111 65.727 42.1981 65.3535 41.7231 65.0415C41.4822 65.3356 41.1465 65.6738 40.7259 65.9779C40.0676 66.4537 39.1762 66.8637 38.0955 66.8637C36.6871 66.8637 35.7 66.525 34.9717 66.0585C34.4624 65.7324 34.0938 65.3504 33.8147 65.0285C33.3683 65.3337 32.7689 65.7099 32.112 66.0411C31.2536 66.474 30.2326 66.8637 29.3062 66.8637C28.713 66.8637 27.9018 66.6705 27.041 66.3279C26.1699 65.9811 25.2085 65.4657 24.3114 64.7863C22.5239 63.4326 20.9297 61.3753 20.9297 58.6596C20.9297 56.5507 21.6642 54.4256 22.556 52.6464C23.4372 50.8884 24.4927 49.427 25.2187 48.5944C26.0902 47.138 27.9847 43.7652 28.8329 41.533C28.9205 41.3025 29.0146 40.8713 29.1061 40.2395C29.1958 39.6198 29.2781 38.8435 29.3532 37.9464C29.5033 36.1528 29.6228 33.8976 29.7166 31.4891C29.9039 26.6733 29.9872 21.2649 30.0063 17.7547C30.0078 17.4751 30.2357 17.2497 30.5153 17.2512ZM44.9317 17.2512C45.2113 17.2512 45.4379 17.4779 45.4379 17.7575C45.4379 18.6399 45.4928 19.6424 45.5496 20.6805L45.5521 20.726C45.6094 21.7735 45.6677 22.854 45.6677 23.8468C45.6677 24.1264 45.4411 24.3531 45.1615 24.3531C44.8819 24.3531 44.6552 24.1264 44.6552 23.8468C44.6552 22.8865 44.5987 21.8343 44.5411 20.7813L44.5377 20.7196C44.4816 19.694 44.4254 18.6679 44.4254 17.7575C44.4254 17.4779 44.6521 17.2512 44.9317 17.2512Z" fill="#2C2C2C"/>
<path fill-rule="evenodd" clip-rule="evenodd" d="M52.5137 21.0787C47.2728 21.0787 43.0242 25.3273 43.0242 30.5682C43.0242 35.8091 47.2728 40.0577 52.5137 40.0577C57.7546 40.0577 62.0032 35.8091 62.0032 30.5682C62.0032 25.3273 57.7546 21.0787 52.5137 21.0787ZM42.0117 30.5682C42.0117 24.7681 46.7136 20.0662 52.5137 20.0662C58.3138 20.0662 63.0157 24.7681 63.0157 30.5682C63.0157 36.3682 58.3138 41.0702 52.5137 41.0702C46.7136 41.0702 42.0117 36.3682 42.0117 30.5682Z" fill="#2C2C2C"/>
<path fill-rule="evenodd" clip-rule="evenodd" d="M45.0032 36.5868C45.2009 36.7845 45.2009 37.105 45.0032 37.3027L38.8564 43.4495C38.6587 43.6472 38.3382 43.6472 38.1405 43.4495C37.9428 43.2518 37.9428 42.9313 38.1405 42.7336L44.2873 36.5868C44.485 36.3891 44.8055 36.3891 45.0032 36.5868Z" fill="#2C2C2C"/>
<path fill-rule="evenodd" clip-rule="evenodd" d="M35.9258 44.7001C35.9258 44.3274 36.228 44.0251 36.6008 44.0251C36.9736 44.0251 37.2758 44.3274 37.2758 44.7001C37.2758 45.0729 36.9736 45.3751 36.6008 45.3751C36.228 45.3751 35.9258 45.0729 35.9258 44.7001Z" fill="#2C2C2C"/>
<path fill-rule="evenodd" clip-rule="evenodd" d="M42 42.675C42 42.3022 42.3022 42 42.675 42C43.0478 42 43.35 42.3022 43.35 42.675C43.35 43.0478 43.0478 43.35 42.675 43.35C42.3022 43.35 42 43.0478 42 42.675Z" fill="#2C2C2C"/>
<path fill-rule="evenodd" clip-rule="evenodd" d="M44.0273 48.75C44.0273 48.3772 44.3296 48.075 44.7023 48.075C45.0751 48.075 45.3773 48.3772 45.3773 48.75C45.3773 49.1227 45.0751 49.4249 44.7023 49.4249C44.3296 49.4249 44.0273 49.1227 44.0273 48.75Z" fill="#2C2C2C"/>
<path fill-rule="evenodd" clip-rule="evenodd" d="M43.3516 55.5C43.3516 55.1272 43.6538 54.825 44.0266 54.825C44.3994 54.825 44.7016 55.1272 44.7016 55.5C44.7016 55.8727 44.3994 56.1749 44.0266 56.1749C43.6538 56.1749 43.3516 55.8727 43.3516 55.5Z" fill="#2C2C2C"/>
<path fill-rule="evenodd" clip-rule="evenodd" d="M48.75 55.5C48.75 55.1272 49.0522 54.825 49.425 54.825C49.7978 54.825 50.1 55.1272 50.1 55.5C50.1 55.8727 49.7978 56.1749 49.425 56.1749C49.0522 56.1749 48.75 55.8727 48.75 55.5Z" fill="#2C2C2C"/>
<path fill-rule="evenodd" clip-rule="evenodd" d="M34.5781 55.5C34.5781 55.1272 34.8803 54.825 35.2531 54.825C35.6259 54.825 35.9281 55.1272 35.9281 55.5C35.9281 55.8727 35.6259 56.1749 35.2531 56.1749C34.8803 56.1749 34.5781 55.8727 34.5781 55.5Z" fill="#2C2C2C"/>
<path fill-rule="evenodd" clip-rule="evenodd" d="M37.2773 52.125C37.2773 51.7522 37.5796 51.45 37.9523 51.45C38.3251 51.45 38.6273 51.7522 38.6273 52.125C38.6273 52.4977 38.3251 52.7999 37.9523 52.7999C37.5796 52.7999 37.2773 52.4977 37.2773 52.125Z" fill="#2C2C2C"/>
<path fill-rule="evenodd" clip-rule="evenodd" d="M31.2031 51.4501C31.2031 51.0774 31.5053 50.7751 31.8781 50.7751C32.2509 50.7751 32.5531 51.0774 32.5531 51.4501C32.5531 51.8229 32.2509 52.1251 31.8781 52.1251C31.5053 52.1251 31.2031 51.8229 31.2031 51.4501Z" fill="#2C2C2C"/>
<path fill-rule="evenodd" clip-rule="evenodd" d="M30.5273 48.0751C30.5273 47.7024 30.8296 47.4001 31.2023 47.4001C31.5751 47.4001 31.8773 47.7024 31.8773 48.0751C31.8773 48.4479 31.5751 48.7501 31.2023 48.7501C30.8296 48.7501 30.5273 48.4479 30.5273 48.0751Z" fill="#2C2C2C"/>
<path fill-rule="evenodd" clip-rule="evenodd" d="M27.8281 54.8251C27.8281 54.4524 28.1303 54.1501 28.5031 54.1501C28.8759 54.1501 29.1781 54.4524 29.1781 54.8251C29.1781 55.1979 28.8759 55.5001 28.5031 55.5001C28.1303 55.5001 27.8281 55.1979 27.8281 54.8251Z" fill="#2C2C2C"/>
<path fill-rule="evenodd" clip-rule="evenodd" d="M39.3008 48.0751C39.3008 47.7024 39.603 47.4001 39.9758 47.4001C40.3486 47.4001 40.6508 47.7024 40.6508 48.0751C40.6508 48.4479 40.3486 48.7501 39.9758 48.7501C39.603 48.7501 39.3008 48.4479 39.3008 48.0751Z" fill="#2C2C2C"/>
<path fill-rule="evenodd" clip-rule="evenodd" d="M48.0781 35.25C48.0781 34.8772 48.3803 34.575 48.7531 34.575C49.1259 34.575 49.4281 34.8772 49.4281 35.25C49.4281 35.6227 49.1259 35.9249 48.7531 35.9249C48.3803 35.9249 48.0781 35.6227 48.0781 35.25Z" fill="#2C2C2C"/>
<path fill-rule="evenodd" clip-rule="evenodd" d="M50.7773 29.175C50.7773 28.8022 51.0796 28.5 51.4523 28.5C51.8251 28.5 52.1273 28.8022 52.1273 29.175C52.1273 29.5478 51.8251 29.85 51.4523 29.85C51.0796 29.85 50.7773 29.5478 50.7773 29.175Z" fill="#2C2C2C"/>
<path fill-rule="evenodd" clip-rule="evenodd" d="M45.375 31.875C45.375 31.5022 45.6772 31.2 46.05 31.2C46.4228 31.2 46.725 31.5022 46.725 31.875C46.725 32.2477 46.4228 32.5499 46.05 32.5499C45.6772 32.5499 45.375 32.2477 45.375 31.875Z" fill="#2C2C2C"/>
<path fill-rule="evenodd" clip-rule="evenodd" d="M47.4023 25.125C47.4023 24.7522 47.7046 24.45 48.0773 24.45C48.4501 24.45 48.7523 24.7522 48.7523 25.125C48.7523 25.4977 48.4501 25.8 48.0773 25.8C47.7046 25.8 47.4023 25.4977 47.4023 25.125Z" fill="#2C2C2C"/>
<path fill-rule="evenodd" clip-rule="evenodd" d="M53.4766 24.4501C53.4766 24.0774 53.7788 23.7751 54.1516 23.7751C54.5244 23.7751 54.8266 24.0774 54.8266 24.4501C54.8266 24.8229 54.5244 25.1251 54.1516 25.1251C53.7788 25.1251 53.4766 24.8229 53.4766 24.4501Z" fill="#2C2C2C"/>
<path fill-rule="evenodd" clip-rule="evenodd" d="M54.8281 30.5251C54.8281 30.1523 55.1303 29.8501 55.5031 29.8501C55.8759 29.8501 56.1781 30.1523 56.1781 30.5251C56.1781 30.8979 55.8759 31.2001 55.5031 31.2001C55.1303 31.2001 54.8281 30.8979 54.8281 30.5251Z" fill="#2C2C2C"/>
<path fill-rule="evenodd" clip-rule="evenodd" d="M55.5 35.925C55.5 35.5522 55.8022 35.25 56.175 35.25C56.5478 35.25 56.85 35.5522 56.85 35.925C56.85 36.2978 56.5478 36.6 56.175 36.6C55.8022 36.6 55.5 36.2978 55.5 35.925Z" fill="#2C2C2C"/>
<path fill-rule="evenodd" clip-rule="evenodd" d="M57.5273 27.4876C57.5273 27.3013 57.6784 27.1501 57.8648 27.1501C58.0512 27.1501 58.2023 27.3013 58.2023 27.4876C58.2023 27.674 58.0512 27.8251 57.8648 27.8251C57.6784 27.8251 57.5273 27.674 57.5273 27.4876Z" fill="#2C2C2C"/>
<path fill-rule="evenodd" clip-rule="evenodd" d="M52.125 31.875C52.125 31.5022 52.4272 31.2 52.8 31.2C53.1728 31.2 53.475 31.5022 53.475 31.875C53.475 32.2477 53.1728 32.5499 52.8 32.5499C52.4272 32.5499 52.125 32.2477 52.125 31.875Z" fill="#2C2C2C"/>
</svg>
