<svg width="84" height="84" viewBox="0 0 84 84" fill="none" xmlns="http://www.w3.org/2000/svg">
<rect width="84" height="84" rx="42" fill="#E9E3DC"/>
<path fill-rule="evenodd" clip-rule="evenodd" d="M31.9702 24.3255C32.5174 21.4879 35.5281 15.8726 43.1524 15.8726C46.9633 15.8726 49.829 17.485 51.85 19.4876C53.8616 21.4808 55.0481 23.8699 55.529 25.4831C55.6089 25.751 55.4565 26.033 55.1885 26.1129C54.9206 26.1928 54.6386 26.0403 54.5587 25.7724C54.1205 24.3026 53.0149 22.0672 51.1373 20.2068C49.2692 18.3556 46.6487 16.8851 43.1524 16.8851C36.1622 16.8851 33.4512 21.9932 32.9644 24.5172C32.9114 24.7918 32.6459 24.9714 32.3714 24.9185C32.0969 24.8655 31.9172 24.6 31.9702 24.3255Z" fill="#2C2C2C"/>
<path fill-rule="evenodd" clip-rule="evenodd" d="M40.8525 21.1093C39.3872 21.1242 38.0956 21.6169 37.1155 22.842C36.625 23.4551 36.3892 24.0613 36.3377 24.6577C36.2859 25.2578 36.4179 25.8839 36.72 26.5362C37.3311 27.8556 38.6077 29.2162 40.2544 30.5399C43.538 33.1795 48.0862 35.5129 50.9636 36.9516C54.6242 38.782 56.4281 41.072 57.1437 42.6633C57.3346 42.4682 57.5709 42.1452 57.7956 41.6374C58.1776 40.7738 58.5033 39.4205 58.5033 37.4045C58.5033 32.4767 54.9385 28.9355 52.8654 27.0351C51.8574 26.1112 48.8722 23.7492 45.6194 22.2987C43.9922 21.5732 42.3382 21.0942 40.8525 21.1093ZM57.4857 43.6932C57.9127 43.4083 58.3606 42.8626 58.7215 42.047C59.1739 41.0244 59.5158 39.5245 59.5158 37.4045C59.5158 31.9918 55.6125 28.1798 53.5495 26.2887C52.4893 25.3169 49.4139 22.8821 46.0317 21.374C44.3413 20.6203 42.5341 20.0796 40.8423 20.0968C39.13 20.1142 37.5278 20.7058 36.3249 22.2095C35.7239 22.9607 35.3996 23.753 35.329 24.5706C35.3243 24.6246 35.3208 24.6785 35.3183 24.7324C34.2017 25.5117 31.8701 27.2227 30.9136 28.1336C29.685 29.3037 26.6829 32.2985 26.563 37.3925C26.5156 39.4075 26.8535 40.8869 27.3181 41.9267C27.6806 42.738 28.1294 43.2994 28.5453 43.623C28.535 43.7034 28.5273 43.7786 28.5219 43.848C28.3877 45.0277 28.2016 46.7703 28.0915 48.4441C27.9826 50.1 27.9422 51.7586 28.1266 52.7229C28.3975 54.1403 28.9134 56.7368 31.9226 60.1983C32.8624 61.2794 34.7773 63.2532 36.8609 64.9611C37.9028 65.8151 38.9985 66.6124 40.0445 67.1987C41.077 67.7774 42.1207 68.1852 43.043 68.1852C43.972 68.1852 45.0349 67.7466 46.0837 67.1363C47.1485 66.5167 48.268 65.6784 49.3277 64.7929C51.4479 63.0212 53.3751 61.0215 54.2181 60.0912C55.0881 59.1312 55.9286 57.8509 56.5895 56.539C57.2484 55.2308 57.7475 53.8537 57.9062 52.6966C58.0594 51.5797 58.0282 49.9992 57.928 48.4026C57.8272 46.7958 57.6537 45.1343 57.5099 43.84C57.5093 43.8344 57.5086 43.8289 57.5078 43.8233C57.5017 43.7814 57.4944 43.738 57.4857 43.6932ZM28.8019 42.4543C29.0507 41.6425 29.4914 40.6967 30.2313 40.0185C30.5493 39.727 31.2721 39.248 32.1779 38.6873C33.102 38.1153 34.2647 37.4294 35.5022 36.716C37.7341 35.4293 40.2192 34.0472 42.008 33.0707C41.1723 32.511 40.3655 31.9283 39.62 31.3291C37.9349 29.9744 36.5114 28.495 35.8013 26.9617C35.6389 26.6112 35.5124 26.2547 35.429 25.894C34.2341 26.7473 32.3948 28.1212 31.6119 28.8668C30.4278 29.9945 27.6852 32.7445 27.5753 37.4164C27.5307 39.3078 27.8493 40.6337 28.2425 41.5136C28.4254 41.9231 28.6217 42.2305 28.8019 42.4543ZM42.9719 33.6987C41.1731 34.6756 38.4387 36.1918 36.008 37.5931C34.7743 38.3043 33.6219 38.9843 32.7108 39.5483C31.7814 40.1236 31.1489 40.5509 30.9155 40.7649C30.1417 41.4742 29.7447 42.6472 29.5936 43.4703C29.5596 43.6553 29.5398 43.8136 29.5308 43.934C29.5303 43.9404 29.5297 43.9468 29.5289 43.9532C29.3951 45.1287 29.2106 46.8569 29.1018 48.5106C28.9916 50.1866 28.965 51.7163 29.1211 52.5328C29.3721 53.8459 29.8347 56.2533 32.6867 59.534C33.5946 60.5784 35.4691 62.5111 37.5028 64.1781C38.5197 65.0116 39.5646 65.769 40.5395 66.3155C41.528 66.8695 42.3854 67.1727 43.043 67.1727C43.6937 67.1727 44.5624 66.8501 45.5745 66.2612C46.5706 65.6816 47.6413 64.8827 48.6785 64.016C50.7518 62.2834 52.6449 60.3194 53.4678 59.4113C54.2638 58.533 55.0558 57.333 55.6852 56.0835C56.3165 54.8302 56.7652 53.5647 56.9031 52.5591C57.0414 51.5505 57.0173 50.0576 56.9175 48.4659C56.8185 46.8881 56.6478 45.2503 56.5046 43.9608C56.3538 42.9547 54.9906 40.0972 50.5108 37.8573C48.5163 36.86 45.6623 35.4061 42.9719 33.6987Z" fill="#2C2C2C"/>
<path fill-rule="evenodd" clip-rule="evenodd" d="M34.6574 48.941C34.9092 49.0625 35.2118 48.957 35.3334 48.7052C35.6374 48.0753 36.3047 47.6951 37.0865 47.6771C37.8624 47.6592 38.7101 48.005 39.298 48.7888C39.4657 49.0125 39.7831 49.0578 40.0067 48.8901C40.2304 48.7223 40.2757 48.405 40.108 48.1813C39.3171 47.1268 38.1542 46.6397 37.0631 46.6649C35.9778 46.6899 34.9217 47.2289 34.4216 48.265C34.3 48.5168 34.4056 48.8194 34.6574 48.941Z" fill="#2C2C2C"/>
<path fill-rule="evenodd" clip-rule="evenodd" d="M51.9686 43.7578C52.1145 43.5193 52.0394 43.2077 51.8009 43.0618C50.9027 42.5124 49.6481 42.2866 48.5278 42.2985C47.9605 42.3045 47.4047 42.3714 46.9196 42.5004C46.4445 42.6268 45.9906 42.8251 45.6731 43.1267C45.4705 43.3193 45.4623 43.6397 45.6549 43.8424C45.8475 44.0451 46.1679 44.0533 46.3706 43.8607C46.5128 43.7256 46.781 43.585 47.1799 43.4789C47.5689 43.3755 48.0389 43.3162 48.5385 43.311C49.5518 43.3002 50.5952 43.5112 51.2726 43.9255C51.5111 44.0714 51.8228 43.9963 51.9686 43.7578Z" fill="#2C2C2C"/>
<path fill-rule="evenodd" clip-rule="evenodd" d="M45.8019 48.941C46.0537 49.0625 46.3563 48.957 46.4779 48.7052C46.782 48.0753 47.4493 47.6951 48.231 47.6771C49.0069 47.6592 49.8547 48.005 50.4425 48.7888C50.6103 49.0125 50.9276 49.0578 51.1513 48.8901C51.3749 48.7223 51.4203 48.405 51.2525 48.1813C50.4616 47.1268 49.2988 46.6397 48.2077 46.6649C47.1224 46.6899 46.0663 47.2289 45.5661 48.265C45.4445 48.5168 45.5501 48.8194 45.8019 48.941Z" fill="#2C2C2C"/>
<path fill-rule="evenodd" clip-rule="evenodd" d="M40.1327 43.7578C40.2786 43.5193 40.2035 43.2077 39.965 43.0618C39.0667 42.5124 37.8122 42.2866 36.6918 42.2985C36.1246 42.3045 35.5687 42.3714 35.0837 42.5004C34.6086 42.6268 34.1546 42.8251 33.8372 43.1267C33.6345 43.3193 33.6264 43.6397 33.819 43.8424C34.0115 44.0451 34.332 44.0533 34.5347 43.8607C34.6768 43.7256 34.945 43.585 35.344 43.4789C35.7329 43.3755 36.2029 43.3162 36.7025 43.311C37.7159 43.3002 38.7592 43.5112 39.4367 43.9255C39.6752 44.0714 39.9868 43.9963 40.1327 43.7578Z" fill="#2C2C2C"/>
<path fill-rule="evenodd" clip-rule="evenodd" d="M41.8869 51.6937C42.149 51.791 42.2825 52.0824 42.1852 52.3445C42.0571 52.6894 42.1457 52.8499 42.2372 52.9416C42.365 53.0696 42.616 53.17 42.9279 53.17C43.2384 53.17 43.5009 53.0701 43.6426 52.934C43.7505 52.8305 43.8399 52.6623 43.7296 52.326C43.6425 52.0604 43.7872 51.7744 44.0529 51.6872C44.3186 51.6001 44.6046 51.7448 44.6917 52.0105C44.9112 52.6795 44.7596 53.2654 44.3438 53.6644C43.9619 54.0311 43.4181 54.1825 42.9279 54.1825C42.439 54.1825 41.8946 54.0316 41.5206 53.6569C41.1103 53.2459 40.9907 52.6525 41.236 51.992C41.3334 51.7299 41.6248 51.5963 41.8869 51.6937Z" fill="#2C2C2C"/>
<path fill-rule="evenodd" clip-rule="evenodd" d="M37.1217 54.0451C37.364 53.9611 37.6308 54.0715 37.7429 54.3021C38.0246 54.8818 38.6664 55.385 39.6004 55.7486C40.5236 56.1079 41.6663 56.3034 42.8355 56.3145C44.0044 56.3257 45.1714 56.1523 46.1428 55.7971C47.121 55.4394 47.8486 54.9178 48.224 54.2697C48.3474 54.0565 48.6064 53.9632 48.8375 54.0485C49.0686 54.1339 49.2046 54.3732 49.1599 54.6155C48.9408 55.8005 48.3907 57.5754 47.4371 59.0685C46.488 60.5547 45.066 61.8658 43.0897 61.8658C41.118 61.8658 39.6586 60.56 38.6626 59.0785C37.6609 57.5884 37.0518 55.8159 36.793 54.6315C36.7383 54.381 36.8795 54.1291 37.1217 54.0451ZM38.3533 56.2731C38.6442 57.0188 39.0267 57.8052 39.5029 58.5136C40.4218 59.8805 41.6146 60.8533 43.0897 60.8533C44.5602 60.8533 45.7138 59.8858 46.5838 58.5235C47.0593 57.779 47.4283 56.9475 47.6979 56.168C47.3269 56.3993 46.9185 56.5915 46.4905 56.748C45.3834 57.1528 44.0917 57.3391 42.8259 57.327C41.5604 57.3149 40.2924 57.1044 39.2332 56.6921C38.9253 56.5723 38.6292 56.433 38.3533 56.2731Z" fill="#2C2C2C"/>
<path fill-rule="evenodd" clip-rule="evenodd" d="M60.4965 54.8215C60.7059 54.8215 60.8938 54.9505 60.969 55.1461L61.5006 56.5284C61.5845 56.7464 61.5981 56.7716 61.6104 56.7889C61.629 56.815 61.6518 56.8378 61.6779 56.8564C61.6952 56.8687 61.7204 56.8823 61.9384 56.9662L63.3207 57.4978C63.5163 57.573 63.6453 57.7609 63.6453 57.9703C63.6453 58.1798 63.5163 58.3676 63.3207 58.4428L61.9384 58.9745C61.7204 59.0583 61.6952 59.072 61.6779 59.0843C61.6518 59.1029 61.629 59.1257 61.6104 59.1518C61.5981 59.1691 61.5845 59.1943 61.5006 59.4123L60.969 60.7946C60.8938 60.9901 60.7059 61.1191 60.4965 61.1191C60.287 61.1191 60.0991 60.9901 60.024 60.7946L59.4923 59.4123C59.4084 59.1943 59.3948 59.1691 59.3825 59.1518C59.3639 59.1257 59.3411 59.1029 59.315 59.0843C59.2977 59.072 59.2725 59.0583 59.0545 58.9745L57.6722 58.4428C57.4767 58.3676 57.3477 58.1798 57.3477 57.9703C57.3477 57.7609 57.4767 57.573 57.6722 57.4978L59.0545 56.9662C59.2725 56.8823 59.2977 56.8687 59.315 56.8564C59.3411 56.8378 59.3639 56.815 59.3825 56.7889C59.3948 56.7716 59.4084 56.7464 59.4923 56.5284L60.024 55.1461C60.0991 54.9505 60.287 54.8215 60.4965 54.8215ZM60.4965 56.738L60.4373 56.8919C60.4326 56.904 60.428 56.9161 60.4233 56.9282C60.3632 57.0854 60.3038 57.2404 60.2076 57.3756C60.1235 57.494 60.0201 57.5974 59.9017 57.6815C59.7665 57.7777 59.6115 57.837 59.4543 57.8972C59.4422 57.9019 59.4301 57.9065 59.418 57.9112L59.2642 57.9703L59.418 58.0295C59.4301 58.0342 59.4422 58.0388 59.4543 58.0434C59.6115 58.1036 59.7665 58.163 59.9017 58.2592C60.0201 58.3433 60.1235 58.4467 60.2076 58.565C60.3038 58.7003 60.3632 58.8553 60.4233 59.0124C60.428 59.0246 60.4326 59.0367 60.4373 59.0488L60.4965 59.2026L60.5556 59.0488C60.5603 59.0367 60.5649 59.0246 60.5696 59.0124C60.6298 58.8553 60.6891 58.7003 60.7853 58.565C60.8694 58.4467 60.9728 58.3433 61.0912 58.2592C61.2264 58.163 61.3814 58.1036 61.5386 58.0434C61.5507 58.0388 61.5628 58.0342 61.5749 58.0295L61.7288 57.9703L61.5749 57.9112C61.5628 57.9065 61.5507 57.9019 61.5386 57.8972C61.3814 57.837 61.2264 57.7777 61.0912 57.6815C60.9728 57.5974 60.8694 57.494 60.7853 57.3756C60.6891 57.2404 60.6298 57.0854 60.5696 56.9282C60.5649 56.9161 60.5603 56.904 60.5556 56.8919L60.4965 56.738Z" fill="#2C2C2C"/>
<path fill-rule="evenodd" clip-rule="evenodd" d="M22.1215 34.7151C22.3309 34.7151 22.5188 34.8441 22.594 35.0396L23.1256 36.4219C23.2095 36.6399 23.2231 36.6651 23.2354 36.6824C23.254 36.7085 23.2768 36.7313 23.3029 36.7499C23.3202 36.7622 23.3454 36.7759 23.5634 36.8597L24.9457 37.3914C25.1413 37.4666 25.2703 37.6544 25.2703 37.8639C25.2703 38.0734 25.1413 38.2612 24.9457 38.3364L23.5634 38.8681C23.3454 38.9519 23.3202 38.9656 23.3029 38.9779C23.2768 38.9964 23.254 39.0192 23.2354 39.0453C23.2231 39.0626 23.2095 39.0879 23.1256 39.3058L22.594 40.6882C22.5188 40.8837 22.3309 41.0127 22.1215 41.0127C21.912 41.0127 21.7241 40.8837 21.649 40.6882L21.1173 39.3058C21.0334 39.0879 21.0198 39.0626 21.0075 39.0453C20.9889 39.0192 20.9661 38.9964 20.94 38.9779C20.9227 38.9656 20.8975 38.9519 20.6795 38.8681L19.2972 38.3364C19.1017 38.2612 18.9727 38.0734 18.9727 37.8639C18.9727 37.6544 19.1017 37.4666 19.2972 37.3914L20.6795 36.8597C20.8975 36.7759 20.9227 36.7622 20.94 36.7499C20.9661 36.7313 20.9889 36.7085 21.0075 36.6824C21.0198 36.6651 21.0334 36.6399 21.1173 36.4219L21.649 35.0396C21.7241 34.8441 21.912 34.7151 22.1215 34.7151ZM22.1215 36.6316L22.0623 36.7854C22.0576 36.7975 22.053 36.8097 22.0483 36.8218C21.9882 36.979 21.9288 37.1339 21.8326 37.2692C21.7485 37.3875 21.6451 37.4909 21.5267 37.5751C21.3915 37.6712 21.2365 37.7306 21.0793 37.7908C21.0672 37.7954 21.0551 37.8001 21.043 37.8047L20.8892 37.8639L21.043 37.9231C21.0551 37.9277 21.0672 37.9324 21.0793 37.937C21.2365 37.9972 21.3915 38.0565 21.5267 38.1527C21.6451 38.2369 21.7485 38.3403 21.8326 38.4586C21.9288 38.5939 21.9882 38.7488 22.0483 38.906C22.053 38.9181 22.0576 38.9302 22.0623 38.9424L22.1215 39.0962L22.1806 38.9424C22.1853 38.9302 22.1899 38.9181 22.1946 38.906C22.2548 38.7488 22.3141 38.5939 22.4103 38.4586C22.4944 38.3403 22.5978 38.2369 22.7162 38.1527C22.8514 38.0565 23.0064 37.9972 23.1636 37.937C23.1757 37.9324 23.1878 37.9277 23.1999 37.9231L23.3538 37.8639L23.1999 37.8047C23.1878 37.8001 23.1757 37.7954 23.1636 37.7908C23.0064 37.7306 22.8514 37.6712 22.7162 37.5751C22.5978 37.4909 22.4944 37.3875 22.4103 37.2692C22.3141 37.1339 22.2548 36.979 22.1946 36.8218C22.1899 36.8097 22.1853 36.7975 22.1806 36.7854L22.1215 36.6316Z" fill="#2C2C2C"/>
<path fill-rule="evenodd" clip-rule="evenodd" d="M21.5482 43.2173C21.7657 43.2173 21.9589 43.3562 22.0281 43.5624L22.6144 45.3082C23.0936 46.735 24.0456 47.8362 25.2149 48.3778L26.7014 49.0663C26.8804 49.1492 26.9949 49.3284 26.9949 49.5257C26.9949 49.7229 26.8804 49.9021 26.7014 49.985L25.2149 50.6736C24.0456 51.2152 23.0936 52.3164 22.6144 53.7432L22.0281 55.489C21.9589 55.6951 21.7657 55.834 21.5482 55.834C21.3307 55.834 21.1376 55.6951 21.0683 55.489L20.4821 53.7432C20.0029 52.3164 19.0509 51.2152 17.8816 50.6736L16.395 49.985C16.2161 49.9021 16.1016 49.7229 16.1016 49.5257C16.1016 49.3284 16.2161 49.1492 16.395 49.0663L17.8816 48.3778C19.0509 47.8362 20.0029 46.735 20.4821 45.3082L21.0683 43.5624C21.1376 43.3562 21.3307 43.2173 21.5482 43.2173ZM21.5482 45.3138L21.4419 45.6305C20.8863 47.285 19.7615 48.6229 18.3071 49.2965L17.8123 49.5257L18.3071 49.7548C19.7615 50.4285 20.8863 51.7663 21.4419 53.4208L21.5482 53.7376L21.6546 53.4208C22.2102 51.7663 23.335 50.4285 24.7894 49.7548L25.2841 49.5257L24.7894 49.2965C23.335 48.6229 22.2102 47.285 21.6546 45.6305L21.5482 45.3138Z" fill="#2C2C2C"/>
<path fill-rule="evenodd" clip-rule="evenodd" d="M24.4204 56.3152C24.6387 56.3152 24.8324 56.4551 24.901 56.6623L25.3646 58.0624C25.7365 59.1857 26.4727 60.0443 27.3667 60.4642L28.5421 61.0164C28.7197 61.0999 28.8331 61.2784 28.8331 61.4746C28.8331 61.6708 28.7197 61.8494 28.5421 61.9328L27.3667 62.485C26.4727 62.905 25.7365 63.7635 25.3646 64.8869L24.901 66.2869C24.8324 66.4942 24.6387 66.6341 24.4204 66.6341C24.2022 66.6341 24.0085 66.4942 23.9399 66.2869L23.4763 64.8869C23.1044 63.7635 22.3681 62.905 21.4742 62.485L20.2988 61.9328C20.1212 61.8494 20.0078 61.6708 20.0078 61.4746C20.0078 61.2784 20.1212 61.0999 20.2988 61.0164L21.4742 60.4642C22.3681 60.0443 23.1044 59.1857 23.4763 58.0624L23.9399 56.6623C24.0085 56.4551 24.2022 56.3152 24.4204 56.3152ZM24.4204 58.4313C23.9684 59.7559 23.0705 60.833 21.9047 61.3806L21.7047 61.4746L21.9047 61.5686C23.0705 62.1163 23.9684 63.1933 24.4204 64.518C24.8725 63.1933 25.7704 62.1163 26.9362 61.5686L27.1362 61.4746L26.9362 61.3806C25.7704 60.833 24.8725 59.7559 24.4204 58.4313Z" fill="#2C2C2C"/>
<path fill-rule="evenodd" clip-rule="evenodd" d="M63.4829 44.3662C63.7012 44.3662 63.8949 44.5061 63.9635 44.7133L64.4271 46.1134C64.799 47.2368 65.5352 48.0953 66.4292 48.5153L67.6046 49.0674C67.7822 49.1509 67.8956 49.3294 67.8956 49.5257C67.8956 49.7219 67.7822 49.9004 67.6046 49.9839L66.4292 50.536C65.5352 50.956 64.799 51.8145 64.4271 52.9379L63.9635 54.338C63.8949 54.5452 63.7012 54.6851 63.4829 54.6851C63.2647 54.6851 63.071 54.5452 63.0024 54.338L62.5388 52.9379C62.1669 51.8145 61.4306 50.956 60.5367 50.536L59.3613 49.9839C59.1837 49.9004 59.0703 49.7219 59.0703 49.5257C59.0703 49.3294 59.1837 49.1509 59.3613 49.0674L60.5367 48.5153C61.4306 48.0953 62.1669 47.2368 62.5388 46.1134L63.0024 44.7133C63.071 44.5061 63.2647 44.3662 63.4829 44.3662ZM63.4829 46.4823C63.0309 47.807 62.133 48.884 60.9672 49.4317L60.7672 49.5257L60.9672 49.6196C62.133 50.1673 63.0309 51.2444 63.4829 52.569C63.935 51.2444 64.8329 50.1673 65.9987 49.6196L66.1987 49.5257L65.9987 49.4317C64.8329 48.884 63.935 47.807 63.4829 46.4823Z" fill="#2C2C2C"/>
</svg>
