<svg width="84" height="84" viewBox="0 0 84 84" fill="none" xmlns="http://www.w3.org/2000/svg">
<g clip-path="url(#clip0_527_5648)">
<path d="M18.6016 60.9H24.0898C25.5226 60.9 26.9446 61.1007 28.3207 61.4967C32.0188 62.5623 38.6005 64.455 41.4022 65.2497C41.7415 65.3451 42.0898 65.3883 42.4408 65.3982C43.2229 65.4171 44.4109 65.0832 45.0841 64.6863C49.8307 61.881 60.664 55.4478 64.2352 53.3454C64.8724 52.971 65.3332 52.3275 65.3935 51.5913C65.5051 50.2305 64.4287 49.2 63.1885 49.2C62.9428 49.2 62.6899 49.2468 62.4415 49.3386L49.0729 54.3642" stroke="#F0EFEB" stroke-width="1.5" stroke-miterlimit="10"/>
<path d="M18.6016 51.9H23.1016C26.8951 51.9 29.9641 50.1 33.9016 50.1C38.4016 50.1 44.4766 51.2574 47.7589 51.9351C48.5815 52.1052 49.2016 52.8279 49.2016 53.7C49.2016 54.6936 48.3952 55.5 47.4016 55.5C44.5747 55.5 39.3016 55.5 36.6016 55.5" stroke="#F0EFEB" stroke-width="1.5" stroke-miterlimit="10"/>
<path d="M32.1016 42.8236C33.2032 39.7303 36.3182 37.5 39.9875 37.5C44.5782 37.5 48.3016 40.9923 48.3016 45.2983C48.3016 46.7202 47.8956 48.0524 47.1861 49.2" stroke="#F0EFEB" stroke-width="1.5" stroke-miterlimit="10"/>
<path d="M26.2677 51C25.9679 50.263 25.8008 49.4386 25.8008 48.5688C25.8008 45.438 27.9655 42.9 30.6358 42.9C32.4081 42.9 33.9581 44.0175 34.8008 45.6874" stroke="#F0EFEB" stroke-width="1.5" stroke-miterlimit="10"/>
<path d="M48.3008 45.15C49.2008 42.9 51.4508 42 53.8566 42C57.2497 42 60.0008 44.9014 60.0008 48.48C60.0008 49.0405 59.9332 49.5832 59.8072 50.1" stroke="#F0EFEB" stroke-width="1.5" stroke-miterlimit="10"/>
<path d="M33.3121 21.5074C34.6694 23.0502 35.6215 24.4064 35.8634 26.2478C36.1692 28.5722 36.9388 31.8002 38.8709 33.4659C41.6276 35.8424 45.7897 35.5341 48.1663 32.7774C50.5428 30.0207 50.2345 25.8586 47.4778 23.4821C45.4224 21.7101 39.1243 18.328 33.3121 21.5074Z" stroke="#F0EFEB" stroke-width="1.5" stroke-miterlimit="10"/>
<path d="M33.3097 21.5072C42.7536 21.7557 51.8995 32.55 48.2998 43.8" stroke="#F0EFEB" stroke-width="1.5" stroke-miterlimit="10"/>
<path d="M46.5757 30.1624C44.9319 30.815 43.3738 30.4692 42.7217 30.266" stroke="#F0EFEB" stroke-width="1.5" stroke-miterlimit="10"/>
</g>
<rect x="0.75" y="0.75" width="82.5" height="82.5" rx="41.25" stroke="#F0EFEB" stroke-width="1.5"/>
<defs>
<clipPath id="clip0_527_5648">
<rect width="54" height="54" fill="white" transform="translate(15 15)"/>
</clipPath>
</defs>
</svg>
