<svg width="81" height="80" viewBox="0 0 81 80" fill="none" xmlns="http://www.w3.org/2000/svg">
<circle cx="40.3984" cy="40" r="40" fill="#697B69"/>
<path d="M36.8135 33.8689L45.277 43.331L53.7423 33.8671C55.6868 31.7923 56.8782 29.0026 56.8782 25.9346C56.8782 19.5271 51.6844 14.3334 45.277 14.3334C38.8695 14.3334 33.6758 19.5271 33.6758 25.9346C33.6758 29.0035 34.8671 31.7941 36.8135 33.8689V33.8689Z" stroke="#F0EFEB" stroke-width="1.5" stroke-miterlimit="10" stroke-linecap="round" stroke-linejoin="round"/>
<path d="M45.2763 17.4666C45.2763 17.4666 39.9219 22.8031 39.9219 27.7193C39.9219 32.6275 43.4915 33.9661 45.2763 33.9661C47.0611 33.9661 50.6307 32.6275 50.6307 27.7193C50.6307 23.1315 45.2763 17.4666 45.2763 17.4666Z" stroke="#F0EFEB" stroke-width="1.5" stroke-miterlimit="10" stroke-linecap="round" stroke-linejoin="round"/>
<path d="M45.2773 27.7195V38.4283" stroke="#F0EFEB" stroke-width="1.5" stroke-miterlimit="10" stroke-linecap="round" stroke-linejoin="round"/>
<path d="M30.7461 21.2834C31.5778 18.7231 33.16 16.4653 35.1153 14.7037" stroke="#F0EFEB" stroke-width="1.5" stroke-miterlimit="10" stroke-linecap="round" stroke-linejoin="round"/>
<path d="M59.2862 19.9126C60.1081 21.7804 60.4481 23.7624 60.4481 25.9345C60.4481 28.7857 59.661 31.454 58.293 33.7323" stroke="#F0EFEB" stroke-width="1.5" stroke-miterlimit="10" stroke-linecap="round" stroke-linejoin="round"/>
<path d="M53.0999 34.5864C55.7771 35.4788 59.5564 37.5358 59.5564 41.1054C59.5564 41.814 59.3494 42.4752 58.9933 43.0303C57.395 45.3113 54.202 44.675 54.202 47.3522C54.202 50.0294 57.7716 50.3605 57.7716 53.3964C57.7716 55.1857 56.2376 56.2762 54.7589 56.2762C51.5248 56.2762 51.1848 54.4914 47.0628 54.4914C40.4617 54.4914 39.9236 60.7382 31.2129 60.7382C24.0737 60.7382 19.3984 56.8063 19.3984 50.9218C19.3984 48.1491 20.9396 46.0573 22.968 44.2431C26.1209 41.4231 27.43 39.3206 27.43 35.751C27.43 32.7936 29.827 30.3966 32.7844 30.3966C33.4689 30.3966 34.123 30.5251 34.7245 30.7589" stroke="#F0EFEB" stroke-width="1.5" stroke-miterlimit="10" stroke-linecap="round" stroke-linejoin="round"/>
<path d="M59.5581 41.1055V45.5675C59.5581 46.276 59.351 46.9373 58.995 47.4924C58.049 48.8435 56.5426 49.171 55.4727 49.7689" stroke="#F0EFEB" stroke-width="1.5" stroke-miterlimit="10" stroke-linecap="round" stroke-linejoin="round"/>
<path d="M19.3984 50.9216V55.3836C19.3984 61.2681 24.0737 65.2 31.2129 65.2C39.9236 65.2 40.4617 58.9532 47.0628 58.9532C51.1848 58.9532 51.5248 60.738 54.7589 60.738C56.2376 60.738 57.7716 59.6475 57.7716 57.8582V53.3963" stroke="#F0EFEB" stroke-width="1.5" stroke-miterlimit="10" stroke-linecap="round" stroke-linejoin="round"/>
<path d="M20.5638 21.3334L19.8046 24.3702C19.6564 24.9628 19.5824 25.2591 19.4281 25.5002C19.2916 25.7134 19.1105 25.8945 18.8973 26.031C18.6562 26.1853 18.3599 26.2594 17.7673 26.4075L14.7305 27.1667L17.7673 27.9259C18.3599 28.0741 18.6562 28.1481 18.8973 28.3024C19.1105 28.4389 19.2916 28.62 19.4281 28.8332C19.5824 29.0743 19.6564 29.3706 19.8046 29.9632L20.5638 33L21.323 29.9632C21.4712 29.3706 21.5452 29.0743 21.6995 28.8332C21.836 28.62 22.0171 28.4389 22.2303 28.3024C22.4714 28.1481 22.7677 28.0741 23.3603 27.9259L26.3971 27.1667L23.3603 26.4075C22.7677 26.2594 22.4714 26.1853 22.2303 26.031C22.0171 25.8945 21.836 25.7134 21.6995 25.5002C21.5452 25.2591 21.4712 24.9628 21.323 24.3702L20.5638 21.3334Z" stroke="#F0EFEB" stroke-width="1.5" stroke-miterlimit="10" stroke-linecap="round" stroke-linejoin="round"/>
</svg>
