<svg width="80" height="80" viewBox="0 0 80 80" fill="none" xmlns="http://www.w3.org/2000/svg">
<circle cx="40" cy="40" r="40" fill="#697B69"/>
<path d="M40 40L50.5 29.5M40 40L40 49.3333M40 40L29.5 29.5" stroke="#F0EFEB" stroke-width="1.5" stroke-linecap="round" stroke-linejoin="round"/>
<path d="M22.0664 58.0834C22.6372 57.3523 23.2533 56.6553 23.9119 55.9967C26.0244 53.8842 28.5324 52.2084 31.2925 51.0651C34.0527 49.9218 37.011 49.3334 39.9986 49.3334C42.9861 49.3334 45.9445 49.9218 48.7046 51.0651C51.4648 52.2084 53.9727 53.8842 56.0853 55.9967C56.7438 56.6553 57.36 57.3523 57.9307 58.0834" stroke="#F0EFEB" stroke-width="1.5" stroke-linecap="round"/>
<path d="M21.332 58.6667C21.592 58.2768 21.8726 57.905 22.1725 57.5538C23.1346 56.4271 24.2768 55.5334 25.5338 54.9236C26.7908 54.3138 28.1381 54 29.4987 54C30.8593 54 32.2066 54.3138 33.4636 54.9236C34.7206 55.5334 35.8628 56.4271 36.8249 57.5538C37.1248 57.905 37.4054 58.2767 37.6654 58.6667" stroke="#F0EFEB" stroke-width="1.5" stroke-linecap="round"/>
<path d="M35.332 61.3333C35.4806 61.1105 35.6409 60.8981 35.8123 60.6974C36.3621 60.0535 37.0147 59.5428 37.733 59.1944C38.4513 58.846 39.2212 58.6666 39.9987 58.6666C40.7762 58.6666 41.5461 58.846 42.2644 59.1944C42.9827 59.5428 43.6353 60.0535 44.1851 60.6974C44.3565 60.8981 44.5168 61.1105 44.6654 61.3333" stroke="#F0EFEB" stroke-width="1.5" stroke-linecap="round"/>
<path d="M45.0702 33.7644C45.0702 33.7644 51.4747 37.4979 56.1489 32.8236C60.1555 28.817 59.4322 19.4023 59.4322 19.4023C59.4322 19.4023 50.0175 18.6791 46.011 22.6856C41.3367 27.3599 45.0702 33.7644 45.0702 33.7644Z" stroke="#F0EFEB" stroke-width="1.5" stroke-miterlimit="10"/>
<path d="M37.0259 37.0253C37.0259 37.0253 41.0005 30.2072 36.0243 25.231C31.759 20.9657 21.7362 21.7356 21.7362 21.7356C21.7362 21.7356 20.9663 31.7584 25.2316 36.0237C30.2078 40.9999 37.0259 37.0253 37.0259 37.0253Z" stroke="#F0EFEB" stroke-width="1.5" stroke-miterlimit="10"/>
</svg>
