<svg width="81" height="80" viewBox="0 0 81 80" fill="none" xmlns="http://www.w3.org/2000/svg">
<circle cx="40.1992" cy="40" r="40" fill="#697B69"/>
<path d="M43.4321 33.7897C42.4651 33.2852 41.3655 33 40.1992 33C36.3332 33 33.1992 36.134 33.1992 40C33.1992 42.591 34.6069 44.8532 36.6992 46.0635" stroke="#F0EFEB" stroke-width="1.5" stroke-miterlimit="10" stroke-linecap="round" stroke-linejoin="round"/>
<path d="M55.2972 26.8634C56.5105 24.7634 55.7872 22.0334 53.6639 20.8201L49.6272 18.5101C47.7839 17.4134 45.4039 18.0667 44.3072 19.9101L44.0505 20.3534C41.9272 24.0167 38.4739 24.0167 36.3739 20.3534L36.1172 19.9101C35.0205 18.0667 32.6405 17.4134 30.7972 18.5101L26.7605 20.8201C24.6372 22.0334 23.9139 24.7634 25.1272 26.8634C27.2505 30.5267 25.5239 33.5134 21.3005 33.5134C18.8505 33.5134 16.8672 35.5201 16.8672 37.9467V42.0534C16.8672 44.4801 18.8505 46.4867 21.3005 46.4867C25.5239 46.4867 27.2505 49.4734 25.1272 53.1367C23.9139 55.2367 24.6372 57.9667 26.7605 59.1801L30.7972 61.4901" stroke="#F0EFEB" stroke-width="1.5" stroke-miterlimit="10" stroke-linecap="round" stroke-linejoin="round"/>
<path d="M57.2926 39.2386L35.5312 61M60.4014 50.1193H46.4119M42.6814 56.3368H53.1537C53.5339 56.3368 53.724 56.3368 53.9029 56.2939C54.0615 56.2558 54.2131 56.193 54.3522 56.1078C54.509 56.0116 54.6434 55.8772 54.9123 55.6084L62.7329 47.7877C63.1044 47.4163 63.2901 47.2306 63.4396 47.0661C66.6729 43.509 66.6729 38.077 63.4396 34.5199C63.2901 34.3554 63.1044 34.1697 62.7329 33.7983C62.3615 33.4268 62.1758 33.2411 62.0114 33.0916C58.4542 29.8583 53.0222 29.8583 49.4651 33.0916C49.3007 33.2411 49.1149 33.4268 48.7435 33.7983L40.9228 41.6189C40.654 41.8878 40.5196 42.0222 40.4235 42.1791C40.3382 42.3181 40.2754 42.4698 40.2373 42.6284C40.1944 42.8072 40.1944 42.9973 40.1944 43.3775V53.8498C40.1944 54.7203 40.1944 55.1556 40.3638 55.4881C40.5128 55.7806 40.7506 56.0184 41.0431 56.1674C41.3756 56.3368 41.8109 56.3368 42.6814 56.3368Z" stroke="#F0EFEB" stroke-width="1.5" stroke-linecap="round" stroke-linejoin="round"/>
</svg>
